<?xml version="1.0" encoding="utf-8"?>
<!-- Generator: Adobe Adobe Illustrator 24.2.0, SVG Export Plug-In . SVG Version: 6.00 Build 0)  -->
<svg version="1.1" xmlns="http://www.w3.org/2000/svg" xmlns:xlink="http://www.w3.org/1999/xlink" x="0px" y="0px" width="243px"
	 height="56.35px" viewBox="0 0 243 56.35" style="enable-background:new 0 0 243 56.35;" xml:space="preserve">
<style type="text/css">
	.st0{display:none;}
	.st1{display:inline;fill:#FFFFFF;stroke:#000000;stroke-miterlimit:10;}
	.st2{opacity:0.949;}
	.st3{stroke:#000000;stroke-miterlimit:10;}
	.st4{fill:url(#SVGID_1_);}
	.st5{fill:#FF0000;}
	.st6{fill:#FFFFFF;}
	.st7{fill:#4CFF00;}
</style>
<g id="Layer_1">
</g>
<g id="Layer_2" class="st0">
</g>
<g id="Layer_3">
	<g>
		<g>
			<g>
				<g class="st2">
					<path class="st3" d="M22.31,35.18h3.09v0.16c0,1.02-0.35,2.05-1.05,3.11s-1.66,1.83-2.86,2.32s-2.62,0.74-4.27,0.74
						c-3.28,0-5.96-1.14-8.05-3.42s-3.13-5.7-3.13-10.27c0-4.53,1.04-7.95,3.12-10.24s4.77-3.45,8.09-3.45
						c1.62,0,3.04,0.25,4.24,0.74s2.16,1.27,2.86,2.34s1.05,2.1,1.05,3.08v0.16h-3.09v-0.16c0-0.62-0.2-1.23-0.6-1.82
						s-0.96-1.03-1.7-1.32s-1.62-0.45-2.65-0.45c-2.64,0-4.61,1.04-5.91,3.13s-1.95,4.75-1.95,7.98c0,3.27,0.65,5.93,1.96,8
						s3.26,3.11,5.87,3.11c1.8,0,3.07-0.37,3.83-1.11s1.14-1.57,1.14-2.47V35.18z"/>
					<path class="st3" d="M37.02,41.25c-2.44,0-4.51-0.82-6.22-2.47s-2.57-4.1-2.57-7.35c0-3.23,0.86-5.68,2.57-7.32
						s3.79-2.47,6.22-2.47c2.42,0,4.49,0.82,6.2,2.47s2.57,4.09,2.57,7.32c0,3.25-0.86,5.7-2.57,7.35S39.45,41.25,37.02,41.25z
						 M37.02,38.67c1.66,0,2.99-0.66,4.01-1.99s1.52-3.08,1.52-5.25c0-2.16-0.51-3.9-1.52-5.23s-2.35-1.99-4.01-1.99
						c-1.67,0-3.02,0.66-4.03,1.99s-1.52,3.07-1.52,5.23c0,2.17,0.51,3.92,1.52,5.25S35.35,38.67,37.02,38.67z"/>
					<path class="st3" d="M52.87,40.73h-3.09V22.14h3.09v3.35c0.64-1.11,1.25-1.91,1.82-2.4s1.2-0.86,1.88-1.1s1.4-0.36,2.17-0.36
						s1.5,0.12,2.19,0.35s1.3,0.59,1.8,1.08s1.01,1.3,1.51,2.44c0.64-1.08,1.27-1.87,1.89-2.37s1.25-0.88,1.9-1.12
						s1.34-0.38,2.07-0.38c1.05,0,2,0.25,2.85,0.74s1.51,1.2,1.97,2.11s0.69,2.46,0.69,4.63v11.62h-3.09V30.39
						c0-2.19-0.13-3.57-0.4-4.15s-0.63-1.02-1.09-1.32s-1.02-0.46-1.68-0.46c-0.92,0-1.77,0.29-2.54,0.86s-1.39,1.34-1.86,2.31
						s-0.7,2.32-0.7,4.05v9.05h-3.09V30.39c0-2.19-0.12-3.57-0.35-4.15s-0.61-1.02-1.14-1.32s-1.08-0.46-1.68-0.46
						c-0.84,0-1.68,0.3-2.5,0.89s-1.46,1.38-1.92,2.36s-0.69,2.3-0.69,3.97V40.73z"/>
					<path class="st3" d="M83.34,40.73h-3.09V22.14h3.09v3.35c0.64-1.11,1.25-1.91,1.82-2.4s1.2-0.86,1.88-1.1s1.4-0.36,2.17-0.36
						s1.5,0.12,2.19,0.35s1.3,0.59,1.8,1.08s1.01,1.3,1.51,2.44c0.64-1.08,1.27-1.87,1.89-2.37s1.25-0.88,1.9-1.12
						s1.34-0.38,2.07-0.38c1.05,0,2,0.25,2.85,0.74s1.51,1.2,1.97,2.11s0.69,2.46,0.69,4.63v11.62h-3.09V30.39
						c0-2.19-0.13-3.57-0.4-4.15s-0.63-1.02-1.09-1.32s-1.02-0.46-1.68-0.46c-0.92,0-1.77,0.29-2.54,0.86s-1.39,1.34-1.86,2.31
						s-0.7,2.32-0.7,4.05v9.05h-3.09V30.39c0-2.19-0.12-3.57-0.35-4.15s-0.61-1.02-1.14-1.32s-1.08-0.46-1.68-0.46
						c-0.84,0-1.68,0.3-2.5,0.89s-1.46,1.38-1.92,2.36s-0.69,2.3-0.69,3.97V40.73z"/>
					<path class="st3" d="M122.6,22.14h3.09v18.59h-3.09V37.5c-0.64,0.98-1.27,1.73-1.89,2.23s-1.25,0.88-1.91,1.14
						s-1.38,0.39-2.16,0.39c-1.72,0-3.18-0.48-4.37-1.45s-1.79-2.92-1.79-5.86V22.14h3.09v10.48c0,2.72,0.36,4.36,1.08,4.93
						s1.61,0.86,2.67,0.86c0.92,0,1.79-0.27,2.61-0.81s1.47-1.3,1.95-2.27s0.71-2.32,0.71-4.04V22.14z"/>
					<path class="st3" d="M133.68,40.73h-3.09V22.14h3.09v3.21c0.66-1.02,1.29-1.77,1.91-2.25s1.26-0.85,1.93-1.1
						s1.42-0.38,2.25-0.38c1.16,0,2.2,0.24,3.13,0.71s1.65,1.18,2.16,2.11s0.76,2.41,0.76,4.44v11.84h-3.09v-10.5
						c0-1.67-0.11-2.85-0.33-3.54s-0.65-1.23-1.3-1.63s-1.35-0.6-2.1-0.6c-0.91,0-1.77,0.27-2.59,0.8s-1.48,1.28-1.98,2.24
						s-0.75,2.32-0.75,4.09V40.73z"/>
					<path class="st3" d="M150.46,18.02V14.9h3.09v3.12H150.46z M150.46,22.14h3.09v18.59h-3.09V22.14z"/>
					<path class="st3" d="M163.26,40.73h-3.09V24.72h-2.72v-2.58h2.72v-0.87c0-2.7,0.57-4.61,1.71-5.73s2.62-1.68,4.45-1.68
						c0.69,0,1.55,0.08,2.6,0.23v2.53c-0.86-0.11-1.55-0.16-2.06-0.16c-1,0-1.85,0.24-2.55,0.73s-1.05,1.65-1.05,3.49v1.45h5.44
						v2.58h-5.44V40.73z"/>
					<path class="st3" d="M177.84,39.93l-7.99-17.79h3.42l6.23,13.8l5.81-13.8h3.12l-7.83,18.61c-1.06,2.5-1.95,4.16-2.66,4.98
						s-1.46,1.39-2.25,1.72s-1.85,0.49-3.18,0.49h-2.32v-2.58h1.73c0.86,0,1.61-0.11,2.26-0.34s1.18-0.59,1.61-1.09
						s0.99-1.6,1.71-3.3L177.84,39.93z"/>
				</g>
				<g>
					<radialGradient id="SVGID_1_" cx="214.3377" cy="28.377" r="20" gradientUnits="userSpaceOnUse">
						<stop  offset="0" style="stop-color:#FFFF00"/>
						<stop  offset="0.25" style="stop-color:#BFFF3E"/>
						<stop  offset="0.5" style="stop-color:#7FFF7C"/>
						<stop  offset="1" style="stop-color:#00FFF7"/>
					</radialGradient>
					<path class="st4" d="M194.34,39.38v-22c0-4.97,4.03-9,9-9l22,0c4.97,0,9,4.03,9,9v22c0,4.97-4.03,9-9,9h-22
						C198.37,48.38,194.34,44.35,194.34,39.38z"/>
				</g>
				<circle class="st5" cx="231.37" cy="10.71" r="6.5"/>
				<g>
					<path class="st6" d="M231.19,8.27h-0.02l-1.01,0.54l-0.15-0.6l1.26-0.68h0.67v5.78h-0.76V8.27z"/>
				</g>
				<ellipse class="st6" cx="214.34" cy="28.38" rx="13.75" ry="10.9"/>
				<path class="st6" d="M206.11,36.15c-0.51,1.86-1.05,3.78-2.32,5.25c1.05,0.01,2.02-0.48,2.93-1c1.45-0.82,2.86-1.74,4.07-2.88"
					/>
				<circle class="st7" cx="208.92" cy="28.38" r="1.62"/>
				<circle class="st7" cx="214.63" cy="28.38" r="1.62"/>
				<circle class="st7" cx="220.34" cy="28.38" r="1.62"/>
			</g>
		</g>
	</g>
</g>
</svg>
