<?xml version="1.0" encoding="utf-8"?>
<!-- Generator: Adobe Illustrator 27.9.0, SVG Export Plug-In . SVG Version: 6.00 Build 0)  -->
<svg version="1.1" id="Layer_1" xmlns="http://www.w3.org/2000/svg" xmlns:xlink="http://www.w3.org/1999/xlink" x="0px" y="0px"
	 width="243px"
	 height="56.35px"
	 viewBox="0 0 243 56.3" style="enable-background:new 0 0 243 56.3;" xml:space="preserve">
<style type="text/css">
	.st0{display:none;}
	.st1{opacity:0.949;}
	.st2{fill:#FFFFFF;}
	.st3{fill:url(#SVGID_1_);}
	.st4{fill:#FF0000;}
	.st5{fill:#4CFF00;}
</style>
<g id="Layer_1_00000115506823452689051150000013025524393411818890_">
</g>
<g id="Layer_2_00000013150794063529130370000012359849538793833616_" class="st0">
</g>
<g>
	<g>
		<g class="st1">
			<path class="st2" d="M22.3,35.2h3.1v0.2c0,1-0.4,2-1,3.1s-1.7,1.8-2.9,2.3s-2.6,0.7-4.3,0.7c-3.3,0-6-1.1-8.1-3.4S6,32.4,6,27.8
				c0-4.5,1-8,3.1-10.2s4.8-3.4,8.1-3.4c1.6,0,3,0.2,4.2,0.7s2.2,1.3,2.9,2.3s1,2.1,1,3.1v0.2h-3.1v-0.2c0-0.6-0.2-1.2-0.6-1.8
				s-1-1-1.7-1.3s-1.6-0.5-2.6-0.5c-2.6,0-4.6,1-5.9,3.1s-1.9,4.8-1.9,8c0,3.3,0.6,5.9,2,8s3.3,3.1,5.9,3.1c1.8,0,3.1-0.4,3.8-1.1
				s1.1-1.6,1.1-2.5L22.3,35.2L22.3,35.2z"/>
			<path class="st2" d="M37,41.2c-2.4,0-4.5-0.8-6.2-2.5s-2.6-4.1-2.6-7.4c0-3.2,0.9-5.7,2.6-7.3c1.7-1.6,3.8-2.5,6.2-2.5
				c2.4,0,4.5,0.8,6.2,2.5s2.6,4.1,2.6,7.3c0,3.3-0.9,5.7-2.6,7.4S39.5,41.2,37,41.2z M37,38.7c1.7,0,3-0.7,4-2s1.5-3.1,1.5-5.2
				c0-2.2-0.5-3.9-1.5-5.2s-2.3-2-4-2c-1.7,0-3,0.7-4,2s-1.5,3.1-1.5,5.2c0,2.2,0.5,3.9,1.5,5.2C34,38,35.3,38.7,37,38.7z"/>
			<path class="st2" d="M52.9,40.7h-3.1V22.1h3.1v3.4c0.6-1.1,1.2-1.9,1.8-2.4s1.2-0.9,1.9-1.1s1.4-0.4,2.2-0.4s1.5,0.1,2.2,0.4
				s1.3,0.6,1.8,1.1s1,1.3,1.5,2.4c0.6-1.1,1.3-1.9,1.9-2.4s1.2-0.9,1.9-1.1s1.3-0.4,2.1-0.4c1.1,0,2,0.2,2.8,0.7s1.5,1.2,2,2.1
				s0.7,2.5,0.7,4.6v11.6h-3.1V30.4c0-2.2-0.1-3.6-0.4-4.1s-0.6-1-1.1-1.3s-1-0.5-1.7-0.5c-0.9,0-1.8,0.3-2.5,0.9s-1.4,1.3-1.9,2.3
				s-0.7,2.3-0.7,4v9h-3.1V30.4c0-2.2-0.1-3.6-0.3-4.1s-0.6-1-1.1-1.3s-1.1-0.5-1.7-0.5c-0.8,0-1.7,0.3-2.5,0.9s-1.5,1.4-1.9,2.4
				s-0.7,2.3-0.7,4L52.9,40.7L52.9,40.7z"/>
			<path class="st2" d="M83.3,40.7h-3.1V22.1h3.1v3.4c0.6-1.1,1.2-1.9,1.8-2.4s1.2-0.9,1.9-1.1s1.4-0.4,2.2-0.4s1.5,0.1,2.2,0.4
				s1.3,0.6,1.8,1.1s1,1.3,1.5,2.4c0.6-1.1,1.3-1.9,1.9-2.4s1.2-0.9,1.9-1.1s1.3-0.4,2.1-0.4c1.1,0,2,0.2,2.8,0.7s1.5,1.2,2,2.1
				s0.7,2.5,0.7,4.6v11.6H103V30.4c0-2.2-0.1-3.6-0.4-4.1s-0.6-1-1.1-1.3s-1-0.5-1.7-0.5c-0.9,0-1.8,0.3-2.5,0.9s-1.4,1.3-1.9,2.3
				s-0.7,2.3-0.7,4v9h-3.1V30.4c0-2.2-0.1-3.6-0.3-4.1s-0.6-1-1.1-1.3s-1.1-0.5-1.7-0.5c-0.8,0-1.7,0.3-2.5,0.9s-1.5,1.4-1.9,2.4
				s-0.7,2.3-0.7,4L83.3,40.7L83.3,40.7z"/>
			<path class="st2" d="M122.6,22.1h3.1v18.6h-3.1v-3.2c-0.6,1-1.3,1.7-1.9,2.2s-1.2,0.9-1.9,1.1s-1.4,0.4-2.2,0.4
				c-1.7,0-3.2-0.5-4.4-1.5s-1.8-2.9-1.8-5.9V22.1h3.1v10.5c0,2.7,0.4,4.4,1.1,4.9s1.6,0.9,2.7,0.9c0.9,0,1.8-0.3,2.6-0.8
				s1.5-1.3,1.9-2.3s0.7-2.3,0.7-4L122.6,22.1L122.6,22.1z"/>
			<path class="st2" d="M133.7,40.7h-3.1V22.1h3.1v3.2c0.7-1,1.3-1.8,1.9-2.2s1.3-0.9,1.9-1.1s1.4-0.4,2.2-0.4
				c1.2,0,2.2,0.2,3.1,0.7s1.6,1.2,2.2,2.1s0.8,2.4,0.8,4.4v11.8h-3.1V30.2c0-1.7-0.1-2.9-0.3-3.5s-0.6-1.2-1.3-1.6
				s-1.4-0.6-2.1-0.6c-0.9,0-1.8,0.3-2.6,0.8s-1.5,1.3-2,2.2s-0.8,2.3-0.8,4.1V40.7z"/>
			<path class="st2" d="M150.5,18v-3.1h3.1V18H150.5z M150.5,22.1h3.1v18.6h-3.1V22.1z"/>
			<path class="st2" d="M163.3,40.7h-3.1v-16h-2.7v-2.6h2.7v-0.9c0-2.7,0.6-4.6,1.7-5.7s2.6-1.7,4.4-1.7c0.7,0,1.6,0.1,2.6,0.2v2.5
				c-0.9-0.1-1.6-0.2-2.1-0.2c-1,0-1.9,0.2-2.6,0.7s-1.1,1.6-1.1,3.5v1.5h5.4v2.6h-5.4L163.3,40.7L163.3,40.7z"/>
			<path class="st2" d="M177.8,39.9l-8-17.8h3.4l6.2,13.8l5.8-13.8h3.1l-7.8,18.6c-1.1,2.5-1.9,4.2-2.7,5s-1.5,1.4-2.2,1.7
				s-1.9,0.5-3.2,0.5h-2.3v-2.6h1.7c0.9,0,1.6-0.1,2.3-0.3s1.2-0.6,1.6-1.1s1-1.6,1.7-3.3L177.8,39.9z"/>
		</g>
		<g>
			
				<radialGradient id="SVGID_1_" cx="214.34" cy="29.62" r="20" gradientTransform="matrix(1 0 0 -1 0 58)" gradientUnits="userSpaceOnUse">
				<stop  offset="0" style="stop-color:#FFFF00"/>
				<stop  offset="0.25" style="stop-color:#BFFF3E"/>
				<stop  offset="0.5" style="stop-color:#7FFF7C"/>
				<stop  offset="1" style="stop-color:#00FFF7"/>
			</radialGradient>
			<path class="st3" d="M194.3,39.4v-22c0-5,4-9,9-9h22c5,0,9,4,9,9v22c0,5-4,9-9,9h-22C198.4,48.4,194.3,44.3,194.3,39.4z"/>
		</g>
		<circle class="st4" cx="231.4" cy="10.7" r="6.5"/>
		<g>
			<path class="st2" d="M231.2,8.3L231.2,8.3l-1,0.5L230,8.2l1.3-0.7h0.7v5.8h-0.8L231.2,8.3L231.2,8.3z"/>
		</g>
		<ellipse class="st2" cx="214.3" cy="28.4" rx="13.8" ry="10.9"/>
		<path class="st2" d="M206.1,36.2c-0.5,1.9-1.1,3.8-2.3,5.2c1.1,0,2-0.5,2.9-1c1.4-0.8,2.9-1.7,4.1-2.9"/>
		<circle class="st5" cx="208.9" cy="28.4" r="1.6"/>
		<circle class="st5" cx="214.6" cy="28.4" r="1.6"/>
		<circle class="st5" cx="220.3" cy="28.4" r="1.6"/>
	</g>
</g>
</svg>
