<?xml version="1.0" encoding="utf-8"?>
<!-- Generator: Adobe Adobe Illustrator 24.2.0, SVG Export Plug-In . SVG Version: 6.00 Build 0)  -->
<svg version="1.1" xmlns="http://www.w3.org/2000/svg" xmlns:xlink="http://www.w3.org/1999/xlink" x="0px" y="0px" width="69.25px"
	 height="69.25px" viewBox="0 0 49.25 49.25" style="enable-background:new 0 0 49.25 49.25;" xml:space="preserve">
<style type="text/css">
	.st0{display:none;}
	.st1{display:inline;fill:#FFFFFF;stroke:#000000;stroke-miterlimit:10;}
	.st2{fill:url(#SVGID_1_);}
	.st3{fill:#FFFFFF;}
	.st4{fill:#4CFF00;}
</style>
<g id="Layer_1">
</g>
<g id="Layer_2" class="st0">
</g>
<g id="Layer_3">
	<g>
		<g>
			<g>
				<g>
					<radialGradient id="SVGID_1_" cx="24.3377" cy="24.627" r="20" gradientUnits="userSpaceOnUse">
						<stop  offset="0" style="stop-color:#FFFF00"/>
						<stop  offset="0.25" style="stop-color:#BFFF3E"/>
						<stop  offset="0.5" style="stop-color:#7FFF7C"/>
						<stop  offset="1" style="stop-color:#00FFF7"/>
					</radialGradient>
					<path class="st2" d="M4.34,35.63l0-22c0-4.97,4.03-9,9-9l22,0c4.97,0,9,4.03,9,9v22c0,4.97-4.03,9-9,9h-22
						C8.37,44.63,4.34,40.6,4.34,35.63z"/>
				</g>
				<ellipse class="st3" cx="24.34" cy="24.63" rx="13.75" ry="10.9"/>
				<path class="st3" d="M16.11,32.4c-0.51,1.86-1.05,3.78-2.32,5.25c1.05,0.01,2.02-0.48,2.93-1c1.45-0.82,2.86-1.74,4.07-2.88"/>
				<circle class="st4" cx="18.92" cy="24.63" r="1.62"/>
				<circle class="st4" cx="24.63" cy="24.63" r="1.62"/>
				<circle class="st4" cx="30.34" cy="24.63" r="1.62"/>
			</g>
		</g>
	</g>
</g>
</svg>
