<?xml version="1.0" encoding="UTF-8"?>
<svg id="Capa_1" data-name="Capa 1" xmlns="http://www.w3.org/2000/svg" viewBox="0 0 729.6 286.3">
  <defs>
    <style>
      .cls-1 {
        fill: #6cb1ce;
      }

      .cls-1, .cls-2, .cls-3, .cls-4, .cls-5, .cls-6, .cls-7, .cls-8, .cls-9, .cls-10, .cls-11, .cls-12, .cls-13, .cls-14, .cls-15, .cls-16, .cls-17, .cls-18, .cls-19, .cls-20, .cls-21, .cls-22, .cls-23, .cls-24, .cls-25, .cls-26, .cls-27, .cls-28, .cls-29, .cls-30, .cls-31, .cls-32, .cls-33, .cls-34, .cls-35, .cls-36, .cls-37, .cls-38, .cls-39, .cls-40, .cls-41, .cls-42, .cls-43, .cls-44, .cls-45, .cls-46, .cls-47 {
        stroke-width: 0px;
      }

      .cls-2 {
        fill: #4c488e;
      }

      .cls-3 {
        fill: #e6ab86;
      }

      .cls-4 {
        fill: #004f8c;
      }

      .cls-5 {
        fill: #c38c6e;
      }

      .cls-6 {
        fill: #fbb88e;
      }

      .cls-7 {
        fill: #00bad0;
      }

      .cls-8 {
        fill: #e98824;
      }

      .cls-9 {
        fill: #006bb6;
      }

      .cls-10 {
        fill: #38317d;
      }

      .cls-11 {
        fill: #c2ddf4;
      }

      .cls-12 {
        fill: #002c43;
      }

      .cls-13 {
        fill: #be7d5a;
      }

      .cls-14 {
        fill: #955025;
      }

      .cls-15 {
        fill: #001346;
      }

      .cls-16 {
        fill: #2ca4d1;
      }

      .cls-17 {
        fill: #072960;
      }

      .cls-18 {
        fill: #5fcae5;
      }

      .cls-19 {
        fill: #602b15;
      }

      .cls-20 {
        fill: #2d368c;
      }

      .cls-21 {
        fill: #003a54;
      }

      .cls-22 {
        fill: #aa7150;
      }

      .cls-23 {
        fill: #fff;
      }

      .cls-24 {
        fill: #a0d0e2;
      }

      .cls-25 {
        fill: #006ab6;
      }

      .cls-26 {
        fill: #5a3d85;
      }

      .cls-27 {
        fill: #4c74a4;
      }

      .cls-28 {
        fill: #6a54a1;
      }

      .cls-29 {
        fill: #75aed5;
      }

      .cls-30 {
        fill: #232570;
      }

      .cls-31 {
        fill: #97d5f0;
      }

      .cls-32 {
        fill: #6f5fa6;
      }

      .cls-33 {
        fill: #a25a84;
      }

      .cls-34 {
        fill: #594481;
      }

      .cls-35 {
        fill: #6c3d85;
      }

      .cls-36 {
        fill: #e5c7c0;
      }

      .cls-37 {
        fill: #b55382;
      }

      .cls-38 {
        fill: #a3765c;
      }

      .cls-39 {
        fill: #f8b78f;
      }

      .cls-40 {
        fill: #4d4b85;
      }

      .cls-41 {
        fill: #0e074b;
      }

      .cls-42 {
        fill: #90c1e8;
      }

      .cls-43 {
        fill: #526a9b;
      }

      .cls-44 {
        fill: #4c1d04;
      }

      .cls-45 {
        fill: #00172d;
      }

      .cls-46 {
        fill: #4a0f00;
      }

      .cls-47 {
        fill: #c8eaf5;
      }
    </style>
  </defs>
  <g>
    <g>
      <path class="cls-36" d="m0,278.4c0,4,17.5,7.2,39,7.2s39-3.2,39-7.2-17.5-7.2-39-7.2-39,3.2-39,7.2Z"/>
      <path class="cls-36" d="m214.5,278.4c0,4-18.4,7.2-41.2,7.2s-41.2-3.2-41.2-7.2,18.4-7.2,41.2-7.2,41.2,3.2,41.2,7.2Z"/>
      <path class="cls-36" d="m339.2,278.4c0,4-16.3,7.2-36.4,7.2s-36.4-3.2-36.4-7.2,16.3-7.2,36.4-7.2c20.1,0,36.4,3.2,36.4,7.2Z"/>
      <g>
        <path class="cls-15" d="m161.8,273.3l-11.2,2.9s-1.4.4-1.4,2.4h19.3l-.3-5.3h-6.4Z"/>
        <path class="cls-39" d="m111,172c-.7-1.9.4-2.1,1.9-2.7,1.1-.5,1-.3,2.1-.9,0,0-1,.4-1.8-.1-.9-.5-.2-1.3-.2-1.3l2.9-.1h1.8c.7,0,1.6.4,2.1.8.9.8.9,2.1.1,3-.8.8-1.8,1.1-2.8,1.7-.1.2-4.1,1.9-6.1-.4Z"/>
        <path class="cls-29" d="m120.4,173l23.2-7.8s3.6-1.9,7.3-8.1l10.9-15s.6-15.1-6.6-17.4c0,0-2.7,5-7.1,17.7l-6.4,12s-1.1,2.6-8.4,6.2l-14,5.6s-1.3,4.6,1.1,6.8Z"/>
        <polygon class="cls-4" points="157.5 168 161.7 273.3 168.3 273.3 179.5 168 157.5 168"/>
        <polygon class="cls-25" points="160.9 167.8 170.2 193.6 174.8 228.5 179.8 273.3 186.5 273.3 185.1 224.2 187.6 167.8 160.9 167.8"/>
        <rect class="cls-39" x="169" y="109.7" width="7.8" height="10.4"/>
        <path class="cls-39" d="m190.5,124.6c-2.2-3.4-5.6-4.3-5.6-4.3l-8.2-3h-7.8l-8.2,3s-3.4.9-5.6,4.3h35.4Z"/>
        <path class="cls-42" d="m176.8,117.3l8.2,3s6.1,1.6,7.2,8.6l-3.6,7.2,1.4,46.7h-34.6l1.6-45.1-3.2-8.7c1-7,7.2-8.6,7.2-8.6l8.2-3,2.6,3.1,5-3.2Z"/>
        <g>
          <path class="cls-39" d="m163.2,109.8c1.6,4.1,3.7,5,3.7,5l2.6.2c1.4-.4,3.9-1.3,3.9-1.3,5.5-2.7,7.5-2.9,8.3-6,0-.1,2-16.1,2-16.1-.3-8.2-9-8.7-10.3-8.8-1.3-.1-9.6-1.3-11,6.8-.1-.2-2.5,9.3.8,20.2Z"/>
          <path class="cls-39" d="m163.3,107.7c1.1,2.1,3.1,4.6,5.8,4.5,2,0,4.3-.9,6.1-1.6,2-.8,4.5-1.6,6.2-2.9.1-.1.2-.1.2-.2h0c0-.1,2-16.1,2-16.1-.3-8.2-9-8.7-10.3-8.8-1.3-.1-9.6-1.3-11,6.8,0,0-2,8.2.3,18.1.2-.1.5,0,.7.2Z"/>
          <path class="cls-3" d="m179.6,109.9c-3.2,1.5-5.1,2.5-7.5,3.4-3.8,1.3-5.8,1.5-8.8-3.6v.1c1.6,4.1,3.7,5,3.7,5l2.6.2c1.4-.4,3.9-1.3,3.9-1.3,4.3-2.1,6.4-2.7,7.6-4.3-.6.1-1.1.3-1.5.5Z"/>
          <path class="cls-14" d="m181.6,107.6c6-7.3,5.5-17.6,5.5-17.6.6-13.9-15.8-11.9-15.8-11.9-5.8-.1-5.7-3-5.7-3-2.8,2-2,5.3-2,5.3-1,0-1.1-1.9-1.1-1.9-3.7,2.8-1.5,6.8-1.5,6.8-.7,4,.5,14.4.5,14.4,0,0,.3-10.5,3.2-12.8,0,0,2.8-1.3,4.8.3,0,0,9.5-3.7,10.7,5.9l1.2,8.4.2,6.1Z"/>
          <path class="cls-39" d="m180.9,100.7s1-3.3,3.5-1.8c0,0,1.1.7.1,2.9,0,0-1.4,3.2-3.8,1.9l.2-3Z"/>
          <path class="cls-14" d="m180.2,93.4s.7,5.6.1,8.7l1.1.1s.1-3.9,2-4.2l-3.2-4.6Z"/>
        </g>
        <path class="cls-17" d="m180,273.3l-11.2,2.9s-1.4.4-1.4,2.4h19.3l-.3-5.3h-6.4Z"/>
        <g>
          <g>
            <path class="cls-6" d="m208.9,184s-5.9-23.9-17.9-42.9l7.4-2.9s10.4,17.1,14.4,44.1l-3.9,1.7Z"/>
            <g>
              <polygon class="cls-39" points="213.3 186.5 212.7 181.4 208.5 181.5 208.8 184.8 213.3 186.5"/>
              <path class="cls-6" d="m209.2,188l.3,2.5c-1.9.3-1.8-2.9-1.8-2.9,0,0,.4-4,4.3-3.9,1.3,0,2.4,3.3,2.4,3.3.2,1.3.1,3.4.1,3.4-.2.9-1.2.6-1.2.6-.3,1-1.1.4-1.1.4-.5.9-1.2.1-1.2.1-.8,1-1.5-.1-1.5-.1l-.3-3.4Z"/>
            </g>
          </g>
          <path class="cls-29" d="m207.6,183.8c-12.9-39.1-26-49.9-26-49.9-4-6.7.7-10.5.7-10.5,6.2-3.7,9.4,2.1,9.4,2.1,1.3,1.5,21.8,35.6,22.2,56.9.1,0-2,1.3-6.3,1.4Z"/>
        </g>
        <polygon class="cls-11" points="171.7 120.5 169 116.2 164.7 118.5 167.9 123.6 171.7 120.5"/>
        <polygon class="cls-11" points="171.7 120.5 176.8 115.7 181.1 118.3 175.5 123.9 171.7 120.5"/>
      </g>
      <g>
        <g>
          <path class="cls-40" d="m32.5,278.6c.6-3.1-9.9-8.5-8.4-7.6,0,0-.9-1.4-2.7-1.1,0,0-.8.4-.9,1.6,0,0-.1,1.2-.4,2.2,0,0,.1.3.8.5l1.1-.9,2.5,2.6c.1-.1,3.8,3.3,8,2.7Z"/>
          <path class="cls-39" d="m21.4,270.5s4.7,5.2,7.4,4.9c0,0,1.2,0,.2-.9,0,0-1.8-1.5-5-3.3l-2.6-.7Z"/>
        </g>
        <polygon class="cls-30" points="35.2 169.1 37.4 221.5 44.7 272.8 49.7 272.9 50 219.2 51.2 169.1 35.2 169.1"/>
        <polygon class="cls-20" points="48.1 172 39.9 186 39.3 228.8 25.6 271.9 20.6 270.1 29.4 228 23.4 171.3 48.1 172"/>
        <rect class="cls-38" x="26.4" y="103" width="13.3" height="24.7"/>
        <path class="cls-5" d="m33.3,79.7l.7,74.3,19.8-3-3.3-62.7s-1.5-10.9-17.2-8.6Z"/>
        <g>
          <path class="cls-40" d="m58.3,277.7c-.2-3.2-11.8-5.6-10.1-5.2,0,0-1.3-1.1-2.8-.4,0,0-.6.5-.4,1.7,0,0,.2,1.2.2,2.2,0,0,.2.3.9.3l.8-1.1,3,1.8c0,.1,4.4,2.4,8.4.7Z"/>
          <path class="cls-39" d="m45.4,272.8s5.9,3.8,8.4,2.8c0,0,1.2-.3,0-.9,0,0-2.1-1-5.6-1.9h-2.8Z"/>
        </g>
        <path class="cls-39" d="m67.6,153.1s.8-3.2-2.1-8.2l-7-13.9s-4.6-10.2-8.8-8.3c0,0-8.5,2.6,2,14.9l5.4,10c.1-.1,5.7,12.3,10.5,5.5"/>
        <rect class="cls-39" x="34" y="110.6" width="7.4" height="9.9"/>
        <path class="cls-39" d="m21,124.8c2.1-3.2,5.3-4.1,5.3-4.1l7.8-2.9h7.4l7.8,2.9s3.2.9,5.3,4.1H21Z"/>
        <path class="cls-39" d="m29.4,106.8c1.4,2.1,3.2,3.9,5.7,5.1.9.4,1.9.8,2.9,1,.7.2,2.3.7,3,.4,10-4.3,6.7-23.5,6.7-23.5-1.5-9.2-9.3-9.1-9.3-9.1-5.9-.3-11.3,2.5-12.2,8.8-.3,2.4.1,5,.2,7.3.1,1.8.3,3.5.9,5.2.4,1.7,1.2,3.3,2.1,4.8Z"/>
        <path class="cls-3" d="m39.6,112.5c-4.4-.3-8-3.7-10.9-6.9.2.4.5.8.7,1.2,1.4,2.1,3.2,3.9,5.7,5.1.9.4,1.9.8,2.9,1,.7.2,2.3.7,3,.4,1.6-.7,2.8-1.7,3.8-3-1.5.9-3.4,2.3-5.2,2.2Z"/>
        <path class="cls-5" d="m30.3,108c-.9-6.7-1.1-11.8,4-14.1,3.4-1.5,12.2-2.1,12.2-7.8,0-4.5-4.5-5.4-8.1-6.4-5.5-1.5-13.7,2.7-15.1,8.5,0,0-2.4,14.5,7,19.8Z"/>
        <g>
          <path class="cls-39" d="m89.3,127.5c-1.6-1.3-2.1-.3-3.2.9-.8.9-.6.8-1.5,1.7,0,0,.7-.8.6-1.7-.2-1-1.2-.7-1.2-.7l-1,2.7c-.2.6-.4,1.1-.6,1.7-.2.7-.2,1.6.1,2.3.4,1.2,1.7,1.6,2.8,1.1,1-.5,1.7-1.4,2.5-2,0-.2,2.9-3.3,1.5-6Z"/>
          <path class="cls-39" d="m65.5,146.4l16.8-12.9,3,1.7-17,17.8s-3.5,4.1-6,.7c-.1,0-2.2-3,3.2-7.3Z"/>
        </g>
        <path class="cls-39" d="m30.3,99.8s-.8-3.3-3.3-1.9c0,0-1.1.6-.3,2.8,0,0,1.2,3.2,3.6,2v-2.9Z"/>
        <path class="cls-9" d="m52.4,132.8s1.8,6-3.3,10.8l4.2,31.4h-30.7c.1-6.7,2-13.4,4.8-19.5,2.7-6,1.3-13.6-2.5-18.7-.3-.4-.6-.8-.9-1.1l-4.5-6.8c1-6.6,6.8-8.2,6.8-8.2l5.7-2.1s3.4,3.2,8.6,3.8c0,0,2.7-1.1,3.3-3.6l3.9,1.4c-.1,0,.7,3.9,4.6,12.6Z"/>
        <g>
          <path class="cls-39" d="m23.6,173.8l-2.5,2.4-14-20.8c-3.3-4.1-.9-7.5-.9-7.5l12.3-19.6c3.6-7.5,8.4-7.8,8.4-7.8,6.1,7-.9,15.1-.9,15.1l-12.9,15c-.1,0,5.5,9.1,10.5,23.2Z"/>
          <path class="cls-39" d="m20,177.5c-1,.6-2-.4-2.6.9-1.1,2.3,2.8,2.8,4,2.2,1.4-.7,3.1-2.7,3.3-4.2.1-1.2-1.1-3.5-2.6-3.1-2,.4-.6,3.2-2.1,4.2Z"/>
        </g>
        <path class="cls-5" d="m32.1,94.1s-2.2.3-2.5,7.7v48.5s-3.8,4.5-11.5,2.8c0,0,2.2-2,2.8-7.5l1.1-48s-1-12.8,7.6-16.5l2.5,13Z"/>
      </g>
      <g>
        <path class="cls-44" d="m311,99.1c-3.3.5-4.1,6.4-.3,6.7,0,3-1.8,8.5,2.6,8.1-1.3,7.6,9,1.1,10.5-.6,7.1-7.7,3.8-20.6-.7-21.9,1-6.2-6.4-10.9-11.8-9.9-3.5.6-5.7,6.6-5.1,10.2,0,.9,4.3,7.5,4.8,7.4Z"/>
        <path class="cls-19" d="m289.5,85.7c-.9,1.9-1.4,4.6-.5,6.5,1.9,4.3,10.2,5.4,12.5,1.1,1.7-3.2.7-7.8-1.7-10.3-3.3-3.5-8.4-1.3-10.3,2.7Z"/>
        <path class="cls-13" d="m306.7,122.8s-.3,16.1,10.9,12.6c0,0,7.4-8.5-1.4-14.6l-9.5,2Z"/>
        <g>
          <path class="cls-13" d="m267.3,186.4c-1.5-1.4-.5-2,.4-3.3.7-.9.7-.7,1.4-1.7,0,0-.7.8-1.7.8s-.8-1.1-.8-1.1l2.6-1.4c.5-.3,1.1-.6,1.6-.8.6-.3,1.6-.4,2.3-.2,1.2.3,1.8,1.5,1.4,2.6-.3,1-1.1,1.9-1.7,2.8.1.1-2.6,3.4-5.5,2.3Z"/>
          <path class="cls-13" d="m272.3,178.7l10.6-18.3s1.6-3.1,2.2-6.4l.2-20.7s-.6-10.4,5.1-12c0,0,8.1-.7,4,15l-2.1,19.4s-.7,4.2-2.5,6.5l-15.3,19.2-2.2-2.7Z"/>
        </g>
        <g>
          <path class="cls-34" d="m302.7,278c.2-3.2,11.8-5.6,10.1-5.2,0,0,1.3-1.1,2.9-.4,0,0,.6.5.4,1.7,0,0-.2,1.2-.2,2.2,0,0-.2.3-.9.3l-.8-1.1-3,1.8c-.1.1-4.5,2.5-8.5.7Z"/>
          <path class="cls-13" d="m315.6,273.2s-5.9,3.7-8.4,2.7c0,0-1.2-.3,0-.9,0,0,2.1-1,5.6-1.9l2.8.1Z"/>
        </g>
        <g>
          <path class="cls-34" d="m286.2,277.4c.2-3.2,11.8-5.6,10.1-5.2,0,0,1.3-1.1,2.9-.4,0,0,.6.5.4,1.7,0,0-.2,1.2-.2,2.2,0,0-.2.3-.9.3l-.8-1.1-3,1.8c-.1.1-4.5,2.4-8.5.7Z"/>
          <path class="cls-13" d="m299.1,272.5s-5.9,3.7-8.4,2.7c0,0-1.2-.3,0-.9,0,0,2.1-1,5.6-1.9l2.8.1Z"/>
        </g>
        <g>
          <polygon class="cls-13" points="316.9 173.6 301.4 173.6 304.5 228.5 312.8 273.1 315.6 273.2 314.5 227.4 316.9 173.6"/>
          <polygon class="cls-13" points="306.7 173 299.1 272.5 296.3 272.5 289.8 173 306.7 173"/>
        </g>
        <rect class="cls-13" x="300.1" y="110.3" width="7.4" height="9.9"/>
        <path class="cls-13" d="m287,124.5c2.1-3.2,5.3-4.1,5.3-4.1l7.8-2.9h7.4l7.8,2.9s3.2.9,5.3,4.1h-33.6Z"/>
        <path class="cls-7" d="m316.1,162c-.8-2.5-2.3-5.4-2.6-8-1-10.1,4.1-18.6,4.1-18.6h0c-1.9-.2-4.1-.6-5.2-2.2-2.9-4.2-3.3-8.7-.3-13.9l-2.6-1s-3.4,3.2-8.6,3.8c0,0-2.7-1.1-3.3-3.6l-2.6,1s-1.1,4.3-6,13.1c0,0-1.8,6,3.3,10.8l-4.2,31.4-2.7,38.2c17.3,4.3,32.8-.7,32.8-.7-1.5-14-.5-26-.5-26,3-11.5.7-17.5-1.6-24.3Z"/>
        <g>
          <path class="cls-13" d="m309.1,107.8c-.3.7-.8,1.4-1.4,2-2.7,2.6-6.4,4.4-10.2,4.4-9.9-4.3-6.7-23.5-6.7-23.5,1.5-9.2,9.3-9.1,9.3-9.1,5.9-.3,11.3,2.5,12.2,8.8.4,2.4-.1,5-.2,7.3-.1,1.8-.3,3.5-.9,5.2-.4,1.7-1.4,3.2-2.1,4.9Z"/>
          <path class="cls-22" d="m292.4,108.8c1.1,2.4,2.7,4.3,5.2,5.4,3.8,0,7.4-1.8,10.2-4.4.6-.6,1-1.3,1.4-2,.1-.3.3-.6.4-.9-4.8,5.4-11.8,10.6-17.2,1.9Z"/>
          <path class="cls-13" d="m310.1,100.8s.8-3.3,3.3-1.9c0,0,1.1.6.3,2.8,0,0-1.2,3.2-3.6,2v-2.9Z"/>
        </g>
        <g>
          <path class="cls-13" d="m322.5,190.2c-2-.6-1.4-1.6-1.1-3.1.2-1.2.3-1,.5-2.2,0,0-.2,1-1.1,1.4s-1.2-.6-1.2-.6l1.7-2.4c.4-.5.7-1,1.1-1.5s1.3-1,1.9-1.2c1.2-.3,2.3.5,2.5,1.7.2,1.1-.2,2.2-.3,3.2,0,.1-.9,4.3-4,4.7Z"/>
          <path class="cls-13" d="m323.6,181l1.3-21.1s.1-3.5-.9-6.7l-9-18.6s-5.8-7.9-1.2-12c0,0,7.6-5.7,10.6,10.7l6.8,18.3s1.2,4,.7,6.9l-5.1,24.1-3.2-1.6Z"/>
        </g>
        <path class="cls-19" d="m293.7,84.5s-1.2,11.2,10.4,11.7c0,0,6.2.4,5.4,6.4,0,0,.2-4.6,3.9-3.7,0,0,2.6-3.1,2-9.3,0,0,.3-6.9-9.5-9.5,0,0-11.3-1.9-12.2,4.4Z"/>
      </g>
    </g>
    <g>
      <path class="cls-28" d="m275.6,16.7l-62.4,4.9c-4.2,0-7.7,3.4-7.7,7.7l4.9,30.6c0,4.2,3.4,7.7,7.7,7.7l2.9.2h0s1.7,6.6-1.7,10c0,0,10.2-2.5,11.9-9.4l39.6,2.4c4.2,0,7.7-3.4,7.7-7.7l4.9-38.7c-.2-4.2-3.6-7.7-7.8-7.7Z"/>
      <path class="cls-2" d="m283.1,22.9c-.1,2.1-.3,4.2-.5,6.2-.5,4.3-1.1,8.6-1.9,12.8-.7,3.8-1.5,7.8-3.2,11.3-2.9,5.9-9.2,8-15.4,9-6.4,1-12.9.6-19.3,1-3.6.2-7.1.5-10.7.3-3.1-.1-6.5-.4-9.2-2-5.2-3.1-6.1-10.7-6.8-16.1-.8-6.2-2.4-14.2,1.9-19.5,2-2.4,4.5-3.5,7.4-4.6,1-.3,2.2-.7,3.4-1.1l-15.6,1.4c-4.2,0-7.7,3.4-7.7,7.7l4.9,30.6c0,4.2,3.4,7.7,7.7,7.7l2.9.2h0s1.7,6.6-1.7,10c0,0,10.2-2.5,11.9-9.4l39.6,2.4c4.2,0,7.7-3.4,7.7-7.7l4.9-38.7c-.2-.5-.2-1-.3-1.5Z"/>
      <g>
        <path class="cls-23" d="m268.1,37.1c0,.9-.7,1.6-1.6,1.6h-44.2c-.9,0-1.6-.7-1.6-1.6h0c0-.9.7-1.6,1.6-1.6h44.2c.9,0,1.6.7,1.6,1.6h0Z"/>
        <path class="cls-23" d="m268.1,43.7c0,.9-.7,1.6-1.6,1.6h-44.2c-.9,0-1.6-.7-1.6-1.6h0c0-.9.7-1.6,1.6-1.6h44.2c.9.1,1.6.8,1.6,1.6h0Z"/>
        <path class="cls-23" d="m268.1,50.4c0,.9-.7,1.6-1.6,1.6h-44.2c-.9,0-1.6-.7-1.6-1.6h0c0-.9.7-1.6,1.6-1.6h44.2c.9,0,1.6.7,1.6,1.6h0Z"/>
      </g>
    </g>
    <g>
      <path class="cls-18" d="m141.5,28.5c0-8.1-6.6-14.7-14.7-14.7-1.9,0-3.6.4-5.3,1-1.6-8.4-8.9-14.8-17.8-14.8-7.8,0-14.4,4.9-17,11.8-1.3-.9-2.8-1.4-4.5-1.4-4.3,0-7.8,3.5-7.8,7.8,0,.5,0,.9.1,1.4-1.5-.9-3.3-1.4-5.2-1.4-5.8,0-10.4,4.7-10.4,10.4,0,4.6,3,8.5,7.2,9.9-2.3,2.6-3.7,6-3.7,9.8,0,8.2,6.6,14.8,14.8,14.8,2.2,0,4.2-.5,6-1.3.6,7.6,6.9,13.6,14.7,13.6,6.7,0,12.4-4.5,14.1-10.6,2.6,2.3,6,3.8,9.8,3.8,8.1,0,14.7-6.6,14.7-14.7,0-4.5-2-8.5-5.1-11.2,5.8-2.2,10.1-7.7,10.1-14.2Z"/>
      <path class="cls-24" d="m141.5,28.5c0-6.9-4.8-12.7-11.2-14.3,3.2,3,5.5,7.4,5.6,11.7s-1.3,9.5-4.9,12.2c-1.6,1.2-4.7,2.7-6.7,2.5,2.8,3.6,3.8,8.2-.3,11.9-4.6,4.1-10.2,3.7-13.8-.7.1,3.7-1.1,8.5-4.4,10.6-2.7,1.7-6.5,2.7-9.7,2.3-6.4-.8-10.2-5.5-10.7-11.7,0,.3-2,1.7-2.3,1.9-.8.6-1.7,1-2.6,1.4-6.1,2.2-14-2.9-13.3-9.6.2-2.2,1-5.1,2.1-7,.5-.9,1.9-3.1,3.2-3-8.1-.5-10-14.2-.9-18.2-.7-.2-1.4-.2-2.2-.2-5.8,0-10.4,4.7-10.4,10.4,0,4.6,3,8.5,7.2,9.9-2.3,2.6-3.7,6-3.7,9.8,0,8.2,6.6,14.8,14.8,14.8,2.2,0,4.2-.5,6-1.3.6,7.6,6.9,13.6,14.7,13.6,6.7,0,12.4-4.5,14.1-10.6,2.6,2.3,6,3.8,9.8,3.8,8.1,0,14.7-6.6,14.7-14.7,0-4.5-2-8.5-5.1-11.2,5.7-2.3,10-7.8,10-14.3Z"/>
      <path class="cls-18" d="m76.4,71.7c-1.4,1.7-4.3,1.6-6.5-.3-2.2-1.8-2.9-4.7-1.5-6.4,1.4-1.7,4.3-1.6,6.5.3,2.3,1.8,2.9,4.7,1.5,6.4Z"/>
      <path class="cls-18" d="m68.8,75.4c-1.1,1.3-3.3,1.2-5-.2-1.7-1.4-2.2-3.6-1.1-4.8,1.1-1.3,3.3-1.2,5,.2,1.7,1.3,2.2,3.5,1.1,4.8Z"/>
      <path class="cls-18" d="m62,77.1c-.8.9-2.3.8-3.5-.1-1.2-1-1.5-2.5-.8-3.4.8-.9,2.3-.8,3.5.2,1.2.8,1.6,2.4.8,3.3Z"/>
      <path class="cls-47" d="m98.2,22.7c0-5.2,4.2-9.4,9.4-9.4,2.1,0,4,.7,5.5,1.8-1.7-2.4-4.5-3.9-7.6-3.9-5.2,0-9.4,4.2-9.4,9.4,0,3.1,1.5,5.9,3.9,7.6-1.1-1.5-1.8-3.4-1.8-5.5Z"/>
      <path class="cls-47" d="m82.3,45.1c3.9-.7,7.6,1.8,8.4,5.7.3,1.5.1,3.1-.6,4.4,1.5-1.6,2.3-3.9,1.8-6.2-.7-3.9-4.5-6.4-8.4-5.7-2.3.4-4.2,2-5.1,4,1-1.1,2.3-1.9,3.9-2.2Z"/>
      <g>
        <path class="cls-23" d="m91.6,39c0,2.2-1.8,4-4,4s-4-1.8-4-4,1.8-4,4-4,4,1.8,4,4Z"/>
        <path class="cls-23" d="m104.2,38.4c0,2.2-1.8,4-4,4s-4-1.8-4-4,1.8-4,4-4,4,1.8,4,4Z"/>
        <path class="cls-23" d="m116.9,37.9c0,2.2-1.8,4-4,4s-4-1.8-4-4,1.8-4,4-4,4,1.8,4,4Z"/>
      </g>
    </g>
  </g>
  <g>
    <g>
      <path class="cls-36" d="m485.8,279.1c0,4-17.5,7.2-39,7.2s-39-3.2-39-7.2,17.5-7.2,39-7.2,39,3.2,39,7.2Z"/>
      <path class="cls-36" d="m605,279.1c0,4-18.4,7.2-41.2,7.2s-41.2-3.2-41.2-7.2,18.4-7.2,41.2-7.2,41.2,3.2,41.2,7.2Z"/>
      <path class="cls-36" d="m729.6,279.1c0,4-16.3,7.2-36.4,7.2s-36.4-3.2-36.4-7.2,16.3-7.2,36.4-7.2,36.4,3.2,36.4,7.2Z"/>
      <g>
        <path class="cls-46" d="m678.4,97.6s2.4,19.1-1.1,25.8c0,0,9.4-5.1,10-9.7,0,0,3.3-19.8-1.4-27.6-.1,0-8.4-3.8-7.5,11.5Z"/>
        <path class="cls-46" d="m680,86.4c-.9,1.9-1.4,4.6-.5,6.5,1.9,4.3,10.2,5.4,12.5,1.1,1.7-3.2.7-7.8-1.7-10.3-3.4-3.5-8.4-1.3-10.3,2.7Z"/>
        <path class="cls-13" d="m697.1,123.5s-.3,16.1,10.9,12.6c0,0,7.3-8.5-1.4-14.6l-9.5,2Z"/>
        <g>
          <path class="cls-33" d="m693.2,278.7c.2-3.2,11.8-5.6,10.1-5.2,0,0,1.3-1.1,2.9-.4,0,0,.6.5.4,1.7,0,0-.2,1.2-.2,2.2,0,0-.2.3-.9.3l-.8-1.1-3,1.8c-.1.1-4.6,2.5-8.5.7Z"/>
          <path class="cls-13" d="m706,273.9s-5.9,3.7-8.4,2.7c0,0-1.2-.3,0-.9,0,0,2.1-1,5.6-1.9l2.8.1Z"/>
        </g>
        <g>
          <path class="cls-33" d="m676.7,278.1c.2-3.2,11.8-5.6,10.1-5.2,0,0,1.3-1.1,2.9-.4,0,0,.6.5.4,1.7,0,0-.2,1.2-.2,2.2,0,0-.2.3-.9.3l-.8-1.1-3,1.8c-.1.1-4.6,2.5-8.5.7Z"/>
          <path class="cls-13" d="m689.5,273.3s-5.9,3.7-8.4,2.7c0,0-1.2-.3,0-.9,0,0,2.1-1,5.6-1.9l2.8.1Z"/>
        </g>
        <g>
          <polygon class="cls-13" points="707.3 174.3 691.8 174.3 695 227.7 703.2 273.8 706 273.9 705 228.2 707.3 174.3"/>
          <polygon class="cls-13" points="697.1 173.7 689.5 273.3 686.7 273.2 680.2 173.7 697.1 173.7"/>
        </g>
        <rect class="cls-13" x="690.5" y="111" width="7.4" height="9.9"/>
        <path class="cls-13" d="m677.5,125.2c2.1-3.2,5.3-4.1,5.3-4.1l7.8-2.9h7.4l7.8,2.9s3.2.9,5.3,4.1h-33.6Z"/>
        <path class="cls-16" d="m706.5,162.7c-.8-2.5-2.3-5.4-2.6-8-1-10.1,4.1-18.6,4.1-18.6h0c-1.9-.2-4.1-.6-5.2-2.2-2.9-4.2-3.3-8.3-1.4-14.3l-1.5-.6s-3.4,3.2-8.6,3.8c0,0-2.7-1.1-3.3-3.6l-2.6,1s-1.1,4.3-6,13.1c0,0-1.8,6,3.3,10.8l-4.2,31.4-2.7,38.2c17.3,4.3,32.8-.7,32.8-.7-1.5-14-.5-26-.5-26,3-11.4.7-17.5-1.6-24.3Z"/>
        <path class="cls-43" d="m688.4,137.5l-1.9-17.8-1.1.4-4.1,1.4c-5.7,2.1-1.8,11.7-1.8,11.7,0,0-1.1,3.8.9,7.7l.3,11.9s-.2,6-4.8,22.1c0,0-9.7,27.3-5.2,34.3,0,0,10.6,4.2,15.2,1.2l2.5-72.4"/>
        <path class="cls-43" d="m696,210.4c-11.3-40.1-.9-72.8-.9-72.8l4.9-18.5,6.7,2.5s6.6,3.1,1.4,14.6h0s-2.3,8.7-1.3,18.8c.2,2.6,1.8,5.6,2.6,8,0,0,10.4,17.1,13.1,43.7-.1,0-9.5,8.7-26.5,3.7Z"/>
        <path class="cls-27" d="m691.8,154.8l11.2-24-3.1-.6,5.6-9.1-5.6-2-4.9,18.5s-2.7,8.5-3.2,17.2Z"/>
        <path class="cls-13" d="m699.5,108.5c-.3.7-.8,1.4-1.4,2-2.7,2.6-6.4,4.4-10.2,4.4-9.9-4.3-6.7-23.5-6.7-23.5,1.5-9.2,9.3-9.1,9.3-9.1,5.9-.3,11.3,2.5,12.2,8.8.4,2.4-.1,5-.2,7.3-.1,1.8-.3,3.5-.9,5.2-.4,1.7-1.3,3.3-2.1,4.9Z"/>
        <path class="cls-22" d="m682.8,109.6c1.1,2.4,2.7,4.3,5.2,5.4,3.8,0,7.4-1.8,10.2-4.4.6-.6,1-1.3,1.4-2,.1-.3.3-.6.4-.9-4.8,5.3-11.7,10.6-17.2,1.9Z"/>
        <path class="cls-13" d="m700.6,101.5s.8-3.3,3.3-1.9c0,0,1.1.6.3,2.8,0,0-1.2,3.2-3.6,2v-2.9Z"/>
        <g>
          <path class="cls-13" d="m713,190.9c-2-.6-1.4-1.6-1.1-3.1.2-1.2.3-1,.5-2.2,0,0-.2,1-1.1,1.4-.9.4-1.2-.6-1.2-.6l1.7-2.4c.4-.5.7-1,1.1-1.5.4-.5,1.3-1,1.9-1.2,1.2-.3,2.3.5,2.5,1.7.2,1.1-.2,2.2-.3,3.2,0,.2-1,4.4-4,4.7Z"/>
          <path class="cls-13" d="m714,181.7l1.3-21.1s.1-3.5-.9-6.7l-9-18.6s-4.7-8-.1-12.2c0,0,6.5-5.5,9.5,10.8l6.8,18.3s1.2,4,.7,6.9l-5.1,24.1-3.2-1.5Z"/>
        </g>
        <path class="cls-46" d="m682.3,83.5s.7,12.9,12.3,13.4c0,0,6.2.4,5.4,6.4,0,0,.2-4.6,3.9-3.7,0,0,2.6-3.1,2-9.3,0,0,.3-6.9-9.5-9.5,0,0-9.1-3.4-14.1,2.7Z"/>
        <path class="cls-46" d="m697.1,97.6s2.4,19.1-1.1,25.8c0,0,9.4-5.1,10-9.7,0,0,3.3-19.8-1.4-27.6-.1,0-6.8,2.4-7.5,11.5Z"/>
        <path class="cls-43" d="m706.7,121.5s-5.9,3.2-3.1,10.4l9.5,20.9s.9,2.9,1.4,7.9l-1.4,20.7s2.1,1.3,5.5.8l4.5-21.3s1-4.1-.7-8.8l-8.7-23.8c0-.1-1.6-6-7-6.8Z"/>
        <g>
          <path class="cls-13" d="m657.7,187.2c-1.5-1.4-.5-2,.4-3.3.7-.9.7-.7,1.4-1.7,0,0-.7.8-1.7.8s-.8-1.1-.8-1.1l2.6-1.4c.5-.3,1.1-.6,1.6-.8.6-.3,1.6-.4,2.3-.2,1.2.3,1.8,1.5,1.4,2.6-.3,1-1.1,1.9-1.7,2.8.2,0-2.6,3.3-5.5,2.3Z"/>
          <path class="cls-13" d="m662.8,179.4l10.6-18.3s1.7-3.1,2.2-6.4l.2-20.7s-.6-10.4,5.1-12c0,0,8.1-.7,4,15l-2.1,19.4s-.7,4.2-2.5,6.5l-15.3,19.2-2.2-2.7Z"/>
          <path class="cls-43" d="m662.8,178.2s1.4,2.7,3.8,3.2l13.6-17.2s3.5-3.9,3.3-8.6l3.1-27.5s.5-5.5-5.2-6.3c0,0-4.9-.1-5.9,6.7l-.8,27.1-11.9,22.6Z"/>
        </g>
        <polygon class="cls-27" points="681.4 130.5 684.9 129.9 681.8 121.5 686.6 119.7 688.4 137.5 687.8 155.2 681.4 130.5"/>
      </g>
      <g>
        <g>
          <path class="cls-37" d="m460.9,278.7c-.2-3.2-11.8-5.6-10.1-5.2,0,0-1.3-1.1-2.8-.4,0,0-.6.5-.4,1.7,0,0,.2,1.2.2,2.2,0,0,.2.3.9.3l.8-1.1,3,1.8c0,.1,4.5,2.5,8.4.7Z"/>
          <path class="cls-39" d="m448.1,273.8s5.9,3.8,8.4,2.8c0,0,1.2-.3,0-.9,0,0-2.1-1-5.6-1.9h-2.8Z"/>
        </g>
        <g>
          <path class="cls-37" d="m448.1,278.7c-.2-3.2-11.8-5.6-10.1-5.2,0,0-1.3-1.1-2.8-.4,0,0-.6.5-.4,1.7,0,0,.2,1.2.2,2.2,0,0,.2.3.9.3l.8-1.1,3,1.8c0,.1,4.4,2.5,8.4.7Z"/>
          <path class="cls-39" d="m435.2,273.8s5.9,3.8,8.4,2.8c0,0,1.2-.3,0-.9,0,0-2.1-1-5.6-1.9h-2.8Z"/>
        </g>
        <path class="cls-8" d="m428.3,86.6c-1.7.2-3.6,1.3-4.9,2.7-1.7,1.9-2.6,4.1-2.8,6.6-.4,4.2,2.4,7.9,2,12.4-.3,4.4-3.5,8.2-3,12.9.5,4,3.4,7.1,3.8,11.4.3,4.1-2.4,7.9-1.7,11.8,4.5-.1,6.8-6.6,7.5-10.2,1-5-1.9-7.7-2.3-12.5-.3-4.4,3.3-7.2,2.5-11.9-.8-4.6-3.6-7.4-.5-11.7,1.5-2.2,2.9-5.8,2.6-8.5-.1-2.4-1.5-3.1-3.2-3Z"/>
        <polygon class="cls-39" points="436.5 170.1 442.9 227.7 448.1 273.8 450.8 273.8 452 227.6 453.9 170.1 436.5 170.1"/>
        <polygon class="cls-39" points="426.1 172.7 433 228.9 435.2 273.8 438 273.8 441.9 228.5 442.6 187.1 450.6 172.7 426.1 172.7"/>
        <path class="cls-20" d="m452.7,219.5l1.1-45.6h-27.8c-.1,2.4-.2,8.5,2.1,17.2l2.2,28.4s11.9,3.5,22.4,0Z"/>
        <path class="cls-39" d="m470.3,154.1s.8-3.2-2.1-8.2l-7-13.9s-4.6-10.2-8.8-8.3c0,0-8.5,2.6,2,14.9l5.4,10s5.7,12.3,10.5,5.5"/>
        <rect class="cls-39" x="436.7" y="111.6" width="7.4" height="9.9"/>
        <path class="cls-39" d="m423.6,125.8c2.1-3.2,5.3-4.1,5.3-4.1l7.8-2.9h7.4l7.8,2.9s3.2.9,5.3,4.1h-33.6Z"/>
        <path class="cls-39" d="m432.1,107.8c1.4,2.1,3.2,3.9,5.7,5.1.9.4,1.9.8,2.9,1,.7.2,2.3.7,3,.4,10-4.3,6.7-23.5,6.7-23.5-1.5-9.2-9.3-9.1-9.3-9.1-5.9-.3-11.3,2.5-12.2,8.8-.3,2.4.1,5,.2,7.4.1,1.8.3,3.5.9,5.2.4,1.6,1.1,3.3,2.1,4.7Z"/>
        <path class="cls-3" d="m442.3,113.6c-4.4-.3-8-3.7-10.9-6.9.2.4.5.8.7,1.2,1.4,2.1,3.2,3.9,5.7,5.1.9.4,1.9.8,2.9,1,.7.2,2.3.7,3,.4,1.6-.7,2.8-1.7,3.8-3-1.5.8-3.5,2.3-5.2,2.2Z"/>
        <path class="cls-8" d="m432.9,109c-.9-6.7-1.1-11.8,4-14.1,3.4-1.5,5.1-2.4,4.9-6.8-.2-4.7.3-6.9-3.4-7.8-5.5-1.5-11.2,3.2-12.5,9,.1,0-3.8,13.4,7,19.7Z"/>
        <g>
          <path class="cls-39" d="m491.9,128.5c-1.6-1.3-2.1-.3-3.2.9-.8.9-.6.8-1.5,1.7,0,0,.7-.8.6-1.7-.2-1-1.2-.7-1.2-.7l-1,2.7c-.2.6-.4,1.1-.6,1.7-.2.7-.2,1.6.1,2.3.4,1.2,1.7,1.6,2.8,1.1,1-.5,1.7-1.4,2.5-2,0-.1,3-3.3,1.5-6Z"/>
          <path class="cls-39" d="m468.2,147.5l16.8-12.9,3,1.7-17,17.8s-3.5,4.1-6,.7c-.1,0-2.3-3.1,3.2-7.3Z"/>
        </g>
        <path class="cls-39" d="m432.9,100.9s-.8-3.3-3.3-1.9c0,0-1.1.6-.3,2.8,0,0,1.2,3.2,3.6,2v-2.9Z"/>
        <path class="cls-9" d="m456,176l-4.2-31.4c5-4.8,3.3-10.8,3.3-10.8-3.9-8.7-4.7-12.6-4.7-12.6l-3.9-1.4c-.6,2.5-3.3,3.6-3.3,3.6-5.1-.5-8.6-3.8-8.6-3.8l-5.7,2.1s-5.8,1.5-6.8,8.2l4.5,6.8c.3.3.8.6.9,1.1,3.4,10.7,4.5,12.7,3.4,16.2-1.9,6.4-5.6,15.2-5.7,21.9.1.1,12.3,3.9,30.8.1Z"/>
        <path class="cls-39" d="m409.8,154.1s-.8-3.2,2.1-8.2l7-13.9s4.6-10.2,8.8-8.3c0,0,8.5,2.6-2,14.9l-5.4,10s-5.6,12.3-10.5,5.5"/>
        <g>
          <path class="cls-39" d="m388.2,128.5c1.6-1.3,2.1-.3,3.2.9.8.9.6.8,1.5,1.7,0,0-.7-.8-.6-1.7.2-1,1.2-.7,1.2-.7l1,2.7c.2.6.4,1.1.6,1.7.2.7.2,1.6-.1,2.3-.4,1.2-1.7,1.6-2.8,1.1-1-.5-1.7-1.4-2.5-2,0-.1-2.9-3.3-1.5-6Z"/>
          <path class="cls-39" d="m412,147.5l-16.8-12.9-3,1.7,17,17.8s3.5,4.1,6,.7c0,0,2.2-3.1-3.2-7.3Z"/>
        </g>
        <path class="cls-8" d="m446,90.7c1.4.4,2.5,1.1,3.6,2.4.9,1.1,1,1.7,1.1,5,0,1.4,4.4-2.3,3.7-9.6-.3-2.7-1.9-5.1-4.2-6.6-1.6-1-6.8-4.5-14.8-1.6-2.8,1,4.3,8.4,10.6,10.4Z"/>
      </g>
      <g>
        <g>
          <g>
            <polygon class="cls-39" points="522.9 187.1 527.3 184.3 525.2 180.6 522.5 182.3 522.9 187.1"/>
            <path class="cls-6" d="m519.8,184l-2.2,1.4c-1.1-1.6,1.8-2.9,1.8-2.9,0,0,3.8-1.4,5.4,2.2.5,1.1-1.9,3.6-1.9,3.6-1.1.8-3,1.6-3,1.6-.9.2-1.1-.8-1.1-.8-1.1.2-.8-.9-.8-.9-1.1-.1-.6-1-.6-1-1.2-.2-.6-1.4-.6-1.4l3-1.8Z"/>
          </g>
          <path class="cls-15" d="m552.3,274.1l-11.2,2.9s-1.4.4-1.4,2.4h19.3l-.3-5.3h-6.4Z"/>
          <path class="cls-12" d="m527.4,186.1l19.3-15.1s2.7-3,4.2-10.1l5.3-17.8s-4.4-14.5-12-14.3c0,0-.9,5.6-.8,19.1l-2,13.4s0,1.3-5.7,7.2l-12.4,11.4s1.1,4.9,4.1,6.2Z"/>
          <polygon class="cls-4" points="547.9 168.7 552.2 274.1 558.8 274.1 569.9 168.7 547.9 168.7"/>
          <polygon class="cls-25" points="558.6 168.5 560.6 194.3 565.2 229.3 570.3 274.1 577 274.1 575.6 225 578 168.5 558.6 168.5"/>
          <rect class="cls-39" x="559.5" y="110.4" width="7.8" height="10.4"/>
          <path class="cls-39" d="m581,125.3c-2.2-3.4-5.6-4.3-5.6-4.3l-8.2-3h-7.8l-8.2,3s-3.4.9-5.6,4.3h35.4Z"/>
          <path class="cls-42" d="m567.2,118.1l8.2,3s6.1,1.6,7.2,8.6l-3.6,7.2-1,37.5h-29.8l-.8-36-3.2-8.7c1-7,7.2-8.6,7.2-8.6l8.2-3,2.6,3.1,5-3.1Z"/>
          <polygon class="cls-45" points="548.1 171.3 548.1 174.3 578 174.3 578 171.3 548.1 171.3"/>
          <g>
            <path class="cls-39" d="m553.7,110.5c1.6,4.1,3.7,5,3.7,5l2.6.2c1.4-.4,3.9-1.3,3.9-1.3,5.5-2.7,7.5-2.9,8.3-6,0-.1,2-16.1,2-16.1-.3-8.2-9-8.7-10.3-8.8-1.3-.1-9.6-1.3-11,6.8-.2-.1-2.5,9.3.8,20.2Z"/>
            <path class="cls-39" d="m553.7,108.5c1.1,2.1,3.1,4.6,5.8,4.5,2,0,4.3-.9,6.1-1.6,2-.8,4.5-1.6,6.2-2.9.1-.1.2-.1.2-.2h0c0-.1,2-16.1,2-16.1-.3-8.2-9-8.7-10.3-8.8-1.3-.1-9.6-1.3-11,6.8,0,0-2,8.2.3,18.1.3-.1.6-.1.7.2Z"/>
            <path class="cls-3" d="m570,110.7c-3.2,1.5-5.1,2.5-7.5,3.4-3.8,1.3-5.8,1.5-8.8-3.6v.1c1.6,4.1,3.7,5,3.7,5l2.6.2c1.4-.4,3.9-1.3,3.9-1.3,4.3-2.1,6.4-2.7,7.6-4.3-.6.1-1,.3-1.5.5Z"/>
            <path class="cls-10" d="m551.5,86.1c-.7,4,.5,14.4.5,14.4,0,0,.3-10.5,3.2-12.8,0,0,2.8-1.3,4.8.3,0,0,9.5-3.7,10.7,5.9l1.2,8.4.1,5.9c6-7.3,5.5-17.6,5.5-17.6,0,0,1.1-6.6-3.7-7.5,0,0,.4-5.5-8.9-6.4,0,0,1.3,1.8,1.8,3,0,0-1.7-4-10.6-3,0,0,2.2.7,3.2,2.3,0,0-1.9.9-7.6-2.4.2.1-6,5.9-.2,9.5Z"/>
            <path class="cls-39" d="m571.4,101.4s1-3.3,3.5-1.8c0,0,1.1.7.1,2.9,0,0-1.4,3.2-3.8,1.9l.2-3Z"/>
            <path class="cls-41" d="m570.7,94.1s.7,5.6.1,8.7l1.1.1s.1-3.9,2-4.2l-3.2-4.6Z"/>
          </g>
          <g>
            <g>
              <path class="cls-6" d="m586.1,187.6s-.6-24.7-8.1-45.7l7.8-1.2s6.5,19,4.5,46.2l-4.2.7Z"/>
              <g>
                <polygon class="cls-39" points="589.8 191.1 590.3 185.9 586.2 185.2 585.8 188.4 589.8 191.1"/>
                <path class="cls-6" d="m585.4,191.6l-.3,2.5c-1.9-.2-1.2-3.2-1.2-3.2,0,0,1.3-3.8,5-2.8,1.2.3,1.6,3.8,1.6,3.8-.1,1.3-.7,3.4-.7,3.4-.4.9-1.3.3-1.3.3-.5.9-1.2.1-1.2.1-.7.8-1.2-.1-1.2-.1-1,.8-1.4-.4-1.4-.4l.7-3.6Z"/>
              </g>
            </g>
            <path class="cls-21" d="m584.9,187.2c-4.1-41-14.5-54.3-14.5-54.3-2.5-7.4,3-10.1,3-10.1,6.8-2.3,8.7,4.1,8.7,4.1.9,1.7,13.5,39.5,9.3,60.4-.1-.1-2.4.8-6.5-.1Z"/>
          </g>
          <path class="cls-21" d="m555.1,187.4l1.6-68.3-5.4,2s-6.1,1.6-7.2,8.6l3.2,8.7-1.6,45.1,9.4,3.9Z"/>
          <path class="cls-21" d="m567.2,187.9l13.1-4.4-1.4-46.7,3.6-7.2c-1-7-7.2-8.6-7.2-8.6l-8.2-3,.1,69.9h0Z"/>
          <polygon class="cls-33" points="559.5 121.1 565 121.1 565 123.8 563.1 125.7 560.5 125.7 559.5 123.4 559.5 121.1"/>
          <polygon class="cls-11" points="562.1 121.2 567.2 116.4 571.5 119.1 565.9 124.6 562.1 121.2"/>
          <polygon class="cls-11" points="562.1 121.2 559.4 116.9 555.1 119.2 558.3 124.3 562.1 121.2"/>
          <rect class="cls-1" x="556.2" y="170.8" width="5.5" height="4.1"/>
          <path class="cls-17" d="m570.4,274.1l-11.2,2.9s-1.4.4-1.4,2.4h19.3l-.3-5.3h-6.4Z"/>
        </g>
        <polygon class="cls-33" points="560.5 125.7 556.7 165.9 560.5 170.1 565 165.9 563.1 125.7 560.5 125.7"/>
      </g>
    </g>
    <g>
      <path class="cls-35" d="m541.3,33.6c-5.6-6.6-15.6-5.8-23.4-5.1-12.2,1.1-24.4,1.4-36.5,3.3-16.6,2.7-20.7,12.8-20.7,28.5,0,9.1,2.5,19.1,11,23.7,1,.6,2.1,1.1,3.2,1.5-.1,2.6-1.1,6.5-5.6,9.3,0,0,11.8,1.3,14.6-6.8,11.4,2,24.2.7,34.8.3,13.8-.6,27.5-5.1,30.2-20.4,2.2-12-1.4-27-7.6-34.3Z"/>
      <path class="cls-26" d="m541.7,34.1c1.4,2.7,2.4,5.7,2.8,8.7.6,4.1.5,8.5.2,12.6-.5,6.8-2.4,13.7-8.2,17.9-5.4,3.9-12.1,5.3-18.5,6.6-5.6,1.1-11.4,1.7-17.1,1.7s-11.6-.7-16.7-3.2c-4.9-2.4-8.6-6.6-10-11.9s-1.9-11.1-1.5-16.6c.4-5.3,1.6-11,4.7-15.4.6-.8,1.2-1.6,1.9-2.2-15,3.1-18.7,13.1-18.7,28,0,9.1,2.5,19.1,11,23.7,1,.6,2.1,1.1,3.2,1.5-.1,2.6-1.1,6.5-5.7,9.3,0,0,11.8,1.3,14.7-6.8,11.4,2,24.2.7,34.8.3,13.8-.6,27.5-5.1,30.2-20.4,2.2-11.7-1.2-26.4-7.1-33.8Z"/>
      <g>
        <path class="cls-23" d="m509.2,50.5c0,1.1-.9,1.9-1.9,1.9h-25.9c-1.1,0-1.9-.9-1.9-1.9h0c0-1.1.9-1.9,1.9-1.9h25.9c1.1,0,1.9.8,1.9,1.9h0Z"/>
        <path class="cls-23" d="m530.8,50.5c0,1.1-.9,1.9-1.9,1.9h-14c-1.1,0-1.9-.9-1.9-1.9h0c0-1.1.9-1.9,1.9-1.9h14c1,0,1.9.8,1.9,1.9h0Z"/>
        <path class="cls-23" d="m499.9,59.5c0,1.1-.9,1.9-1.9,1.9h-16.6c-1.1,0-1.9-.9-1.9-1.9h0c0-1.1.9-1.9,1.9-1.9h16.6c1,0,1.9.9,1.9,1.9h0Z"/>
        <path class="cls-23" d="m530.8,59.5c0,1.1-.9,1.9-1.9,1.9h-23.9c-1.1,0-1.9-.9-1.9-1.9h0c0-1.1.9-1.9,1.9-1.9h23.9c1,0,1.9.9,1.9,1.9h0Z"/>
        <path class="cls-23" d="m509.2,68.1c0,1.1-.9,1.9-1.9,1.9h-12c-1.1,0-1.9-.9-1.9-1.9h0c0-1.1.9-1.9,1.9-1.9h12c1.1,0,1.9.8,1.9,1.9h0Z"/>
        <path class="cls-23" d="m491.9,68.1c0,1.1-.9,1.9-1.9,1.9h-8.6c-1.1,0-1.9-.9-1.9-1.9h0c0-1.1.9-1.9,1.9-1.9h8.6c1.1,0,1.9.8,1.9,1.9h0Z"/>
        <path class="cls-23" d="m530.8,68.1c0,1.1-.9,1.9-1.9,1.9h-14c-1.1,0-1.9-.9-1.9-1.9h0c0-1.1.9-1.9,1.9-1.9h14c1,0,1.9.8,1.9,1.9h0Z"/>
      </g>
    </g>
    <g>
      <path class="cls-32" d="m591,56.7c.8-5.1,2.8-9.9,6.2-14.1,10.6-13.3,33.3-17.1,46.9-6.4,14.6,11.4,24.9,38.1,7.7,50.4-1.9,1.4-4.1,2.6-6.5,3.6.6,2.9,2,7.8,4.8,9.6,0,0-10.3.8-14.2-6.8-15.3,2.8-33.5-1-40.6-13.6-4-7-5.5-15.1-4.3-22.7Z"/>
      <path class="cls-31" d="m623.5,83.2c6.8-.9,13.3-3.7,17.3-9.4,4.1-5.8,5.7-13.3,5.2-20.3-.4-6.7-2.3-13.5-7.4-18.3-1.9-1.8-4-3.2-6.2-4.4,4.3.9,8.3,2.7,11.8,5.4,14.5,11.4,24.8,38.1,7.6,50.4-1.9,1.4-4.1,2.6-6.5,3.6.6,2.9,2,7.8,4.8,9.6,0,0-10.3.8-14.2-6.8-15.3,2.8-33.5-1-40.6-13.6-.7-1.3-1.3-2.5-1.9-3.9,8.2,6.7,19.7,9,30.1,7.7Z"/>
      <g>
        <path class="cls-23" d="m632.9,63.9c0,2.2,1.8,4,4,4s4-1.8,4-4-1.8-4-4-4-4,1.8-4,4Z"/>
        <circle class="cls-23" cx="624.2" cy="63.3" r="4"/>
        <path class="cls-23" d="m607.6,62.8c0,2.2,1.8,4,4,4s4-1.8,4-4-1.8-4-4-4-4,1.8-4,4Z"/>
      </g>
    </g>
  </g>
</svg>