<?xml version="1.0" encoding="UTF-8"?>
<svg id="Ebene_1" data-name="Ebene 1" xmlns="http://www.w3.org/2000/svg" xmlns:xlink="http://www.w3.org/1999/xlink" viewBox="0 0 2775.49 2622.89">
  <defs>
    <style>
      .cls-1 {
        fill: url(#Unbenannter_Verlauf_6);
      }

      .cls-1, .cls-2, .cls-3, .cls-4, .cls-5, .cls-6, .cls-7, .cls-8, .cls-9, .cls-10, .cls-11, .cls-12, .cls-13, .cls-14, .cls-15, .cls-16, .cls-17, .cls-18, .cls-19, .cls-20, .cls-21, .cls-22, .cls-23, .cls-24, .cls-25, .cls-26, .cls-27, .cls-28, .cls-29, .cls-30, .cls-31, .cls-32, .cls-33, .cls-34, .cls-35, .cls-36, .cls-37, .cls-38, .cls-39 {
        stroke-width: 0px;
      }

      .cls-2 {
        fill: url(#Unbenannter_Verlauf_29);
      }

      .cls-3 {
        fill: url(#Unbenannter_Verlauf_9);
        opacity: .7;
      }

      .cls-3, .cls-20, .cls-22 {
        isolation: isolate;
      }

      .cls-4 {
        fill: url(#Unbenannter_Verlauf_28);
      }

      .cls-5 {
        fill: url(#Unbenannter_Verlauf_19);
      }

      .cls-6 {
        fill: url(#Unbenannter_Verlauf_21);
      }

      .cls-40, .cls-22 {
        opacity: .5;
      }

      .cls-7 {
        fill: url(#Unbenannter_Verlauf_33);
      }

      .cls-8 {
        fill: url(#Unbenannter_Verlauf_25);
      }

      .cls-9 {
        fill: #d8dee8;
      }

      .cls-10 {
        fill: url(#Unbenannter_Verlauf_5);
      }

      .cls-11 {
        fill: url(#Unbenannter_Verlauf_22);
      }

      .cls-12 {
        fill: #26264f;
      }

      .cls-13 {
        fill: url(#Unbenannter_Verlauf_2);
      }

      .cls-41 {
        clip-path: url(#clippath-2);
      }

      .cls-14 {
        fill: url(#Unbenannter_Verlauf_8);
      }

      .cls-15 {
        fill: url(#Unbenannter_Verlauf_32);
      }

      .cls-16 {
        fill: none;
      }

      .cls-17 {
        fill: url(#Unbenannter_Verlauf_31);
      }

      .cls-18 {
        fill: url(#Unbenannter_Verlauf_30);
      }

      .cls-42 {
        clip-path: url(#clippath-1);
      }

      .cls-19 {
        fill: url(#Unbenannter_Verlauf_26);
      }

      .cls-20 {
        opacity: .48;
      }

      .cls-20, .cls-23 {
        fill: #fff;
      }

      .cls-43 {
        opacity: .3;
      }

      .cls-21 {
        fill: url(#Unbenannter_Verlauf_18);
      }

      .cls-22 {
        fill: #f4f7fa;
      }

      .cls-24 {
        fill: url(#Unbenannter_Verlauf_11);
      }

      .cls-25 {
        fill: url(#Unbenannter_Verlauf_24);
      }

      .cls-26 {
        fill: url(#Unbenannter_Verlauf_23);
      }

      .cls-27 {
        fill: url(#Unbenannter_Verlauf);
      }

      .cls-28 {
        fill: url(#Unbenannter_Verlauf_13);
      }

      .cls-29 {
        fill: url(#Unbenannter_Verlauf_3);
      }

      .cls-30 {
        fill: url(#Unbenannter_Verlauf_20);
      }

      .cls-31 {
        fill: url(#Unbenannter_Verlauf_12);
      }

      .cls-44 {
        clip-path: url(#clippath);
      }

      .cls-32 {
        fill: url(#Unbenannter_Verlauf_14);
      }

      .cls-33 {
        fill: url(#Unbenannter_Verlauf_4);
      }

      .cls-34 {
        fill: url(#Unbenannter_Verlauf_15);
      }

      .cls-35 {
        fill: url(#Unbenannter_Verlauf_27);
      }

      .cls-36 {
        fill: url(#Unbenannter_Verlauf_10);
      }

      .cls-37 {
        fill: url(#Unbenannter_Verlauf_17);
      }

      .cls-38 {
        fill: url(#Unbenannter_Verlauf_7);
      }

      .cls-39 {
        fill: url(#Unbenannter_Verlauf_16);
      }
    </style>
    <linearGradient id="Unbenannter_Verlauf" data-name="Unbenannter Verlauf" x1="725.37" y1="1419.28" x2="2068.82" y2="1419.28" gradientTransform="translate(0 2723.83) scale(1 -1)" gradientUnits="userSpaceOnUse">
      <stop offset="0" stop-color="#ffc444"/>
      <stop offset="1" stop-color="#f36f56"/>
    </linearGradient>
    <linearGradient id="Unbenannter_Verlauf_2" data-name="Unbenannter Verlauf 2" x1="1621.47" y1="1065.66" x2="3077.51" y2="1065.66" gradientTransform="translate(-414.53 2630.15) rotate(3.95) scale(1 -1)" gradientUnits="userSpaceOnUse">
      <stop offset="0" stop-color="#ff9085"/>
      <stop offset="1" stop-color="#fb6fbb"/>
    </linearGradient>
    <linearGradient id="Unbenannter_Verlauf_3" data-name="Unbenannter Verlauf 3" x1="2077.9" y1="1362.45" x2="1227.56" y2="419.83" gradientTransform="translate(699.5 3143.71) rotate(-11.01) scale(1 -1)" gradientUnits="userSpaceOnUse">
      <stop offset="0" stop-color="#ffc444"/>
      <stop offset="1" stop-color="#f36f56"/>
    </linearGradient>
    <linearGradient id="Unbenannter_Verlauf_4" data-name="Unbenannter Verlauf 4" x1="27.46" y1="1004.02" x2="1851.62" y2="1004.02" gradientTransform="translate(0 2723.83) scale(1 -1)" gradientUnits="userSpaceOnUse">
      <stop offset="0" stop-color="#444b8c"/>
      <stop offset="1" stop-color="#26264f"/>
    </linearGradient>
    <linearGradient id="Unbenannter_Verlauf_5" data-name="Unbenannter Verlauf 5" x1="102.39" y1="1016.01" x2="1789.94" y2="1016.01" gradientTransform="translate(0 2723.83) scale(1 -1)" gradientUnits="userSpaceOnUse">
      <stop offset="0" stop-color="#aa80f9"/>
      <stop offset="1" stop-color="#6165d7"/>
    </linearGradient>
    <linearGradient id="Unbenannter_Verlauf_6" data-name="Unbenannter Verlauf 6" x1="27.46" y1="302.62" x2="2775.48" y2="302.62" gradientTransform="translate(0 2723.83) scale(1 -1)" gradientUnits="userSpaceOnUse">
      <stop offset="0" stop-color="#444b8c"/>
      <stop offset="1" stop-color="#26264f"/>
    </linearGradient>
    <linearGradient id="Unbenannter_Verlauf_7" data-name="Unbenannter Verlauf 7" x1="1350.26" y1="2148.58" x2="2563.22" y2="2148.58" gradientTransform="translate(0 2723.83) scale(1 -1)" gradientUnits="userSpaceOnUse">
      <stop offset="0" stop-color="#fff"/>
      <stop offset="1" stop-color="#ebeff2"/>
    </linearGradient>
    <clipPath id="clippath">
      <polygon class="cls-16" points="2452.29 1000.93 1471.37 1015.1 1471.37 0 2452.29 27.89 2452.29 1000.93"/>
    </clipPath>
    <linearGradient id="Unbenannter_Verlauf_8" data-name="Unbenannter Verlauf 8" x1="2255.27" y1="2594.45" x2="2022.33" y2="2138.27" gradientTransform="translate(0 2723.83) scale(1 -1)" gradientUnits="userSpaceOnUse">
      <stop offset="0" stop-color="#ab316d"/>
      <stop offset="1" stop-color="#792d3d"/>
    </linearGradient>
    <linearGradient id="Unbenannter_Verlauf_9" data-name="Unbenannter Verlauf 9" x1="2260.83" y1="2603.22" x2="2025.53" y2="2142.43" gradientTransform="translate(0 2723.83) scale(1 -1)" gradientUnits="userSpaceOnUse">
      <stop offset="0" stop-color="#ab316d"/>
      <stop offset="1" stop-color="#792d3d"/>
    </linearGradient>
    <linearGradient id="Unbenannter_Verlauf_10" data-name="Unbenannter Verlauf 10" x1="2026.77" y1="1129.5" x2="1915.09" y2="1939.13" gradientTransform="translate(0 2723.83) scale(1 -1)" gradientUnits="userSpaceOnUse">
      <stop offset="0" stop-color="#e38ddd"/>
      <stop offset="1" stop-color="#9571f6"/>
    </linearGradient>
    <linearGradient id="Unbenannter_Verlauf_11" data-name="Unbenannter Verlauf 11" x1="1955.56" y1="1815.3" x2="1939.22" y2="2170" gradientTransform="translate(0 2723.83) scale(1 -1)" gradientUnits="userSpaceOnUse">
      <stop offset="0" stop-color="#ffc444"/>
      <stop offset="1" stop-color="#f36f56"/>
    </linearGradient>
    <linearGradient id="Unbenannter_Verlauf_12" data-name="Unbenannter Verlauf 12" x1="1938.11" y1="2127.18" x2="1944.37" y2="2366.91" gradientTransform="translate(0 2723.83) scale(1 -1)" gradientUnits="userSpaceOnUse">
      <stop offset="0" stop-color="#ffc444"/>
      <stop offset="1" stop-color="#f36f56"/>
    </linearGradient>
    <linearGradient id="Unbenannter_Verlauf_13" data-name="Unbenannter Verlauf 13" x1="1839.76" y1="2152.36" x2="1845.53" y2="2373.16" gradientTransform="translate(0 2723.83) scale(1 -1)" gradientUnits="userSpaceOnUse">
      <stop offset="0" stop-color="#ffc444"/>
      <stop offset="1" stop-color="#f36f56"/>
    </linearGradient>
    <linearGradient id="Unbenannter_Verlauf_14" data-name="Unbenannter Verlauf 14" x1="2033.73" y1="2146.71" x2="2039.41" y2="2364.04" gradientTransform="translate(0 2723.83) scale(1 -1)" gradientUnits="userSpaceOnUse">
      <stop offset="0" stop-color="#ffc444"/>
      <stop offset="1" stop-color="#f36f56"/>
    </linearGradient>
    <linearGradient id="Unbenannter_Verlauf_15" data-name="Unbenannter Verlauf 15" x1="1396.49" y1="956.39" x2="2392.22" y2="956.39" gradientTransform="translate(0 2723.83) scale(1 -1)" gradientUnits="userSpaceOnUse">
      <stop offset="0" stop-color="#fff"/>
      <stop offset="1" stop-color="#ebeff2"/>
    </linearGradient>
    <clipPath id="clippath-1">
      <polygon class="cls-16" points="2298.69 2085.4 1495.8 2135.17 1495.8 1287.76 2298.69 1266.82 2298.69 2085.4"/>
    </clipPath>
    <linearGradient id="Unbenannter_Verlauf_16" data-name="Unbenannter Verlauf 16" x1="1841.36" y1="1431.82" x2="1929.61" y2="24.94" gradientTransform="translate(0 2723.83) scale(1 -1)" gradientUnits="userSpaceOnUse">
      <stop offset="0" stop-color="#f36f56"/>
      <stop offset="1" stop-color="#ffc444"/>
    </linearGradient>
    <linearGradient id="Unbenannter_Verlauf_17" data-name="Unbenannter Verlauf 17" x1="1898.37" y1="790.67" x2="1895.52" y2="965.02" gradientTransform="translate(0 2723.83) scale(1 -1)" gradientUnits="userSpaceOnUse">
      <stop offset="0" stop-color="#311944"/>
      <stop offset="1" stop-color="#893976"/>
    </linearGradient>
    <linearGradient id="Unbenannter_Verlauf_18" data-name="Unbenannter Verlauf 18" x1="1899.8" y1="774.44" x2="1898.88" y2="921.43" gradientTransform="translate(0 2723.83) scale(1 -1)" gradientUnits="userSpaceOnUse">
      <stop offset="0" stop-color="#ab316d"/>
      <stop offset="1" stop-color="#792d3d"/>
    </linearGradient>
    <linearGradient id="Unbenannter_Verlauf_19" data-name="Unbenannter Verlauf 19" x1="1887.46" y1="985.1" x2="1911.82" y2="1278.41" gradientTransform="translate(0 2723.83) scale(1 -1)" gradientUnits="userSpaceOnUse">
      <stop offset="0" stop-color="#ab316d"/>
      <stop offset="1" stop-color="#792d3d"/>
    </linearGradient>
    <linearGradient id="Unbenannter_Verlauf_20" data-name="Unbenannter Verlauf 20" x1="1805.17" y1="989.71" x2="1829.21" y2="1279.13" gradientTransform="translate(0 2723.83) scale(1 -1)" gradientUnits="userSpaceOnUse">
      <stop offset="0" stop-color="#ab316d"/>
      <stop offset="1" stop-color="#792d3d"/>
    </linearGradient>
    <linearGradient id="Unbenannter_Verlauf_21" data-name="Unbenannter Verlauf 21" x1="1981.49" y1="981.45" x2="2005.84" y2="1274.51" gradientTransform="translate(0 2723.83) scale(1 -1)" gradientUnits="userSpaceOnUse">
      <stop offset="0" stop-color="#ab316d"/>
      <stop offset="1" stop-color="#792d3d"/>
    </linearGradient>
    <linearGradient id="Unbenannter_Verlauf_22" data-name="Unbenannter Verlauf 22" x1="1881.25" y1="1125.37" x2="1946.25" y2="1326.96" gradientTransform="translate(0 2723.83) scale(1 -1)" gradientUnits="userSpaceOnUse">
      <stop offset="0" stop-color="#311944"/>
      <stop offset="1" stop-color="#6b3976"/>
    </linearGradient>
    <linearGradient id="Unbenannter_Verlauf_23" data-name="Unbenannter Verlauf 23" x1="1881.44" y1="1125.94" x2="1946.91" y2="1329.01" gradientTransform="translate(0 2723.83) scale(1 -1)" gradientUnits="userSpaceOnUse">
      <stop offset="0" stop-color="#311944"/>
      <stop offset="1" stop-color="#6b3976"/>
    </linearGradient>
    <linearGradient id="Unbenannter_Verlauf_24" data-name="Unbenannter Verlauf 24" x1="173.84" y1="1553.13" x2="1705.75" y2="1553.13" gradientTransform="translate(0 2723.83) scale(1 -1)" gradientUnits="userSpaceOnUse">
      <stop offset="0" stop-color="#fff"/>
      <stop offset="1" stop-color="#ebeff2"/>
    </linearGradient>
    <clipPath id="clippath-2">
      <polygon class="cls-16" points="1562.13 1646.7 329.87 1697.89 329.87 536.8 1562.13 543.55 1562.13 1646.7"/>
    </clipPath>
    <linearGradient id="Unbenannter_Verlauf_25" data-name="Unbenannter Verlauf 25" x1="1405.31" y1="2061.13" x2="754.48" y2="780" gradientTransform="translate(0 2723.83) scale(1 -1)" gradientUnits="userSpaceOnUse">
      <stop offset="0" stop-color="#ff9085"/>
      <stop offset="1" stop-color="#fb6fbb"/>
    </linearGradient>
    <linearGradient id="Unbenannter_Verlauf_26" data-name="Unbenannter Verlauf 26" x1="946.03" y1="1114.09" x2="956.83" y2="1703.51" gradientTransform="translate(0 2723.83) scale(1 -1)" gradientUnits="userSpaceOnUse">
      <stop offset="0" stop-color="#311944"/>
      <stop offset=".56" stop-color="#6f2b60"/>
      <stop offset="1" stop-color="#a03976"/>
    </linearGradient>
    <linearGradient id="Unbenannter_Verlauf_27" data-name="Unbenannter Verlauf 27" x1="963.59" y1="1507.12" x2="1004.42" y2="1241.78" gradientTransform="translate(0 2723.83) scale(1 -1)" gradientUnits="userSpaceOnUse">
      <stop offset="0" stop-color="#ffc444"/>
      <stop offset="1" stop-color="#f36f56"/>
    </linearGradient>
    <linearGradient id="Unbenannter_Verlauf_28" data-name="Unbenannter Verlauf 28" x1="944.26" y1="1914.49" x2="934.01" y2="1238.08" gradientTransform="translate(0 2723.83) scale(1 -1)" gradientUnits="userSpaceOnUse">
      <stop offset="0" stop-color="#ffc444"/>
      <stop offset="1" stop-color="#f36f56"/>
    </linearGradient>
    <linearGradient id="Unbenannter_Verlauf_29" data-name="Unbenannter Verlauf 29" x1="1100.55" y1="1965.06" x2="1090.28" y2="1287.24" gradientTransform="translate(-91.33 2850.09) rotate(-6.51) scale(1 -1)" gradientUnits="userSpaceOnUse">
      <stop offset="0" stop-color="#ffc444"/>
      <stop offset="1" stop-color="#f36f56"/>
    </linearGradient>
    <linearGradient id="Unbenannter_Verlauf_30" data-name="Unbenannter Verlauf 30" x1="1085.18" y1="1913.34" x2="1074.95" y2="1238.3" gradientTransform="translate(0 2723.83) scale(1 -1)" gradientUnits="userSpaceOnUse">
      <stop offset="0" stop-color="#ffc444"/>
      <stop offset="1" stop-color="#f36f56"/>
    </linearGradient>
    <linearGradient id="Unbenannter_Verlauf_31" data-name="Unbenannter Verlauf 31" x1="978.15" y1="2044.51" x2="948.89" y2="1791.86" gradientTransform="translate(0 2723.83) scale(1 -1)" gradientUnits="userSpaceOnUse">
      <stop offset="0" stop-color="#ffc444"/>
      <stop offset="1" stop-color="#f36f56"/>
    </linearGradient>
    <linearGradient id="Unbenannter_Verlauf_32" data-name="Unbenannter Verlauf 32" x1="-4425.6" y1="2191.11" x2="-3770.92" y2="2191.11" gradientTransform="translate(4428.12 2723.83) scale(1 -1)" gradientUnits="userSpaceOnUse">
      <stop offset="0" stop-color="#aa80f9"/>
      <stop offset="1" stop-color="#6165d7"/>
    </linearGradient>
    <linearGradient id="Unbenannter_Verlauf_33" data-name="Unbenannter Verlauf 33" x1="-4339.19" y1="2363.33" x2="-3771.06" y2="1615.12" gradientTransform="translate(4428.12 2723.83) scale(1 -1)" gradientUnits="userSpaceOnUse">
      <stop offset="0" stop-color="#aa80f9"/>
      <stop offset="1" stop-color="#6165d7"/>
    </linearGradient>
  </defs>
  <g id="Illustration">
    <g>
      <g>
        <g>
          <path class="cls-9" d="m1402.51,2449.4c-123.46-22.5-154.02-287.64-157.9-325.34-9.7-94.39-21.73-211.38,46.54-310.36,98.67-143.07,266.67-105.8,306.75-224.6,24.64-73.01-36-95.44-38.86-235.03-.82-40.06-3.78-184.69,97.35-301.6,72.12-83.37,163.79-114.05,212.27-125.94,15.8-39.95,34.18-100.51,33.75-174.4-.69-118.53-49.15-164.28-24-227.13,28.82-72.03,131.54-109.64,209.72-108.91,208.23,1.94,322.33,276.66,330.14,296.2,20.2,50.5,84.18,210.49,10.95,326.92-57.85,91.98-156.13,84.91-171.12,160.53-14.95,75.45,78.47,104.83,100.56,220.01,18.86,98.34-22.64,215.61-96.1,281.65-122.7,110.3-272.88,22.21-338.58,113.6-76.48,106.4,77.82,294.33,9.58,357.74-64.78,60.19-234.15-80.93-316.67-10.64-59.65,50.81-4.33,152.82-84.78,234.46-4.82,4.89-65.19,64.59-129.63,52.84Z"/>
          <path class="cls-22" d="m2051.03,478.62c79.11,18.24,115.73,256.53,73.92,460.55-28.78,140.48-69.83,143.1-175.25,380.91-142.88,322.29-89.79,367.77-193.68,480.39-142.56,154.54-288.78,119.02-367.23,267.67-53.1,100.61-37.74,214.69-14.69,298.52-29.45-45.19-75.21-128.84-87.97-242.07-8.31-73.76-23.34-207.17,53.4-288.36,92.09-97.43,227.74-25.95,290.94-116.53,35.83-51.35,3.63-90.66-4.66-266.04-8.36-176.91-12.54-265.36,35.34-340.84,85.42-134.65,239.01-79.75,291.58-196.57,54.49-121.11-83.89-239.44-11.9-362.15,23.21-39.57,71.16-84.48,110.2-75.48Z"/>
        </g>
        <g>
          <path class="cls-27" d="m1887.59,2417.42c135.25-24.65,168.72-315.09,172.97-356.4,10.63-103.4,23.8-231.55-50.98-339.98-108.09-156.73-292.12-115.9-336.03-246.04-26.99-79.98,39.43-104.55,42.56-257.46.9-43.89,4.15-202.32-106.65-330.39-79-91.32-179.43-124.94-232.54-137.96-17.31-43.76-37.44-110.11-36.97-191.04.75-129.84,53.84-179.96,26.29-248.81-31.57-78.9-144.1-120.11-229.73-119.31-228.11,2.12-353.1,303.07-361.66,324.48-22.12,55.32-92.21,230.58-12,358.13,63.37,100.76,171.03,93.02,187.45,175.86,16.38,82.66-85.96,114.84-110.16,241.01-20.67,107.73,24.8,236.19,105.27,308.53,134.41,120.83,298.93,24.33,370.89,124.45,83.78,116.55-85.25,322.42-10.49,391.88,70.96,65.93,256.5-88.66,346.89-11.66,65.34,55.66,4.74,167.4,92.87,256.84,5.28,5.36,71.41,70.75,142,57.88Z"/>
          <path class="cls-22" d="m1177.17,258.53c-86.66,19.99-126.77,281.02-80.98,504.51,31.53,153.89,76.49,156.76,191.98,417.27,156.52,353.05,98.36,402.88,212.17,526.24,156.17,169.29,316.34,130.38,402.29,293.22,58.17,110.22,41.34,235.18,16.09,327.01,32.26-49.51,82.39-141.13,96.37-265.18,9.1-80.8,25.57-226.94-58.5-315.88-100.88-106.73-249.48-28.42-318.71-127.65-39.25-56.25-3.98-99.31,5.1-291.43,9.16-193.79,13.74-290.69-38.72-373.38-93.57-147.5-261.83-87.36-319.41-215.33-59.69-132.67,91.89-262.3,13.04-396.72-25.43-43.35-77.96-92.54-120.72-82.68Z"/>
        </g>
        <g>
          <path class="cls-13" d="m1344.65,2464.83c-73.87-12.69-114.69-194.71-98.87-335.9,6.12-54.62,12.21-108.95,51.95-158.45,67.07-83.54,144.6-46.93,203.59-114.3,87.12-99.49-21.28-248.58,62.57-329.47,61.68-59.5,139.87,2.32,213.47-62.16,85.39-74.8,33.37-204.6,106.84-237.63,42.68-19.19,71.46,19.56,187.02,11.41,45.21-3.19,67.81-4.78,88.49-17.25,72.5-43.7,37.46-142.57,95.46-203.15,63.85-66.69,202.14-46.98,284.4-10.15,147.38,66,213.71,231.27,215.96,362.71.48,28.16.71,211.55-130.76,308.65-95.6,70.61-224.14,68.49-244.99,68.15-81.22-1.34-97.49-24.92-126.32-7.86-83.34,49.29,32.93,257.89-73.56,390.95-43.48,54.33-117.56,87.89-183.26,90.9-106.23,4.87-151.97-71.9-208.42-45.56-73.02,34.08-28.85,177.69-108.91,220.01-56.65,29.94-100.17-30.63-195.67-5.39-84.79,22.41-95.24,81.98-138.98,74.46Z"/>
          <path class="cls-22" d="m1348.81,2331.63c33.7,8.35,51.64-83.18,166.66-203.34,125.6-131.22,193.12-114.98,310.04-233.03,133.48-134.77,71.88-182.61,183.73-286.97,151.59-141.44,280.44-68.22,462.74-233.81,54.69-49.67,127.48-117.72,115.63-201.2-10.27-72.39-82.84-146.91-165.12-147.06-3.44,0-72.64.95-116.8,54.14-54.17,65.24-7.58,133.09-57.81,182.58-26.31,25.92-67.34,28.92-149.4,34.93-118.02,8.64-137.68-16.32-169.96,5.24-72.95,48.72-.02,194.5-74.11,254.95-63.61,51.9-155.18-24.7-210.9,25.04-67.26,60.03,37.5,197.15-31.81,297.44-59.67,86.35-171.24,33.77-251.64,123.99-94.94,106.53-59.87,315.07-11.24,327.12Z"/>
        </g>
        <g>
          <path class="cls-29" d="m1776.15,2389.04c56.1,3.92,63.71-99.17,161.68-130.04,108.37-34.15,177.15,67.38,252.65,28.58,84.83-43.59,37.05-191.84,132.32-247.49,65.08-38.02,110.41,17.73,192.26-17.16,85.31-36.36,168.6-153.42,135.84-268.21-27.33-95.77-125.88-156.48-205.18-157.06-64.88-.47-83.3,39.54-140.05,27.75-70.69-14.69-69.02-82.4-143.09-112.89-73.7-30.34-174.46-4.09-229.91,56.1-46.11,50.05-50.81,112.65-54.92,167.24-11.02,146.57,55.88,203.03,20.15,259.35-44.58,70.27-166.71,10.71-222.37,80.38-69.66,87.2,19.92,307.8,100.62,313.43Z"/>
          <path class="cls-22" d="m1748.93,2281.22c20.53,4.09,26.58-62.7,91.11-118.47,73.98-63.94,129.66-31.15,212.44-81.64,102.56-62.56,63.59-141.28,154.9-204.75,128-88.98,287.02,8.41,329.99-64.23,25.1-42.44-3.09-119.8-48.38-145.04-48.33-26.94-82.57,24.18-165.54,12.07-77.71-11.34-82.07-61.2-177.96-86.24-46.75-12.21-108.15-28.25-147.39,1.82-76.87,58.92-35.14,269.22-22.41,333.42,11.72,59.06,22.58,81.99,7.21,106.04-40.27,62.99-173.83-2.02-235.62,66.01-51.68,56.9-24.87,175.72,1.65,181Z"/>
        </g>
      </g>
      <g>
        <path class="cls-12" d="m2775.49,2401.22l-2748.02-23.42v69.31c0,18.81,11.99,34.81,28.22,37.66l777.06,136.48c9.22,1.62,18.57,2.05,27.88,1.28l1885-155.61c16.83-1.39,29.86-17.43,29.86-36.76v-28.93h0Z"/>
        <g>
          <path class="cls-12" d="m1778.24,2290.15l-1722.36,126.79c-30.82,2.27-55.88-21.84-55.88-53.85v-1282.59c0-32.01,25.06-57.97,55.88-57.97h1722.36c25.39,0,45.92,23.46,45.92,52.4v1159.44c0,28.94-20.53,53.91-45.92,55.78Z"/>
          <path class="cls-33" d="m1805.7,2290.15l-1722.36,126.79c-30.82,2.27-55.88-21.84-55.88-53.85v-1282.59c0-32.01,25.06-57.97,55.88-57.97h1722.36c25.39,0,45.92,23.46,45.92,52.4v1159.44c0,28.94-20.53,53.91-45.92,55.78Z"/>
          <path class="cls-10" d="m1752.05,2208.41l-1604.2,110.13c-25.08,1.72-45.46-18.06-45.46-44.2v-1122.91c0-26.14,20.38-47.41,45.46-47.52l1604.2-6.92c20.95-.09,37.89,19.13,37.89,42.94v1022.77c0,23.8-16.94,44.26-37.89,45.7Z"/>
          <path class="cls-23" d="m1005.35,1057.61c0,11.92-8.86,21.61-19.81,21.64-10.96.04-19.85-9.62-19.85-21.56s8.9-21.63,19.85-21.64c10.95,0,19.81,9.65,19.81,21.56Z"/>
          <path class="cls-20" d="m83.34,2416.94l1713.65-126.15,8.72-.64c11.65-.86,22.24-6.62,30.33-15.35-123.32-6.75-199.91-50.51-249.32-95.73-99.22-90.81-82.01-180.36-189.01-240.06-133.46-74.47-238.4,19.89-339.67-73.21-61.4-56.45-31.25-98.54-106.8-182.89-83.68-93.42-138.15-62.02-222.25-146.1-106.33-106.32-53.15-189.03-144.74-265.37-111.11-92.6-230.94-6.89-336.71-95.7-45.62-38.3-70.65-93.99-83.72-153.21h-80.47c-30.82,0-55.88,25.95-55.88,57.97v1282.59c0,32.01,25.06,56.12,55.88,53.85Z"/>
        </g>
        <path class="cls-1" d="m1874.35,2283.12L27.46,2416.58l805.28,141.44c9.22,1.62,18.57,2.05,27.88,1.28l1914.87-158.07-871.76-117.19c-9.75-1.31-19.58-1.61-29.38-.91Z"/>
        <polygon class="cls-12" points="296.95 2417.72 1834.54 2304.96 2310.41 2368.42 786.07 2488.96 296.95 2417.72"/>
      </g>
      <g>
        <g>
          <g>
            <path class="cls-23" d="m2581.45,157.14v838.72c0,38.68-26.32,70.69-59.41,71.48l-275.69,6.74-850.35,20.8c-34.58.84-66.78-27.29-70.63-64.37-.31-2.82-4.11-5.66-4.11-8.57V128.34c0-15.08,7.78-28.97,14.76-40.54.2-.33,2.22-.6,2.42-.91,12.16-19.46,33.56-31.89,56.75-31.26l128.99,3.42,997.64,26.46c33.09.88,59.63,32.93,59.63,71.63Z"/>
            <path class="cls-38" d="m1396.12,1071.11c-25.26.59-45.86-21.69-45.86-49.66V128.96c0-27.97,20.6-50.21,45.86-49.57l1126.34,28.57c22.5.57,40.76,22.44,40.76,48.75v839.52c0,26.31-18.26,48.15-40.76,48.67l-1126.34,26.21Z"/>
            <path class="cls-9" d="m2522.46,85.52l-1126.34-29.88c-37.19-.99-67.45,31.61-67.45,72.82v53.52l1253.61,25.41v-50.24c0-38.68-26.73-70.75-59.82-71.62Z"/>
            <path class="cls-23" d="m1448.68,121.97c0,12.27-9.8,22-21.91,21.73-12.12-.27-21.96-10.46-21.96-22.76s9.84-22.03,21.96-21.73c12.11.3,21.91,10.48,21.91,22.76Z"/>
            <path class="cls-23" d="m1525.26,123.76c0,12.23-9.73,21.92-21.75,21.66-12.03-.27-21.79-10.42-21.79-22.67s9.76-21.95,21.79-21.65c12.02.29,21.75,10.44,21.75,22.67Z"/>
            <path class="cls-23" d="m1601.27,125.53c0,12.18-9.66,21.84-21.58,21.58-11.94-.27-21.63-10.38-21.63-22.58s9.69-21.87,21.63-21.58c11.93.29,21.58,10.4,21.58,22.58Z"/>
            <polygon class="cls-9" points="2512.47 997.63 1407.3 1020.62 1407.3 317.71 2512.47 332.84 2512.47 997.63"/>
            <g class="cls-40">
              <polygon class="cls-23" points="1998.23 255.12 1407.3 244.92 1407.3 282.89 1998.23 291.99 1998.23 255.12"/>
              <polygon class="cls-23" points="2448.66 262.89 2448.66 298.92 2512.47 299.9 2512.47 263.99 2448.66 262.89"/>
            </g>
            <g class="cls-40">
              <path class="cls-23" d="m2253.55,1074.07l-850.45,20.8c-34.58.84-67.04-27.29-70.9-64.36-.02-.82-3.96-1.6-3.96-2.43V127.94c0-14.91,7.81-28.64,14.55-40.15.2-.33,2.33-.6,2.53-.91,12.09-20,33.77-32.82,57.21-32.18l128.3,3.41c.09.31.44.63.54.94,2.39,7.82,5.14,15.75,8.02,23.8,11.36,31.9,26.59,65.35,46.97,98.29,1.24,2.03,2.54,4.02,3.82,6.01,15.01,23.52,30.96,43.84,47.62,61.64,13.31,14.24,27.08,26.85,41.19,38.18,16.53,13.3,33.56,24.8,50.89,35.08,124.87,74.08,265.1,83.76,358.13,232.29,79.73,127.3,22.62,194.11,99.73,388.87,8.38,21.18,17.39,41.41,26.94,60.76,8.12,16.52,16.62,32.41,25.45,47.67,4.38,7.64,8.87,15.13,13.4,22.44Z"/>
            </g>
          </g>
          <g class="cls-44">
            <g>
              <g>
                <path class="cls-14" d="m1803.54,990.85c-191.88-29.55-234.6-51.36-254.42-92.08-28.83-59.24-7.86-155.66,41.38-214.98,43.03-51.85,96.55-61.94,94.99-97.81-1.28-29.51-37.94-33.46-64.93-89.2-7.88-16.28-23.2-47.91-16.53-85.79,9.76-55.43,59.43-83.89,63.45-86.11,51.75-28.59,81.18,5.58,119.97-20.1,48.4-32.04,26.48-101.33,71.77-120.39,32.87-13.83,74.79,9.99,85.7,16.2,36.35,20.67,32.54,40.82,63.17,53.74,35.86,15.13,52.96-7.57,94.47,2.35,34.2,8.17,58.91,33.4,79.04,58.68,45.14,56.69,22.72,89.74,56.02,159.22,46.74,97.53,117.04,86.69,129.47,164.42,6.5,40.62-10.19,59.06,2.63,121.27,8.65,41.98,19.53,49.45,21.46,74.15,5.54,70.99-74.67,134.18-89.69,145.34-95.93,71.24-229.71,52.4-497.96,11.08Z"/>
                <path class="cls-3" d="m2108.66,798.69c-125.58-8.79-211.11,111.08-245.16,81.69-32.34-27.92,58.81-123.48,27.73-234.47-30.56-109.16-151.05-132.66-141.5-194.35,10.8-69.76,171.87-85.81,168.1-137.05-2.22-30.23-59-37.56-70.37-85.83-3.09-13.11-2.06-26.02,1.17-38.06-31.34,24.9-17.09,84.96-61.18,114.15-38.79,25.68-68.22-8.49-119.97,20.1-4.02,2.22-53.7,30.68-63.45,86.11-6.67,37.89,8.64,69.52,16.53,85.8,26.98,55.73,63.64,59.69,64.93,89.2,1.56,35.87-51.95,45.95-94.99,97.81-49.24,59.32-70.21,155.74-41.38,214.98,19.82,40.72,62.54,62.53,254.42,92.08,268.25,41.31,402.03,60.16,497.96-11.08,37.02-27.49,80.56-74.1,89.88-115.28-18.62,17.69-36.89,26.36-53.96,29.72-79.71,15.67-116.68-87.67-228.76-95.52Z"/>
              </g>
              <path class="cls-36" d="m1589.53,1249.72c-29.09-72.93-11.35-188.11-7.61-212.38,14.57-94.61,48.87-153.31,61.35-174.16,85.36-142.52,214.49-141.47,311.36-140.68,47.74.39,97.09-.69,157.27,21.55,0,0,47.49,17.55,87.58,46.8,119.37,87.11,213.27,372.33,117.33,481.81-61.33,69.98-124.37-17.08-399.76,29.56-111.43,18.87-229.35,49.7-299.64-11.18-11.65-10.09-20.8-23.57-27.88-41.32Z"/>
              <path class="cls-24" d="m1903.86,551.66s20.42,152.75-83.34,183.28c-12.02,3.54-15.71,19.39-6.61,28.23l127.87,124.33c7.7,7.49,19.84,6.86,26.92-1.39l114.57-133.42c7.48-8.71,4.2-22.54-6.26-26.56-36.67-14.1-102.59-55.3-88.74-166.7l-84.42-7.78Z"/>
              <path class="cls-31" d="m1840.27,466.3c.03,1.68,28.02,151.21,99.61,151.38,67.41.16,92.92-108.94,101.21-159.84.88-8.66,1.76-17.32,2.64-25.97-4.56,1.52-15.89,4.58-29.44.59-3.08-.91-22.6-6.66-29.85-23.59-8.09-18.88,6.78-33.64-1.69-50.17-4.91-9.59-14.81-14.19-22.38-16.58,5.04,7.79,14.8,25.14,9.28,40.72-3.71,10.47-14.1,20.42-37.31,26.3-66.63,16.86-92.73,23.29-92.07,57.16Z"/>
              <path class="cls-28" d="m1857.85,484.32s-37.09-32.95-40.33-12.99c-6.76,41.62,25.01,64.81,42.21,52.47,17.18-12.31-1.87-39.48-1.87-39.48Z"/>
              <path class="cls-32" d="m2020,485.63s36.46-32.02,39.64-12.21c6.61,41.28-24.54,63.85-41.48,51.4-16.97-12.47,1.85-39.18,1.85-39.18Z"/>
            </g>
          </g>
          <g>
            <path class="cls-23" d="m1832.24,935.19c0,21.83-17.04,39.75-38.08,40.02-21.09.28-38.21-17.26-38.21-39.16s17.12-39.82,38.21-40.02c21.05-.2,38.08,17.33,38.08,39.16Z"/>
            <path class="cls-23" d="m2009.18,933.19c0,21.66-16.78,39.44-37.51,39.71-20.77.27-37.63-17.13-37.63-38.86s16.86-39.51,37.63-39.71c20.73-.2,37.51,17.2,37.51,38.86Z"/>
            <path class="cls-23" d="m2183.44,931.22c0,21.5-16.52,39.14-36.94,39.41-20.45.27-37.06-17-37.06-38.57s16.61-39.21,37.06-39.41c20.42-.2,36.94,17.07,36.94,38.57Z"/>
          </g>
        </g>
        <g>
          <path class="cls-23" d="m2406.91,1387.33v689.86c0,31.84-21.61,59.27-49.01,61.23l-227.5,16.27-.25.03-696.35,49.78c-4.57.31-9.04.03-13.34-.84-.8-.14-1.57-.35-2.37-.52-1.54-.42-3.07-.87-4.57-1.4-1.5-.56-2.97-1.15-4.43-1.85-2.17-1.05-4.26-2.2-6.25-3.53-1.33-.87-2.62-1.81-3.84-2.79-1.26-1.01-2.48-2.06-3.63-3.18-9.25-8.94-15.53-21.47-17.04-35.85-.24-2.27-1.22-4.64-1.22-7.02v-728.05c0-.66,0-1.29.03-1.95.04-.77.11-1.5.14-2.27.91-10.58,4.75-20.46,9.74-28.97.14-.28.73-.52.91-.77,8-13.28,20.59-23.01,35.08-26.49,1.7-.43,3.42-.77,5.17-1.01,1.78-.28,3.56-.23,5.38-.3l104.8-2.78h.07l226.17-6.65,593.23-17.03c.63,0,1.22-.08,1.85-.01.74,0,1.47-.02,2.2.05.7.04,1.43.09,2.13.16,24.4,2.86,42.9,26.48,42.9,55.88Z"/>
          <path class="cls-34" d="m1433.79,2185.16c-20.55,1.45-37.31-15.91-37.31-38.71v-727.13c0-22.79,16.75-41.83,37.31-42.43l924.66-27.24c18.63-.55,33.77,16.61,33.77,38.26v690.52c0,21.64-15.13,40.32-33.77,41.63l-924.66,65.11Z"/>
          <path class="cls-9" d="m2358.45,1331.2l-924.66,26.34c-30.26.86-54.85,28.77-54.85,62.34v43.6l1029.07-34.74v-41.33c0-31.82-22.16-56.98-49.56-56.2Z"/>
          <path class="cls-23" d="m1476.58,1409.26c0,10.01-7.98,18.38-17.84,18.69-9.87.32-17.87-7.55-17.87-17.58s8.01-18.39,17.87-18.69c9.86-.3,17.84,7.57,17.84,17.58Z"/>
          <path class="cls-23" d="m1538.98,1407.32c0,9.97-7.93,18.32-17.73,18.63-9.81.31-17.76-7.53-17.76-17.52s7.96-18.33,17.76-18.63c9.8-.3,17.73,7.55,17.73,17.53Z"/>
          <path class="cls-23" d="m1601,1405.38c0,9.94-7.88,18.26-17.62,18.57-9.74.31-17.65-7.51-17.65-17.47s7.91-18.28,17.65-18.57c9.73-.29,17.62,7.53,17.62,17.47Z"/>
          <polygon class="cls-9" points="2350.17 2081.57 1442.89 2143.58 1442.89 1570.65 2350.17 1534.99 2350.17 2081.57"/>
          <g class="cls-40">
            <polygon class="cls-23" points="1926.05 1493.78 1442.89 1511.32 1442.89 1542.27 1926.05 1523.97 1926.05 1493.78"/>
            <polygon class="cls-23" points="2297.36 1480.31 2297.36 1509.91 2350.17 1507.91 2350.17 1478.39 2297.36 1480.31"/>
          </g>
          <g class="cls-40">
            <path class="cls-23" d="m2130.43,2154.76l-696.63,49.74c-4.57.31-9.04.03-13.34-.84-.8-.14-1.57-.35-2.37-.52-1.54-.42-3.07-.87-4.57-1.4-1.5-.56-2.97-1.15-4.43-1.85-2.17-1.05-4.26-2.2-6.25-3.53-1.33-.87-2.62-1.81-3.84-2.79-1.26-1.01-2.48-2.06-3.63-3.18-9.29-8.9-15.64-21.43-17.14-35.82,0-.66-1.12-1.36-1.12-2.02v-733.07c0-.66,0-1.29.03-1.95.04-.77.11-1.5.14-2.27.84-10.58,4.71-20.42,9.57-28.97.14-.28.84-.52.98-.77,9.84-16.83,26.95-28.21,46.01-28.76l103.91-2.93c.07.24-.05.49-.05.73v.04c3.49,6.28,4.49,12.6,6.82,19.03,9.25,25.52,21.82,52.15,38.48,78.12,1.01,1.61,2.15,3.18,3.2,4.75,12.25,18.54,25.28,34.42,38.9,48.21,10.86,11.07,22.16,20.77,33.68,29.39,13.51,10.16,27.42,18.82,41.59,26.43,0,.03.04.03.04.03,21.01,11.34,42.56,20.42,64.2,28.73,83.67,32.12,168.78,52.54,229.52,146.02,57.98,89.23,28.03,144.21,64.06,263.73,3.77,12.5,8.24,25.73,13.65,39.76,1.4,3.67,2.86,7.4,4.4,11.21,6.88,17.03,14.31,33.27,22.17,48.77,6.7,13.23,13.72,25.94,20.98,38.12,3.63,6.07,7.29,12.01,11.03,17.8,0,.04.03.04.03.07Z"/>
          </g>
          <g class="cls-42">
            <g>
              <path class="cls-39" d="m1558.92,2305.42c-27.99-72.95,11.5-198.08,36.3-255.08,72-165.42,203.15-177.63,309.58-187.54,103.6-9.65,202.75-18.88,274.76,98.38,46.8,76.21,89.67,218.02,61.1,296.9-30.13,83.17-114.2,26.24-316.65,39.34-226.84,14.67-330.24,98.84-365.09,8Z"/>
              <path class="cls-37" d="m2002.63,1874.49c0,20.01-46.74,46.54-104.65,49.67-58.21,3.14-105.61-18.52-105.61-38.71s47.4-13.61,105.61-16.61c57.92-2.99,104.65-14.35,104.65,5.66Z"/>
              <path class="cls-21" d="m1859.26,1741.55c-16.05.74,20.97,116.21-37.38,135.32-5.66,1.85-6.59,9.8-1.44,12.43,15.69,8.01,45.03,17.65,92.99,15.09,31.05-1.65,53.7-15.07,65.45-23.94,4.02-3.03,3.61-9.29-.68-11.38-17.81-8.68-42.57-37.97-35.17-128.4l-83.76.87Z"/>
              <path class="cls-5" d="m1810.43,1602.89c.24,1.47,5.11,108.52,28.69,160.98,6.76,15.04,40.22,11.6,61.83,8.73,18.73-2.49,48.04,3.24,56.28-10.61,33.07-55.6,27.47-189.25,27.47-189.25,0,0-16.94-43.92-86.66-40.11-70.14,3.83-87.6,70.27-87.6,70.27Z"/>
              <path class="cls-30" d="m1826.91,1659.81s-14.73-17.16-28.62-18.96c-13.91-1.8-22.98,36-3.99,59.51,18.96,23.47,40.83,2.34,40.83,2.34l-8.22-42.89Z"/>
              <path class="cls-6" d="m1969.46,1653.75s14.53-18.27,28.2-21.2c13.66-2.92,22.55,33.73,3.93,58.65-18.65,24.96-40.25,5.9-40.25,5.9l8.12-43.35Z"/>
              <path class="cls-11" d="m1815.38,1658.96c1.85,3.46,3.98,6.66,5.41,6.21,5.95-1.86-17.02-61.19,4.14-83.13,10.92-11.33,23.21-1.88,67.8-5.72,44.73-3.85,56.15-15.45,69.62-7.43,12.26,7.29,23.22,29.04,14.14,95.12,2.53-.72,5.06-1.44,7.58-2.16-3.41-21.37.31-35.11,4.56-43.84,3.1-6.37,8.7-14.64,8.26-26.25-.27-7.19-2.55-7.43-2.93-13.31-1.1-17.25,17.74-22.63,18.65-39.74.7-13.17-10.13-15.75-8.15-29.57,1.68-11.75,10.14-14.23,8.8-22.62-1.44-9.06-12.77-15.44-20.73-17.53-8.12-2.13-11.06.65-15.82-2.63-7.7-5.29-4-15.29-9.57-18.77-9.93-6.19-29.68,20.55-42.47,14.49-7.75-3.67-4.76-15.52-11.63-18.14-13.27-5.07-36.76,34.53-46.22,29.7-4.53-2.31-.16-11.92-6.52-18.67-7.47-7.93-25.42-7.32-33.61,1.63-7.64,8.34-1.15,17.78-9.24,28.3-7.27,9.46-15.68,5.96-23.89,13.63-13.97,13.04-9.11,41.25-7.37,51.31,5.97,34.63,24.56,40.95,20.39,64.86-1.07,6.12-3.55,12.98-1.78,22.83,1.74,9.66,6.6,16.79,10.57,21.4Z"/>
              <g class="cls-43">
                <path class="cls-26" d="m1985.56,1577.09c-1.62-16.93,10.95-25.32,8.84-37.36-1.7-9.67-12.22-18.04-22.12-19.54-21.14-3.22-34.84,29.85-55.93,27.12-16.33-2.12-14.52-22.76-32.97-30.36-29.31-12.08-60.12,29.15-79.7,18.76-5.89-3.12-11.85-11.5-12.28-34.8-11.26,13.82-6.84,39.47-5.2,48.97,5.97,34.63,24.56,40.95,20.39,64.86-1.07,6.12-3.55,12.98-1.78,22.83,1.74,9.66,6.6,16.79,10.57,21.4,1.85,3.46,3.98,6.66,5.41,6.21,5.95-1.86-17.02-61.19,4.14-83.13,10.92-11.33,23.21-1.87,67.8-5.72,44.73-3.85,56.15-15.45,69.62-7.43,12.26,7.3,23.22,29.04,14.14,95.12,2.53-.72,5.06-1.44,7.58-2.16-3.41-21.37.31-35.11,4.56-43.84,1.28-2.62,2.98-5.58,4.51-8.95-.32-5.65-1.24-11.82-3.17-18.28-2.26-7.57-3.9-8.26-4.42-13.71Z"/>
              </g>
            </g>
          </g>
          <g>
            <path class="cls-23" d="m1785.6,2043.22c0,17.85-13.96,33.17-31.21,34.21-17.27,1.04-31.29-12.63-31.29-30.53s14.02-33.22,31.29-34.21c17.24-.99,31.21,12.68,31.21,30.54Z"/>
            <path class="cls-23" d="m1930.82,2034.67c0,17.74-13.79,32.96-30.82,33.98-17.05,1.03-30.9-12.56-30.9-30.35s13.84-33.01,30.9-33.99c17.03-.98,30.82,12.61,30.82,30.36Z"/>
            <path class="cls-23" d="m2074.24,2026.23c0,17.63-13.62,32.75-30.44,33.76-16.84,1.01-30.52-12.49-30.52-30.17s13.67-32.8,30.52-33.77c16.82-.97,30.44,12.55,30.44,30.18Z"/>
          </g>
        </g>
        <path class="cls-9" d="m1764.6,1348.1v327.68c0,46.53-33.44,85.94-74.81,88.07l-246.91,12.78-46.39,2.37-19.37,1.01v-360.53c0-.66,0-1.29.03-1.95.04-.77.11-1.5.14-2.27.84-10.58,4.71-20.42,9.57-28.97.14-.28.84-.52.98-.77,9.84-16.83,26.95-28.21,46.01-28.76l104.27-2.93c.07.24.21.49.31.73l226.17-6.46Z"/>
        <g>
          <path class="cls-9" d="m1726.72,632.32c0-40.68-25.76-74.76-59.78-82.81-1.22-.29-2.56-.54-3.8-.76-3.71-.66-7.56-1.01-11.43-1.04l-714.49-4.18-705-4.12c-1.48,0-2.96.02-4.42.09-18.8.9-36.03,8.21-49.75,19.92-.25.21-.5.43-.75.64-1.97,1.72-3.87,3.53-5.68,5.43-.04.04-.09.09-.13.13-1.07,1.13-2.11,2.29-3.13,3.47-13.7,15.98-22.07,37.19-22.07,60.5v65.06h0v1020.95c0,7.83.94,15.37,2.71,22.52,1.06,4.29,2.42,8.44,4.05,12.42,10.86,26.5,33.82,45.66,61.67,50.31,5.65.94,11.49,1.29,17.48.98l1078.88-55.87h0l340.81-17.64c41.25-2.14,74.82-41.55,74.82-88.04v-947.6h0v-60.38h0Z"/>
          <g>
            <path class="cls-23" d="m1729.69,631.81v1009.05c0,46.53-33.46,85.96-74.81,88.08l-345.78,17.88-1076.72,55.75c-44.13,2.28-83.05-30.84-87.97-75.81-.39-3.43-3.05-1097.71-3.05-1097.71,0-18.35,7.66-35.44,16.58-49.69.25-.41,1.71-.78,1.96-1.16,15.52-23.98,42.28-39.63,71.87-39.44l164.1.96,1258.87,7.37c41.35.25,74.95,38.16,74.95,84.72Z"/>
            <path class="cls-25" d="m232.38,1773.68c-32.24,1.63-58.54-24.73-58.54-58.77V629.1c0-34.03,26.3-61.6,58.54-61.46l1422.44,6.44c28.11.13,50.93,25.99,50.93,57.65v1010.19c0,31.66-22.81,58.57-50.93,59.99l-1422.44,71.77Z"/>
            <path class="cls-9" d="m1654.82,547.08l-1422.44-8.31c-47.47-.28-86.1,40.14-86.1,90.28v65.12l1583.27-1.96v-60.44c0-46.53-33.39-84.45-74.73-84.7Z"/>
            <path class="cls-23" d="m299.41,618.08c0,14.92-12.5,27-27.93,26.98-15.46-.02-28.01-12.15-28.01-27.11s12.55-27.04,28.01-26.98c15.44.05,27.93,12.19,27.93,27.11Z"/>
            <path class="cls-23" d="m396.96,618.3c0,14.85-12.39,26.88-27.69,26.86-15.32-.02-27.76-12.1-27.76-26.99s12.44-26.92,27.76-26.86c15.3.05,27.69,12.14,27.69,26.99Z"/>
            <path class="cls-23" d="m493.64,618.51c0,14.79-12.28,26.76-27.44,26.74-15.18-.02-27.51-12.04-27.51-26.87s12.33-26.8,27.51-26.74c15.16.05,27.44,12.08,27.44,26.87Z"/>
            <polygon class="cls-9" points="1642.33 1645.35 246.65 1711.88 246.65 857.16 1642.33 845.05 1642.33 1645.35"/>
            <g class="cls-40">
              <polygon class="cls-23" points="996.39 765.17 246.65 768.65 246.65 814.81 996.39 809.76 996.39 765.17"/>
              <polygon class="cls-23" points="1562.5 762.54 1562.5 805.94 1642.33 805.4 1642.33 762.17 1562.5 762.54"/>
            </g>
            <g class="cls-40">
              <path class="cls-23" d="m1309.07,1746.81l-1076.69,55.76c-44.13,2.28-83.31-30.82-88.24-75.8-.03-1-2.78-1098.21-2.78-1098.21,0-18.14,7.71-35.03,16.31-49.2.25-.41,1.84-.78,2.09-1.16,15.44-24.64,42.54-40.76,72.47-40.57l163.22.96c.11.38.41.75.55,1.13,3.04,9.44,6.47,19,10.14,28.7,14.45,38.45,33.79,78.69,59.72,118.16,1.58,2.43,3.21,4.81,4.84,7.19,19.09,28.16,39.35,52.4,60.51,73.56,16.91,16.92,34.39,31.85,52.3,45.2,20.98,15.69,42.58,29.16,64.57,41.15,158.19,86.28,335.42,94.02,452.73,270.89,100.39,151.35,28.5,233.87,125.55,466.56,10.54,25.28,21.87,49.4,33.87,72.42,10.21,19.66,20.89,38.54,31.99,56.65,5.5,9.07,11.15,17.94,16.84,26.6Z"/>
            </g>
          </g>
          <g>
            <path class="cls-23" d="m793.96,1559.29c0,31.8-24.86,58.66-55.61,59.99-30.84,1.33-55.92-23.5-55.92-55.48s25.07-58.84,55.92-60c30.75-1.15,55.61,23.69,55.61,55.49Z"/>
            <path class="cls-23" d="m1017.38,1550.26c0,31.45-24.32,58-54.39,59.3-30.17,1.3-54.69-23.27-54.69-54.89s24.52-58.18,54.69-59.32c30.08-1.13,54.39,23.45,54.39,54.91Z"/>
            <path class="cls-23" d="m1235.94,1541.42c0,31.11-23.79,57.36-53.22,58.63-29.51,1.28-53.5-23.04-53.5-54.32s23.99-57.54,53.5-58.65c29.43-1.11,53.22,23.22,53.22,54.33Z"/>
          </g>
          <g class="cls-41">
            <g>
              <path class="cls-8" d="m978.43,1748.09c-377.8,19.79-513.05,76.02-574.83-3.85-57.12-73.87-9.78-349.35,58.1-427.94,106.54-123.36,275.66-132.83,503.29-143.91,210.2-10.23,337.93-16.45,437.82,71.44,92.63,81.5,151.41,368.07,94.09,450.81-53.43,77.14-168.48,35.13-518.47,53.46Z"/>
              <path class="cls-19" d="m839.91,1174.6l-44.12,12.18c-10.84,2.99-15.79,15.6-9.75,24.84,30.09,45.99,109.42,160.87,158.84,173.15,50.87,12.64,145.34-137,176.61-189.35,5.39-9.03,1.07-20.59-8.8-23.55l-31.63-9.49c-25.94-7.79-53.3-10.38-80.55-7.61l-119.43,12.11c-13.88,1.41-27.65,3.99-41.17,7.72Z"/>
              <path class="cls-35" d="m872.56,1003.63s24.12,172.9-9.25,190.17l94.74,100.98,95.22-124.01s-35.91-26.45-26.44-169.24l-154.28,2.11Z"/>
              <path class="cls-4" d="m816.36,755.63c-3.45,4.66-48.36,224.27,106.35,245.12,152.76,20.59,159.44-139.6,157.51-207.51-1.93-67.92-71.56-92.5-111.57-97.22-40.15-4.73-140.06,43.08-152.29,59.61Z"/>
              <path class="cls-2" d="m807.36,883.58s-7.77-35.75-34.4-13.2c-26.69,22.6,15.73,81.53,50.6,78.68l-16.2-65.48Z"/>
              <path class="cls-18" d="m1075.55,856.56c-4.36,3.01-16.9,86.29-16.9,86.29,0,0,21.92,2.35,37.77-27.65,15.83-29.96,23.43-89.14-20.87-58.64Z"/>
              <path class="cls-12" d="m1135.07,697.68c-15.92-26.64-56.23-14-68.03-39.75-9.92-21.66,13.38-41.97.89-60.71-10.46-15.69-36.06-15.39-40.62-15.34-34.7.4-42.65,27.98-67.47,27.29-30.38-.84-31.56-42.45-71.84-60.17-39.22-17.25-96.77-3.66-120.1,28.3-18.17,24.89-2.71,43.26-26.55,75.29-16.43,22.06-30.96,23.04-39.14,44.66-7.68,20.32-2.48,39.66,1.58,54.01,9.74,34.39,27.87,49.49,55.21,85.91,12.23,16.29,28.97,40.41,46.24,72.17,7.22,19.13,17.56,48.73,27.11,86.14,8.69,34.01,8.16,40.93,16.27,51.85,27.91,37.61,91.38,32.86,117.99,30.86,30.44-2.28,68.21-5.11,87.18-31.86,10.24-14.44,8.95-27.33,11.32-61.87,1.69-24.65,5.19-59.25,13.13-101.23.15,0,3.53-19.24,12.33-42.95,10.98-29.59,22.38-34.36,34.75-64.9,9.91-24.47,22.7-56.05,9.76-77.71Zm-125.75,231.39c-18.78,5.29-31.46.85-56.99-.34-51.22-2.41-67.46,21.8-91.75,11.51-10.14-4.3-33.62-16.4-38.6-40.04-2.88-15.34-4.91-36.32-1.6-60.65,4.04-29.71,8.7-63.98,32.54-79.21,34.51-22.05,78.43,15.49,109.88-9.02,12-9.35,16.82-23.55,19.01-34.35,6.96,2.39,62.19,22.42,82.45,81.46,12.47,36.34,5.33,68.87-.75,86.58-11.41,17.42-28.84,36.93-54.19,44.07Z"/>
              <path class="cls-17" d="m903.33,966.26c19.79,5.89,49.49,9.67,82.69-3.34,3.44-1.35,6.38,2.39,3.51,4.47-11.85,8.6-29.18,17.81-48.06,16.65-15.62-.96-29.99-6.81-41.07-12.96-3.18-1.76-.67-5.89,2.93-4.82Z"/>
            </g>
          </g>
          <g>
            <path class="cls-23" d="m786.09,1559.06c0,26.44-21.57,48.71-48.22,49.73-26.72,1.03-48.42-19.66-48.42-46.2s21.7-48.82,48.42-49.74c26.66-.92,48.22,19.77,48.22,46.21Z"/>
            <path class="cls-23" d="m1009.7,1550.89c0,26.2-21.17,48.25-47.34,49.26-26.22,1.01-47.53-19.49-47.53-45.79s21.3-48.36,47.53-49.26c26.17-.9,47.34,19.6,47.34,45.8Z"/>
            <path class="cls-23" d="m1229.24,1542.88c0,25.96-20.79,47.8-46.48,48.79-25.75.99-46.66-19.33-46.66-45.39s20.91-47.91,46.66-48.8c25.69-.89,46.48,19.44,46.48,45.4Z"/>
          </g>
        </g>
      </g>
      <g>
        <g>
          <path class="cls-15" d="m609.78,661.99c30.1-37.69,47.43-81.94,47.43-129.28,0-137.64-146.56-249.23-327.34-249.23S2.52,395.07,2.52,532.71s146.56,249.23,327.34,249.23c67.76,0,130.7-15.67,182.93-42.52,34.52,5.89,88.11,15.78,116.38,21.05,8.33,1.55,15.15-6.59,12.17-14.52l-31.57-83.95Z"/>
          <g class="cls-43">
            <path class="cls-7" d="m509,585.45c-73.4-30.85-154.12,34.27-204.58-11.16-50.87-45.8,4.08-136.34-44.64-200.86-23.23-30.77-62.26-45.32-106.9-50.41C62.43,367.38,2.52,444.72,2.52,532.71c0,137.64,146.56,249.23,327.34,249.23,67.76,0,130.7-15.67,182.93-42.52,27.24,4.65,66.34,11.79,95.51,17.18-21.52-111.6-61.12-155.09-99.31-171.14Z"/>
          </g>
        </g>
        <g>
          <path class="cls-23" d="m546.95,441.63c0,6.94-5.63,12.57-12.57,12.57H136.44c-6.94,0-12.57-5.63-12.57-12.57h0c0-6.94,5.63-12.57,12.57-12.57h397.95c6.94,0,12.57,5.63,12.57,12.57h0Z"/>
          <g>
            <path class="cls-23" d="m546.95,517.03c0,6.94-5.63,12.57-12.57,12.57H136.44c-6.94,0-12.57-5.63-12.57-12.57h0c0-6.94,5.63-12.57,12.57-12.57h397.95c6.94,0,12.57,5.63,12.57,12.57h0Z"/>
            <path class="cls-23" d="m358.45,592.43c0,6.94-5.63,12.57-12.57,12.57h-209.45c-6.94,0-12.57-5.63-12.57-12.57h0c0-6.94,5.63-12.57,12.57-12.57h209.45c6.94,0,12.57,5.63,12.57,12.57h0Z"/>
          </g>
        </g>
      </g>
    </g>
  </g>
</svg>