<?xml version="1.0" encoding="UTF-8"?>
<svg id="Ebene_1" data-name="Ebene 1" xmlns="http://www.w3.org/2000/svg" xmlns:xlink="http://www.w3.org/1999/xlink" viewBox="0 0 694.92 644.89">
  <defs>
    <style>
      .cls-1 {
        fill: #003b71;
      }

      .cls-1, .cls-2, .cls-3, .cls-4, .cls-5, .cls-6, .cls-7, .cls-8, .cls-9, .cls-10, .cls-11, .cls-12, .cls-13, .cls-14, .cls-15, .cls-16, .cls-17, .cls-18, .cls-19, .cls-20, .cls-21, .cls-22, .cls-23, .cls-24, .cls-25, .cls-26, .cls-27, .cls-28, .cls-29, .cls-30, .cls-31, .cls-32, .cls-33, .cls-34, .cls-35, .cls-36, .cls-37, .cls-38, .cls-39, .cls-40, .cls-41, .cls-42, .cls-43, .cls-44, .cls-45, .cls-46, .cls-47, .cls-48, .cls-49 {
        stroke-width: 0px;
      }

      .cls-50 {
        stroke-dasharray: 0 0 11.4 11.4;
      }

      .cls-50, .cls-51, .cls-52, .cls-53, .cls-19, .cls-54, .cls-55, .cls-56, .cls-57, .cls-58, .cls-59, .cls-60, .cls-61 {
        fill: none;
      }

      .cls-50, .cls-51, .cls-52, .cls-53, .cls-54, .cls-55, .cls-56, .cls-57, .cls-58, .cls-59, .cls-60, .cls-61 {
        stroke: #fff;
        stroke-miterlimit: 10;
        stroke-width: 3px;
      }

      .cls-2 {
        fill: #a03123;
      }

      .cls-3 {
        fill: #f678c4;
      }

      .cls-51 {
        stroke-dasharray: 0 0 11.48 11.48;
      }

      .cls-4 {
        fill: #ff6c36;
      }

      .cls-52 {
        stroke-dasharray: 0 0 12.46 12.46;
      }

      .cls-5 {
        fill: #007934;
      }

      .cls-6 {
        fill: #ffb819;
      }

      .cls-7 {
        fill: #003764;
      }

      .cls-8 {
        fill: #00af41;
      }

      .cls-9 {
        fill: #008996;
      }

      .cls-10 {
        fill: #7d868c;
      }

      .cls-11 {
        fill: #6edbd5;
      }

      .cls-12 {
        fill: #f5bf9a;
      }

      .cls-53 {
        stroke-dasharray: 0 0 11.88 11.88;
      }

      .cls-13 {
        fill: #00a19b;
      }

      .cls-14 {
        fill: #002b49;
      }

      .cls-62 {
        clip-path: url(#clippath-2);
      }

      .cls-15 {
        fill: #ac6389;
      }

      .cls-16 {
        opacity: .23;
      }

      .cls-16, .cls-26, .cls-28, .cls-41 {
        fill: #fff;
      }

      .cls-16, .cls-28, .cls-41 {
        isolation: isolate;
      }

      .cls-63 {
        clip-path: url(#clippath-6);
      }

      .cls-17 {
        fill: #2e2a25;
      }

      .cls-18 {
        fill: #ff5959;
      }

      .cls-20 {
        fill: #005e85;
      }

      .cls-21 {
        fill: #e2231a;
      }

      .cls-64 {
        clip-path: url(#clippath-7);
      }

      .cls-54 {
        stroke-dasharray: 0 0 10.61 10.61;
      }

      .cls-22 {
        fill: #e1854f;
      }

      .cls-65 {
        clip-path: url(#clippath-1);
      }

      .cls-66 {
        clip-path: url(#clippath-4);
      }

      .cls-23 {
        fill: #954e0f;
      }

      .cls-24 {
        fill: #7f56c5;
      }

      .cls-25 {
        fill: #4c3d2a;
      }

      .cls-27 {
        fill: #d68cc7;
      }

      .cls-28 {
        opacity: .06;
      }

      .cls-29 {
        fill: #4e9d2d;
      }

      .cls-56 {
        stroke-dasharray: 0 0 11.33 11.33;
      }

      .cls-30 {
        fill: #ff8189;
      }

      .cls-31 {
        fill: #0055b8;
      }

      .cls-32 {
        fill: #814c3a;
      }

      .cls-33 {
        fill: #333e48;
      }

      .cls-34 {
        fill: #f6b221;
      }

      .cls-67 {
        clip-path: url(#clippath);
      }

      .cls-35 {
        fill: #00c1de;
      }

      .cls-36 {
        fill: #00563f;
      }

      .cls-68 {
        clip-path: url(#clippath-3);
      }

      .cls-37 {
        fill: #392f2c;
      }

      .cls-38 {
        fill: #ab2c29;
      }

      .cls-57 {
        stroke-dasharray: 0 0 11.65 11.65;
      }

      .cls-39 {
        fill: #262729;
      }

      .cls-69 {
        clip-path: url(#clippath-8);
      }

      .cls-40 {
        fill: #1e252b;
      }

      .cls-41 {
        opacity: .35;
      }

      .cls-42 {
        fill: #682f24;
      }

      .cls-58 {
        stroke-dasharray: 0 0 11.82 11.82;
      }

      .cls-70 {
        clip-path: url(#clippath-5);
      }

      .cls-43 {
        fill: #f4d19f;
      }

      .cls-59 {
        stroke-dasharray: 0 0 12.49 12.49;
      }

      .cls-60 {
        stroke-dasharray: 0 0 11.86 11.86;
      }

      .cls-61 {
        stroke-dasharray: 0 0 10.79 10.79;
      }

      .cls-44 {
        fill: #006e96;
      }

      .cls-45 {
        fill: #ffa400;
      }

      .cls-46 {
        fill: #ff9e16;
      }

      .cls-47 {
        fill: #00ad68;
      }

      .cls-48 {
        fill: #26cad3;
      }

      .cls-49 {
        fill: #022a3a;
      }
    </style>
    <clipPath id="clippath">
      <rect class="cls-19" x="40.84" y="247.28" width="64.49" height="101.88"/>
    </clipPath>
    <clipPath id="clippath-1">
      <rect class="cls-19" x="511.5" y="169.24" width="64.49" height="101.88"/>
    </clipPath>
    <clipPath id="clippath-2">
      <rect class="cls-19" x="263.65" y="35.83" width="64.49" height="101.88"/>
    </clipPath>
    <clipPath id="clippath-3">
      <rect class="cls-19" x="126.51" y="89.82" width="64.49" height="101.88"/>
    </clipPath>
    <clipPath id="clippath-4">
      <rect class="cls-19" x="552.07" y="340.66" width="64.49" height="101.88"/>
    </clipPath>
    <clipPath id="clippath-5">
      <rect class="cls-19" x="425.52" y="494.35" width="64.49" height="101.88"/>
    </clipPath>
    <clipPath id="clippath-6">
      <rect class="cls-19" x="231.4" y="500.15" width="64.49" height="101.88"/>
    </clipPath>
    <clipPath id="clippath-7">
      <rect class="cls-19" x="86.79" y="412.53" width="64.49" height="101.88"/>
    </clipPath>
    <clipPath id="clippath-8">
      <rect class="cls-19" x="401.02" y="59.2" width="64.49" height="101.88"/>
    </clipPath>
  </defs>
  <g>
    <g>
      <line class="cls-55" x1="99.3" y1="407.46" x2="97.2" y2="401.84"/>
      <line class="cls-61" x1="93.43" y1="391.73" x2="87.77" y2="376.57"/>
      <line class="cls-55" x1="85.89" y1="371.52" x2="83.79" y2="365.9"/>
    </g>
    <g>
      <line class="cls-55" x1="110.22" y1="296.61" x2="114.91" y2="292.87"/>
      <line class="cls-60" x1="124.19" y1="285.48" x2="286.56" y2="156.07"/>
      <line class="cls-55" x1="291.2" y1="152.38" x2="295.89" y2="148.64"/>
    </g>
    <g>
      <line class="cls-55" x1="449.47" y1="159.25" x2="449.97" y2="165.23"/>
      <line class="cls-58" x1="450.97" y1="177.01" x2="476.34" y2="477.46"/>
      <line class="cls-55" x1="476.84" y1="483.35" x2="477.34" y2="489.33"/>
    </g>
    <g>
      <line class="cls-55" x1="541.32" y1="389.19" x2="536.09" y2="392.12"/>
      <line class="cls-53" x1="525.72" y1="397.92" x2="302.81" y2="522.73"/>
      <line class="cls-55" x1="297.63" y1="525.64" x2="292.39" y2="528.57"/>
    </g>
    <g>
      <line class="cls-55" x1="175.37" y1="202.63" x2="174.14" y2="208.5"/>
      <line class="cls-50" x1="171.8" y1="219.65" x2="130.93" y2="414.85"/>
      <line class="cls-55" x1="129.76" y1="420.42" x2="128.53" y2="426.3"/>
    </g>
    <g>
      <line class="cls-55" x1="186.36" y1="179.09" x2="192.29" y2="180"/>
      <line class="cls-52" x1="204.61" y1="181.87" x2="494.12" y2="225.99"/>
      <line class="cls-55" x1="500.28" y1="226.93" x2="506.21" y2="227.83"/>
    </g>
    <g>
      <line class="cls-55" x1="152.95" y1="415.86" x2="157.44" y2="419.84"/>
      <line class="cls-57" x1="166.16" y1="427.57" x2="231.55" y2="485.55"/>
      <line class="cls-55" x1="235.9" y1="489.41" x2="240.39" y2="493.39"/>
    </g>
    <g>
      <line class="cls-55" x1="328.14" y1="113.53" x2="334.13" y2="113.81"/>
      <line class="cls-59" x1="346.6" y1="114.4" x2="390.26" y2="116.46"/>
      <line class="cls-55" x1="396.49" y1="116.75" x2="402.49" y2="117.04"/>
    </g>
    <g>
      <line class="cls-55" x1="568.83" y1="264.59" x2="569.98" y2="270.48"/>
      <line class="cls-54" x1="572.01" y1="280.9" x2="583.15" y2="338.17"/>
      <line class="cls-55" x1="584.16" y1="343.38" x2="585.31" y2="349.27"/>
    </g>
    <g>
      <line class="cls-55" x1="290.08" y1="575.35" x2="296.08" y2="575.16"/>
      <line class="cls-56" x1="307.4" y1="574.79" x2="415.01" y2="571.3"/>
      <line class="cls-55" x1="420.68" y1="571.12" x2="426.67" y2="570.92"/>
    </g>
    <g>
      <line class="cls-55" x1="490.01" y1="542.88" x2="493.99" y2="538.38"/>
      <line class="cls-51" x1="501.59" y1="529.78" x2="558.62" y2="465.27"/>
      <line class="cls-55" x1="562.42" y1="460.97" x2="566.39" y2="456.47"/>
    </g>
  </g>
  <g>
    <path class="cls-33" d="m100.18,370.39h-54.17c-8.78,0-15.9-7.12-15.9-15.9v-105.75c0-8.78,7.12-15.9,15.9-15.9h54.17c8.78,0,15.9,7.12,15.9,15.9v105.75c0,8.78-7.12,15.9-15.9,15.9Z"/>
    <rect class="cls-35" x="40.84" y="247.28" width="64.49" height="101.88"/>
    <g class="cls-67">
      <g>
        <g>
          <path class="cls-43" d="m38.1,364.88v46.73c0,3.24,2.63,5.87,5.87,5.87s5.87-2.63,5.87-5.87v-46.73h-11.74Z"/>
          <path class="cls-46" d="m57.54,339.51h-13.57c-3.24,0-5.87,2.63-5.87,5.87v19.49h11.74v-13.62h7.7c3.24,0,5.87-2.63,5.87-5.87s-2.63-5.87-5.87-5.87Z"/>
        </g>
        <g>
          <path class="cls-43" d="m108.07,364.88v46.73c0,3.24-2.63,5.87-5.87,5.87s-5.87-2.63-5.87-5.87v-46.73h11.74Z"/>
          <path class="cls-46" d="m88.63,339.51h13.57c3.24,0,5.87,2.63,5.87,5.87v19.49h-11.74v-13.62h-7.7c-3.24,0-5.87-2.63-5.87-5.87,0-3.24,2.63-5.87,5.87-5.87Z"/>
        </g>
        <path class="cls-43" d="m97.55,317.41c0,7.54-6.16,13.7-13.7,13.7h-21.53c-7.54,0-13.7-6.17-13.7-13.7v-26.18c0-7.54,6.17-13.7,13.7-13.7h21.53c7.54,0,13.7,6.17,13.7,13.7v26.18h0Z"/>
        <path class="cls-6" d="m97.55,393.01c0,7.54-6.16,13.7-13.7,13.7h-21.53c-7.54,0-13.7-6.17-13.7-13.7v-40.54c0-7.54,6.17-13.7,13.7-13.7h21.53c7.54,0,13.7,6.17,13.7,13.7v40.54h0Z"/>
        <path class="cls-46" d="m63.42,338.77c0,5.34,4.33,9.67,9.67,9.67s9.67-4.33,9.67-9.67h-19.35Z"/>
        <path class="cls-43" d="m65.86,338.77c0,3.99,3.24,7.23,7.23,7.23s7.23-3.24,7.23-7.23h-14.45Z"/>
        <path class="cls-23" d="m43.97,286.48c0-3.75,3.04-6.79,6.78-6.79s6.78,3.04,6.78,6.79v15.15c0,3.75-3.04,6.79-6.79,6.79s-6.78-3.04-6.78-6.79c0,0,0-15.15,0-15.15Z"/>
        <path class="cls-23" d="m102.2,286.48c0-3.75-3.04-6.79-6.79-6.79s-6.78,3.04-6.78,6.79v15.15c0,3.75,3.04,6.79,6.78,6.79s6.79-3.04,6.79-6.79v-15.15Z"/>
        <path class="cls-30" d="m70.87,307.18c0-1.22.99-2.22,2.22-2.22s2.22.99,2.22,2.22v4.95c0,1.23-.99,2.22-2.22,2.22s-2.22-.99-2.22-2.22v-4.95Z"/>
        <path class="cls-43" d="m50.63,303.22c-3.41,0-6.17,2.76-6.17,6.17s2.76,6.17,6.17,6.17v-12.34Z"/>
        <path class="cls-43" d="m95.54,303.22c3.41,0,6.17,2.76,6.17,6.17s-2.76,6.17-6.17,6.17v-12.34Z"/>
        <path class="cls-25" d="m63.86,306.18c0-.96-.78-1.74-1.74-1.74s-1.74.78-1.74,1.74.78,1.74,1.74,1.74,1.74-.78,1.74-1.74Z"/>
        <path class="cls-25" d="m82.32,306.18c0-.96.78-1.74,1.74-1.74s1.74.78,1.74,1.74-.78,1.74-1.74,1.74-1.74-.78-1.74-1.74Z"/>
        <g>
          <path class="cls-25" d="m63.86,316.92c0,5.1,4.13,9.23,9.23,9.23s9.23-4.13,9.23-9.23h-18.46Z"/>
          <path class="cls-30" d="m73.09,321.27c-2.38,0-4.52,1.02-6.01,2.65,1.62,1.39,3.72,2.23,6.01,2.23s4.4-.84,6.01-2.23c-1.49-1.63-3.63-2.65-6.01-2.65Z"/>
        </g>
        <rect class="cls-43" x="68.37" y="329.33" width="9.45" height="9.45"/>
        <path class="cls-23" d="m91.62,272.56c-3.84-2.16-18.53-10.44-18.53-10.44,0,0-14.69,8.27-18.53,10.44-3.84,2.16-3.8,6.23-3.8,8.49v13.01h44.66v-13.01c0-2.26.04-6.32-3.8-8.49Z"/>
      </g>
    </g>
    <path class="cls-40" d="m78.9,360.08c0-3.21-2.6-5.81-5.81-5.81s-5.81,2.6-5.81,5.81,2.6,5.81,5.81,5.81,5.81-2.6,5.81-5.81Z"/>
    <path class="cls-40" d="m80.49,244.05h-14.81c-.49,0-.9-.4-.9-.89s.4-.9.9-.9h14.81c.49,0,.9.4.9.9s-.4.89-.9.89Z"/>
    <g>
      <path class="cls-40" d="m74.98,238.63c0-1.05-.85-1.89-1.9-1.89s-1.9.85-1.9,1.89.85,1.89,1.9,1.89c1.05,0,1.9-.85,1.9-1.89Z"/>
      <path class="cls-14" d="m74.43,238.63c0-.74-.6-1.34-1.34-1.34s-1.34.6-1.34,1.34.6,1.34,1.34,1.34c.74,0,1.34-.6,1.34-1.34Z"/>
      <path class="cls-40" d="m73.9,238.63c0-.45-.36-.81-.81-.81s-.81.36-.81.81.36.81.81.81c.45,0,.81-.36.81-.81Z"/>
      <path class="cls-33" d="m73.58,238.63c0-.27-.22-.49-.49-.49s-.49.22-.49.49.22.49.49.49.49-.22.49-.49Z"/>
      <path class="cls-40" d="m73.32,238.63c0-.13-.1-.23-.23-.23s-.23.11-.23.23.1.23.23.23c.13,0,.23-.1.23-.23Z"/>
      <path class="cls-28" d="m73.09,236.73c-1.05,0-1.9.85-1.9,1.89,0,.78.47,1.45,1.14,1.74l1.88-3.25c-.32-.23-.7-.38-1.13-.38Z"/>
    </g>
    <polygon class="cls-16" points="77.7 247.28 40.84 310.2 40.84 349.16 47.24 349.16 105.33 249.98 105.33 247.28 77.7 247.28"/>
    <polygon class="cls-16" points="74.09 349.16 87.66 349.16 105.33 318.98 105.33 295.81 74.09 349.16"/>
  </g>
  <g>
    <path class="cls-33" d="m570.83,292.35h-54.17c-8.78,0-15.9-7.12-15.9-15.9v-105.75c0-8.78,7.12-15.9,15.9-15.9h54.17c8.78,0,15.9,7.12,15.9,15.9v105.75c0,8.78-7.12,15.9-15.9,15.9Z"/>
    <rect class="cls-35" x="511.5" y="169.24" width="64.49" height="101.88"/>
    <g class="cls-65">
      <g>
        <rect class="cls-33" x="524.39" y="203.3" width="48.01" height="58.84" transform="translate(242.13 743.69) rotate(-82.06)"/>
        <g>
          <path class="cls-43" d="m564.24,355.07c-2.76-.38-4.88-2.76-4.87-5.62l.26-77.75-3.9-3.13c-2.43-1.96-2.82-5.52-.87-7.95,1.96-2.43,5.52-2.83,7.95-.87l6.02,4.84c1.34,1.08,2.12,2.71,2.11,4.43l-.27,80.47c0,3.12-2.55,5.65-5.67,5.64-.26,0-.52-.02-.77-.05Z"/>
          <path class="cls-43" d="m499.63,346.06c-.25-.04-.5-.09-.76-.16-3.01-.84-4.76-3.97-3.91-6.97l21.77-77.47c.47-1.66,1.66-3.01,3.24-3.68l7.12-3c2.88-1.21,6.19.13,7.41,3.01,1.21,2.88-.14,6.19-3.01,7.41l-4.61,1.95-21.03,74.85c-.78,2.75-3.46,4.46-6.22,4.07Z"/>
        </g>
        <path class="cls-11" d="m554.39,255.77l-18.11-2.53c-8.62-1.2-16.19,4.92-16.81,13.6l-5.23,49.26-.59,9.86c-.62,8.69,4.57,18.3,13.19,19.5l11.39,1.59c8.62,1.2,16.25-6.62,18.03-15.15l2.13-9.64,8.45-48.81c1.78-8.52-3.82-16.48-12.45-17.68Z"/>
        <g>
          <path class="cls-33" d="m580.83,212.98c2.24-16.09-8.98-30.96-25.07-33.2-16.09-2.24-30.96,8.98-33.2,25.07-2.24,16.09,8.98,30.96,25.07,33.2,16.09,2.24,30.96-8.98,33.2-25.07Z"/>
          <path class="cls-43" d="m570.42,233.23c-2.34,8.39-11.32,14.26-19.94,13.06l-8.4-1.17c-8.62-1.2-15.58-9.31-15.45-18.02l.35-23.32c.13-8.71,7.29-14.85,15.92-13.64l22.4,3.12c8.62,1.2,13.76,9.05,11.42,17.43l-6.3,22.53Z"/>
          <path class="cls-33" d="m570.8,220.35c-.49,3.53,1.97,6.79,5.5,7.29l3.61-25.85-.94-1.61-5.45.72-2.72,19.46Z"/>
          <path class="cls-33" d="m530.19,214.68c-.49,3.53-3.76,6-7.29,5.5l3.61-25.85,1.45-2.04,4.94,2.93-2.71,19.46Z"/>
          <path class="cls-30" d="m548.73,218.67c.12-.87.92-1.47,1.79-1.35.87.12,1.47.92,1.35,1.79l-.71,5.08c-.12.87-.92,1.47-1.79,1.35-.87-.12-1.47-.92-1.35-1.79l.71-5.08Z"/>
          <path class="cls-43" d="m529.79,210.86c-3.9-.54-7.5,2.17-8.04,6.08-.54,3.9,2.17,7.5,6.07,8.05l1.97-14.12Z"/>
          <path class="cls-43" d="m572.23,216.78c3.9.54,6.62,4.14,6.08,8.04-.54,3.9-4.15,6.62-8.04,6.08l1.97-14.12Z"/>
          <path class="cls-25" d="m541.43,217.64c.13-.92-.52-1.78-1.44-1.91s-1.78.52-1.91,1.44c-.13.92.52,1.78,1.44,1.91.92.13,1.78-.52,1.91-1.44Z"/>
          <path class="cls-25" d="m559.17,220.11c.13-.92.98-1.57,1.91-1.44.92.13,1.57.98,1.44,1.91-.13.92-.98,1.57-1.91,1.44-.92-.13-1.57-.98-1.44-1.91Z"/>
          <g>
            <path class="cls-25" d="m539.99,227.96c-.68,4.9,2.73,9.42,7.63,10.11,4.9.68,9.42-2.73,10.11-7.63l-17.74-2.48Z"/>
            <path class="cls-30" d="m548.28,233.38c-2.29-.32-4.48.38-6.13,1.74,1.37,1.55,3.27,2.64,5.48,2.95s4.34-.22,6.08-1.34c-1.22-1.76-3.13-3.03-5.42-3.35Z"/>
          </g>
          <rect class="cls-43" x="540.6" y="243.64" width="10.91" height="10.91" transform="translate(223.94 755.53) rotate(-82.06)"/>
          <path class="cls-33" d="m579.85,203.48c-1.48,3.84-42.65,9.18-49.17,8.84-4.84-3.79-5.98-7.17-5.98-7.17,0,0,1.12-16.31,10.82-18.33,9.7-2.02,38.81-3.24,44.33,16.66Z"/>
        </g>
        <path class="cls-9" d="m552.65,290.5c-5.73-.8-9.75-6.11-8.95-11.85.09-.64.68-1.08,1.32-1,.64.09,1.09.68,1,1.32-.62,4.46,2.5,8.59,6.96,9.21,4.46.62,8.59-2.5,9.21-6.95.09-.64.68-1.08,1.32-1,.64.09,1.09.68,1,1.32-.8,5.73-6.11,9.75-11.85,8.95Z"/>
        <path class="cls-9" d="m528.45,287.13c-5.73-.8-9.75-6.11-8.95-11.85.09-.64.68-1.09,1.32-1,.64.09,1.09.68.99,1.32-.62,4.46,2.5,8.59,6.96,9.21,4.46.62,8.59-2.5,9.21-6.95.09-.64.68-1.08,1.32-1,.64.09,1.09.68,1,1.32-.8,5.73-6.11,9.75-11.85,8.95Z"/>
        <polygon class="cls-13" points="559.64 366.23 558.38 322.27 514.24 316.11 501 358.05 559.64 366.23"/>
        <polygon class="cls-43" points="539.85 253.74 544.28 260.94 550.66 255.25 539.85 253.74"/>
      </g>
    </g>
    <path class="cls-40" d="m549.56,282.05c0-3.21-2.6-5.81-5.81-5.81s-5.81,2.6-5.81,5.81,2.6,5.81,5.81,5.81c3.21,0,5.81-2.6,5.81-5.81Z"/>
    <path class="cls-40" d="m551.15,166.01h-14.81c-.49,0-.9-.4-.9-.9s.4-.9.9-.9h14.81c.49,0,.9.4.9.9,0,.49-.4.9-.9.9Z"/>
    <g>
      <path class="cls-40" d="m545.64,160.59c0-1.05-.85-1.9-1.9-1.9s-1.89.85-1.89,1.9.85,1.9,1.89,1.9,1.9-.85,1.9-1.9Z"/>
      <path class="cls-14" d="m545.08,160.59c0-.74-.6-1.34-1.34-1.34s-1.34.6-1.34,1.34.6,1.34,1.34,1.34,1.34-.6,1.34-1.34Z"/>
      <path class="cls-40" d="m544.56,160.59c0-.45-.36-.81-.81-.81s-.81.36-.81.81.36.81.81.81.81-.36.81-.81Z"/>
      <path class="cls-33" d="m544.24,160.59c0-.27-.22-.49-.49-.49s-.49.22-.49.49.22.49.49.49c.27,0,.49-.22.49-.49Z"/>
      <path class="cls-40" d="m543.98,160.59c0-.13-.1-.23-.23-.23s-.23.1-.23.23.1.23.23.23.23-.1.23-.23Z"/>
      <path class="cls-28" d="m543.74,158.7c-1.05,0-1.89.85-1.89,1.9,0,.78.47,1.45,1.14,1.74l1.88-3.26c-.32-.24-.7-.38-1.13-.38Z"/>
    </g>
    <polygon class="cls-16" points="548.35 169.24 511.5 232.17 511.5 271.12 517.9 271.12 575.99 171.95 575.99 169.24 548.35 169.24"/>
    <polygon class="cls-16" points="544.74 271.12 558.31 271.12 575.99 240.94 575.99 217.77 544.74 271.12"/>
  </g>
  <g>
    <path class="cls-33" d="m322.98,158.94h-54.17c-8.78,0-15.9-7.12-15.9-15.9V37.29c0-8.78,7.12-15.9,15.9-15.9h54.17c8.78,0,15.9,7.12,15.9,15.9v105.75c0,8.78-7.12,15.9-15.9,15.9Z"/>
    <rect class="cls-47" x="263.65" y="35.83" width="64.49" height="101.88"/>
    <g class="cls-62">
      <g>
        <g>
          <path class="cls-32" d="m329.09,230.27c-2.79,0-5.23-2.06-5.61-4.9l-10.52-77.25-4.31-2.57c-2.69-1.6-3.57-5.09-1.96-7.77,1.61-2.69,5.09-3.57,7.78-1.96l6.65,3.97c1.48.88,2.48,2.39,2.71,4.1l10.88,79.95c.42,3.1-1.75,5.96-4.85,6.38-.26.03-.52.05-.77.05Z"/>
          <path class="cls-32" d="m263.68,230.27c-.26,0-.51-.02-.77-.05-3.1-.42-5.27-3.28-4.85-6.38l10.88-79.95c.23-1.71,1.23-3.22,2.71-4.1l6.65-3.97c2.69-1.6,6.17-.73,7.77,1.96,1.6,2.69.73,6.17-1.96,7.77l-4.31,2.57-10.52,77.25c-.39,2.85-2.82,4.91-5.61,4.91Z"/>
        </g>
        <path class="cls-1" d="m305.55,133.01h-18.33c-8.73,0-15.4,7.13-14.81,15.84l1.63,49.65.78,9.87c.58,8.71,7.07,17.54,15.8,17.54h11.53c8.73,0,15.22-8.83,15.8-17.54l.78-9.87,1.63-49.65c.59-8.71-6.08-15.84-14.81-15.84Z"/>
        <g>
          <path class="cls-17" d="m325.89,86.86c0-16.29-13.21-29.5-29.5-29.5s-29.5,13.21-29.5,29.5,13.21,29.5,29.5,29.5,29.5-13.21,29.5-29.5Z"/>
          <path class="cls-32" d="m318.35,108.4c-1.17,8.65-9.26,15.73-17.99,15.73h-8.5c-8.73,0-16.76-7.09-17.83-15.75l-2.89-23.21c-1.08-8.66,5.18-15.75,13.92-15.75h22.68c8.73,0,14.92,7.08,13.75,15.73l-3.13,23.25Z"/>
          <path class="cls-17" d="m316.95,95.56c0,3.57,2.9,6.48,6.48,6.48v-26.18l-1.16-1.47-5.31,1.47v19.7Z"/>
          <path class="cls-17" d="m275.83,95.56c0,3.57-2.9,6.48-6.48,6.48v-26.18l1.16-2.22,5.31,2.22v19.7Z"/>
          <path class="cls-30" d="m294.8,96.96c0-.88.71-1.59,1.59-1.59s1.59.71,1.59,1.59v5.14c0,.88-.71,1.59-1.59,1.59s-1.59-.71-1.59-1.59v-5.14Z"/>
          <path class="cls-32" d="m274.9,91.82c-3.95,0-7.15,3.2-7.15,7.15s3.2,7.15,7.15,7.15v-14.3Z"/>
          <path class="cls-32" d="m317.87,91.82c3.95,0,7.15,3.2,7.15,7.15s-3.2,7.15-7.15,7.15v-14.3Z"/>
          <path class="cls-17" d="m287.4,96.94c0-.94-.76-1.7-1.69-1.7s-1.7.76-1.7,1.7.76,1.7,1.7,1.7,1.69-.76,1.69-1.7Z"/>
          <path class="cls-17" d="m305.37,96.94c0-.94.76-1.7,1.69-1.7s1.7.76,1.7,1.7-.76,1.7-1.7,1.7-1.69-.76-1.69-1.7Z"/>
          <g>
            <path class="cls-17" d="m287.4,107.39c0,4.96,4.02,8.98,8.98,8.98s8.98-4.02,8.98-8.98h-17.96Z"/>
            <path class="cls-30" d="m296.39,111.62c-2.32,0-4.4,1-5.85,2.58,1.57,1.35,3.62,2.17,5.85,2.17s4.28-.82,5.85-2.17c-1.45-1.58-3.53-2.58-5.85-2.58Z"/>
          </g>
          <rect class="cls-32" x="290.91" y="122.07" width="10.94" height="10.95"/>
          <path class="cls-17" d="m323.6,77.56c-.94,4.02-41.09,15.02-47.61,15.59-5.33-3.09-6.93-6.29-6.93-6.29,0,0-1.15-16.36,8.21-19.7,9.36-3.35,38.1-8.59,46.33,10.4Z"/>
        </g>
        <path class="cls-9" d="m308.64,167.75c-5.8,0-10.53-4.72-10.53-10.53,0-.65.52-1.17,1.17-1.17s1.17.52,1.17,1.17c0,4.51,3.67,8.18,8.18,8.18s8.18-3.67,8.18-8.18c0-.65.52-1.17,1.17-1.17s1.17.52,1.17,1.17c0,5.8-4.72,10.53-10.53,10.53Z"/>
        <path class="cls-9" d="m284.13,167.75c-5.8,0-10.53-4.72-10.53-10.53,0-.65.52-1.17,1.17-1.17s1.17.52,1.17,1.17c0,4.51,3.67,8.18,8.18,8.18s8.18-3.67,8.18-8.18c0-.65.52-1.17,1.17-1.17s1.17.52,1.17,1.17c0,5.8-4.72,10.53-10.53,10.53Z"/>
        <polygon class="cls-13" points="326.07 241.98 318.73 198.5 274.04 198.5 266.7 241.98 326.07 241.98"/>
        <polygon class="cls-32" points="290.84 133.01 296.23 139.55 301.78 133.01 290.84 133.01"/>
        <path class="cls-17" d="m284.01,73.64c0-5.1-4.13-9.23-9.23-9.23s-9.23,4.13-9.23,9.23,4.13,9.23,9.23,9.23c5.1,0,9.23-4.13,9.23-9.23Z"/>
        <path class="cls-17" d="m293.2,64.89c0-5.1-4.13-9.23-9.23-9.23s-9.23,4.13-9.23,9.23,4.13,9.23,9.23,9.23c5.1,0,9.23-4.13,9.23-9.23Z"/>
        <path class="cls-17" d="m308.76,73.64c0-5.1,4.13-9.23,9.23-9.23s9.23,4.13,9.23,9.23-4.13,9.23-9.23,9.23c-5.1,0-9.23-4.13-9.23-9.23Z"/>
        <path class="cls-17" d="m299.58,64.89c0-5.1,4.13-9.23,9.23-9.23s9.23,4.13,9.23,9.23-4.13,9.23-9.23,9.23c-5.1,0-9.23-4.13-9.23-9.23Z"/>
        <path class="cls-17" d="m287.15,60.19c0-5.1,4.13-9.23,9.23-9.23s9.23,4.13,9.23,9.23-4.13,9.23-9.23,9.23-9.23-4.13-9.23-9.23Z"/>
      </g>
    </g>
    <path class="cls-40" d="m301.7,148.64c0-3.21-2.6-5.81-5.81-5.81s-5.81,2.6-5.81,5.81,2.6,5.81,5.81,5.81,5.81-2.6,5.81-5.81Z"/>
    <path class="cls-40" d="m303.3,32.6h-14.81c-.49,0-.89-.4-.89-.9s.4-.9.89-.9h14.81c.49,0,.9.4.9.9,0,.5-.4.9-.9.9Z"/>
    <g>
      <path class="cls-40" d="m297.79,27.18c0-1.05-.85-1.89-1.89-1.89s-1.89.85-1.89,1.89.85,1.9,1.89,1.9c1.05,0,1.89-.85,1.89-1.9Z"/>
      <path class="cls-14" d="m297.23,27.18c0-.74-.6-1.34-1.34-1.34s-1.34.6-1.34,1.34.6,1.34,1.34,1.34,1.34-.6,1.34-1.34Z"/>
      <path class="cls-40" d="m296.7,27.18c0-.45-.36-.81-.81-.81s-.81.36-.81.81.36.81.81.81.81-.36.81-.81Z"/>
      <path class="cls-33" d="m296.39,27.18c0-.27-.22-.49-.49-.49s-.49.22-.49.49.22.49.49.49c.27,0,.49-.22.49-.49Z"/>
      <path class="cls-40" d="m296.12,27.18c0-.13-.1-.23-.23-.23s-.23.1-.23.23.1.23.23.23.23-.1.23-.23Z"/>
      <path class="cls-28" d="m295.89,25.29c-1.05,0-1.89.85-1.89,1.89,0,.78.47,1.45,1.14,1.74l1.88-3.25c-.32-.24-.7-.38-1.13-.38Z"/>
    </g>
    <polygon class="cls-16" points="300.5 35.83 263.65 98.76 263.65 137.71 270.05 137.71 328.14 38.53 328.14 35.83 300.5 35.83"/>
    <polygon class="cls-16" points="296.89 137.71 310.46 137.71 328.14 107.53 328.14 84.36 296.89 137.71"/>
  </g>
  <g>
    <path class="cls-33" d="m185.83,212.93h-54.17c-8.78,0-15.9-7.12-15.9-15.9v-105.75c0-8.78,7.12-15.9,15.9-15.9h54.17c8.78,0,15.9,7.12,15.9,15.9v105.75c0,8.78-7.12,15.9-15.9,15.9Z"/>
    <rect class="cls-34" x="126.51" y="89.82" width="64.49" height="101.88"/>
    <g class="cls-68">
      <g>
        <g>
          <path class="cls-12" d="m134.77,218.23l9.78,52.62c.68,3.65,4.19,6.06,7.84,5.38,3.65-.68,6.06-4.19,5.38-7.84l-9.78-52.62-13.22,2.46Z"/>
          <path class="cls-5" d="m151.35,185.6l-15.28,2.84c-3.65.68-6.06,4.19-5.38,7.84l4.08,21.95,13.22-2.46-2.85-15.33,8.67-1.61c3.65-.68,6.06-4.19,5.38-7.84-.68-3.65-4.19-6.06-7.84-5.38Z"/>
        </g>
        <g>
          <path class="cls-12" d="m213.56,203.58l9.78,52.62c.68,3.65-1.73,7.16-5.38,7.84-3.65.68-7.16-1.73-7.84-5.38l-9.78-52.62,13.22-2.46Z"/>
          <path class="cls-5" d="m186.36,179.09l15.28-2.84c3.65-.68,7.16,1.73,7.84,5.38l4.08,21.95-13.22,2.46-2.85-15.34-8.67,1.61c-3.65.68-7.16-1.73-7.84-5.38-.68-3.65,1.73-7.16,5.38-7.84Z"/>
        </g>
        <path class="cls-12" d="m191.77,152.34c1.58,8.49-4.07,16.72-12.56,18.3l-24.24,4.51c-8.48,1.58-16.72-4.07-18.3-12.56l-5.48-29.48c-1.58-8.49,4.07-16.72,12.56-18.29l24.24-4.51c8.49-1.58,16.72,4.07,18.3,12.56l5.48,29.48Z"/>
        <path class="cls-29" d="m207.6,237.46c1.58,8.48-4.07,16.72-12.56,18.3l-24.24,4.51c-8.48,1.58-16.72-4.07-18.3-12.56l-8.49-45.65c-1.58-8.49,4.07-16.72,12.56-18.29l24.24-4.51c8.48-1.58,16.72,4.07,18.3,12.56l8.49,45.65Z"/>
        <path class="cls-36" d="m157.81,183.54c1.12,6.01,6.9,9.99,12.92,8.87s9.99-6.9,8.87-12.92l-21.79,4.05Z"/>
        <path class="cls-12" d="m160.56,183.03c.84,4.49,5.16,7.46,9.65,6.62,4.49-.84,7.46-5.16,6.62-9.65l-16.27,3.03Z"/>
        <path class="cls-39" d="m175.65,102.04l-50.15,9.32,3.03,16.28c.84,4.49,5.16,7.46,9.65,6.62l50.15-9.32-3.03-16.28c-.84-4.49-5.16-7.46-9.65-6.63Z"/>
        <path class="cls-39" d="m124.97,128.72c-.78-4.22,2-8.27,6.22-9.06s8.27,2,9.06,6.22l3.17,17.06c.79,4.22-2,8.28-6.22,9.06s-8.27-2-9.06-6.22l-3.17-17.06Z"/>
        <path class="cls-39" d="m190.53,116.53c-.79-4.22-4.84-7-9.06-6.22-4.22.78-7,4.84-6.22,9.06l3.17,17.06c.78,4.22,4.84,7,9.06,6.22,4.22-.78,7-4.84,6.22-9.06l-3.17-17.06Z"/>
        <path class="cls-18" d="m159.59,146.4c-.26-1.38.65-2.71,2.03-2.96s2.71.65,2.96,2.03l1.04,5.58c.26,1.38-.65,2.71-2.03,2.96s-2.71-.65-2.96-2.03l-1.04-5.58Z"/>
        <path class="cls-12" d="m135.97,146.19c-3.84.71-6.37,4.4-5.65,8.24.71,3.84,4.4,6.37,8.24,5.65l-2.58-13.89Z"/>
        <path class="cls-12" d="m186.54,136.78c3.84-.71,7.52,1.82,8.24,5.65.71,3.84-1.82,7.52-5.65,8.24l-2.58-13.89Z"/>
        <path class="cls-25" d="m151.48,146.74c-.2-1.08-1.24-1.8-2.33-1.6-1.08.2-1.8,1.24-1.6,2.33.2,1.08,1.24,1.8,2.33,1.6,1.09-.2,1.8-1.24,1.6-2.33Z"/>
        <path class="cls-25" d="m172.27,142.88c-.2-1.08.51-2.12,1.6-2.33,1.08-.2,2.12.51,2.33,1.6.2,1.08-.51,2.12-1.6,2.33-1.08.2-2.12-.51-2.33-1.6Z"/>
        <g>
          <path class="cls-25" d="m153.73,158.84c1.07,5.74,6.59,9.53,12.33,8.46,5.74-1.07,9.53-6.59,8.46-12.33l-20.79,3.86Z"/>
          <path class="cls-18" d="m165.03,161.8c-2.68.5-4.87,2.1-6.22,4.24,2.11,1.23,4.65,1.73,7.24,1.25,2.59-.48,4.78-1.87,6.3-3.77-2.02-1.52-4.64-2.22-7.33-1.73Z"/>
        </g>
        <rect class="cls-12" x="162.29" y="170.78" width="10.82" height="10.82" transform="translate(-29.38 33.63) rotate(-10.53)"/>
        <g>
          <path class="cls-33" d="m139.54,143.53l.72,3.88c.92,4.97,5.7,8.25,10.67,7.33,4.97-.92,8.25-5.7,7.33-10.67l-.72-3.88-18,3.35Zm17.07.85c.75,4.05-1.93,7.96-5.98,8.71-4.05.75-7.96-1.93-8.71-5.98l-.41-2.23,14.69-2.73.42,2.23Z"/>
          <path class="cls-33" d="m164.25,138.93l.72,3.88c.92,4.97,5.7,8.25,10.67,7.32,4.97-.92,8.25-5.7,7.32-10.67l-.72-3.88-18,3.35Zm17.07.84c.75,4.05-1.93,7.96-5.98,8.71-4.05.75-7.96-1.93-8.71-5.98l-.41-2.23,14.69-2.73.42,2.23Z"/>
          <rect class="cls-2" x="157.66" y="139.56" width="6.83" height="1.96" transform="translate(-22.96 31.79) rotate(-10.53)"/>
          <rect class="cls-2" x="182.39" y="134.94" width="6.83" height="1.96" transform="translate(-21.72 36.25) rotate(-10.53)"/>
          <rect class="cls-2" x="132.97" y="144.13" width="6.83" height="1.96" transform="translate(-24.23 27.37) rotate(-10.53)"/>
        </g>
      </g>
    </g>
    <path class="cls-40" d="m164.56,202.63c0-3.21-2.6-5.81-5.81-5.81s-5.81,2.6-5.81,5.81,2.6,5.81,5.81,5.81,5.81-2.6,5.81-5.81Z"/>
    <path class="cls-40" d="m166.15,86.59h-14.81c-.49,0-.9-.4-.9-.9s.4-.9.9-.9h14.81c.49,0,.9.4.9.9s-.4.9-.9.9Z"/>
    <g>
      <path class="cls-40" d="m160.64,81.17c0-1.05-.85-1.9-1.9-1.9s-1.9.85-1.9,1.9.85,1.9,1.9,1.9c1.05,0,1.9-.85,1.9-1.9Z"/>
      <path class="cls-14" d="m160.09,81.17c0-.74-.6-1.34-1.34-1.34s-1.34.6-1.34,1.34.6,1.34,1.34,1.34c.74,0,1.34-.6,1.34-1.34Z"/>
      <path class="cls-40" d="m159.56,81.17c0-.45-.36-.81-.81-.81s-.81.36-.81.81.36.81.81.81c.45,0,.81-.36.81-.81Z"/>
      <path class="cls-33" d="m159.24,81.17c0-.27-.22-.49-.49-.49s-.49.22-.49.49.22.49.49.49c.27,0,.49-.22.49-.49Z"/>
      <path class="cls-40" d="m158.98,81.17c0-.13-.1-.23-.23-.23s-.23.1-.23.23.1.23.23.23c.13,0,.23-.1.23-.23Z"/>
      <path class="cls-28" d="m158.75,79.28c-1.05,0-1.9.85-1.9,1.9,0,.78.47,1.45,1.14,1.74l1.88-3.26c-.32-.23-.7-.38-1.13-.38Z"/>
    </g>
    <polygon class="cls-16" points="163.36 89.82 126.51 152.75 126.51 191.7 132.9 191.7 190.99 92.52 190.99 89.82 163.36 89.82"/>
    <polygon class="cls-16" points="159.75 191.7 173.32 191.7 190.99 161.52 190.99 138.35 159.75 191.7"/>
  </g>
  <g>
    <path class="cls-33" d="m611.4,463.77h-54.17c-8.78,0-15.9-7.12-15.9-15.9v-105.75c0-8.78,7.12-15.9,15.9-15.9h54.17c8.78,0,15.9,7.12,15.9,15.9v105.75c0,8.78-7.12,15.9-15.9,15.9Z"/>
    <rect class="cls-34" x="552.07" y="340.66" width="64.49" height="101.88"/>
    <g class="cls-66">
      <g>
        <path class="cls-32" d="m608.26,388.69c3.56,0,6.44,2.89,6.44,6.44s-2.89,6.44-6.44,6.44v-12.89Z"/>
        <g>
          <path class="cls-32" d="m548.26,453.09v48.81c0,3.39,2.75,6.13,6.13,6.13s6.13-2.75,6.13-6.13v-48.81h-12.27Z"/>
          <path class="cls-7" d="m568.57,426.6h-14.17c-3.39,0-6.13,2.75-6.13,6.13v20.36h12.27v-14.23h8.04c3.39,0,6.13-2.75,6.13-6.13,0-3.39-2.75-6.13-6.13-6.13Z"/>
        </g>
        <g>
          <path class="cls-32" d="m621.35,453.09v48.81c0,3.39-2.75,6.13-6.13,6.13s-6.13-2.75-6.13-6.13v-48.81h12.27Z"/>
          <path class="cls-7" d="m601.04,426.6h14.17c3.39,0,6.13,2.75,6.13,6.13v20.36h-12.27v-14.23h-8.04c-3.39,0-6.13-2.75-6.13-6.13,0-3.39,2.74-6.13,6.13-6.13Z"/>
        </g>
        <path class="cls-32" d="m610.36,403.51c0,7.87-6.44,14.31-14.31,14.31h-22.49c-7.87,0-14.31-6.44-14.31-14.31v-27.35c0-7.87,6.44-14.31,14.31-14.31h22.49c7.87,0,14.31,6.44,14.31,14.31v27.35Z"/>
        <path class="cls-20" d="m610.36,482.48c0,7.87-6.44,14.31-14.31,14.31h-22.49c-7.87,0-14.31-6.44-14.31-14.31v-42.35c0-7.87,6.44-14.31,14.31-14.31h22.49c7.87,0,14.31,6.44,14.31,14.31v42.35Z"/>
        <path class="cls-46" d="m574.7,425.82c0,5.58,4.53,10.11,10.1,10.11s10.11-4.52,10.11-10.11h-20.21Z"/>
        <path class="cls-32" d="m577.26,425.82c0,4.17,3.38,7.55,7.55,7.55s7.55-3.38,7.55-7.55h-15.1Z"/>
        <path class="cls-17" d="m554.39,371.2c0-3.91,3.17-7.09,7.09-7.09s7.09,3.17,7.09,7.09v15.83c0,3.91-3.17,7.09-7.09,7.09s-7.09-3.17-7.09-7.09v-15.83Z"/>
        <path class="cls-17" d="m570.92,377.23c-6.87,0-12.43-5.57-12.43-12.43s5.57-12.43,12.43-12.43h27.76c6.87,0,12.43,5.57,12.43,12.43s-5.57,12.43-12.43,12.43h-27.76Z"/>
        <path class="cls-17" d="m615.22,371.2c0-3.91-3.17-7.09-7.09-7.09s-7.09,3.17-7.09,7.09v15.83c0,3.91,3.17,7.09,7.09,7.09s7.09-3.17,7.09-7.09v-15.83Z"/>
        <path class="cls-30" d="m582.49,392.82c0-1.28,1.04-2.32,2.32-2.32s2.32,1.04,2.32,2.32v5.17c0,1.28-1.04,2.32-2.32,2.32s-2.32-1.04-2.32-2.32v-5.17Z"/>
        <path class="cls-32" d="m561.35,388.69c-3.56,0-6.44,2.89-6.44,6.44s2.89,6.44,6.44,6.44v-12.89Z"/>
        <path class="cls-17" d="m575.16,391.77c0-1.01-.82-1.82-1.82-1.82s-1.82.81-1.82,1.82.81,1.82,1.82,1.82c1.01,0,1.82-.81,1.82-1.82Z"/>
        <path class="cls-17" d="m594.45,391.77c0-1.01.81-1.82,1.82-1.82s1.82.81,1.82,1.82-.82,1.82-1.82,1.82c-1,0-1.82-.81-1.82-1.82Z"/>
        <g>
          <path class="cls-25" d="m575.16,403c0,5.33,4.32,9.64,9.64,9.64s9.64-4.32,9.64-9.64h-19.29Z"/>
          <path class="cls-30" d="m584.8,407.54c-2.49,0-4.72,1.07-6.28,2.77,1.69,1.45,3.88,2.33,6.28,2.33s4.59-.88,6.28-2.33c-1.56-1.7-3.79-2.77-6.28-2.77Z"/>
        </g>
        <rect class="cls-32" x="579.87" y="415.96" width="9.87" height="9.87"/>
      </g>
    </g>
    <path class="cls-40" d="m590.12,453.46c0-3.21-2.6-5.81-5.81-5.81s-5.81,2.6-5.81,5.81,2.6,5.81,5.81,5.81c3.21,0,5.81-2.6,5.81-5.81Z"/>
    <path class="cls-40" d="m591.72,337.43h-14.81c-.49,0-.9-.4-.9-.89s.4-.9.9-.9h14.81c.49,0,.9.4.9.9s-.4.89-.9.89Z"/>
    <g>
      <path class="cls-40" d="m586.21,332.01c0-1.05-.85-1.89-1.9-1.89s-1.9.85-1.9,1.89.85,1.9,1.9,1.9,1.9-.85,1.9-1.9Z"/>
      <path class="cls-14" d="m585.65,332.01c0-.74-.6-1.34-1.34-1.34s-1.34.6-1.34,1.34.6,1.34,1.34,1.34,1.34-.6,1.34-1.34Z"/>
      <path class="cls-40" d="m585.12,332.01c0-.45-.36-.81-.81-.81s-.81.36-.81.81.36.81.81.81c.45,0,.81-.36.81-.81Z"/>
      <path class="cls-33" d="m584.81,332.01c0-.27-.22-.49-.49-.49s-.49.22-.49.49.22.49.49.49.49-.22.49-.49Z"/>
      <path class="cls-40" d="m584.54,332.01c0-.13-.1-.23-.23-.23s-.23.1-.23.23.1.23.23.23.23-.1.23-.23Z"/>
      <path class="cls-28" d="m584.31,330.11c-1.05,0-1.9.85-1.9,1.89,0,.78.47,1.45,1.14,1.74l1.88-3.26c-.32-.23-.7-.38-1.13-.38Z"/>
    </g>
    <polygon class="cls-16" points="588.92 340.66 552.07 403.58 552.07 442.54 558.47 442.54 616.56 343.36 616.56 340.66 588.92 340.66"/>
    <polygon class="cls-16" points="585.31 442.54 598.88 442.54 616.56 412.36 616.56 389.19 585.31 442.54"/>
  </g>
  <g>
    <path class="cls-33" d="m484.85,617.46h-54.17c-8.78,0-15.9-7.12-15.9-15.9v-105.75c0-8.78,7.12-15.9,15.9-15.9h54.17c8.78,0,15.9,7.12,15.9,15.9v105.75c0,8.78-7.12,15.9-15.9,15.9Z"/>
    <rect class="cls-4" x="425.52" y="494.35" width="64.49" height="101.88"/>
    <g class="cls-70">
      <g>
        <g>
          <path class="cls-43" d="m423.29,687.34c-.27,0-.54-.02-.82-.06-3.27-.44-5.57-3.46-5.12-6.73l11.48-84.33c.25-1.8,1.3-3.4,2.86-4.33l7.02-4.19c2.84-1.69,6.51-.77,8.2,2.07,1.69,2.84.77,6.51-2.07,8.2l-4.54,2.71-11.09,81.48c-.41,3-2.97,5.18-5.92,5.18Z"/>
          <path class="cls-15" d="m446.92,589.78c-1.69-2.84-5.36-3.76-8.2-2.07l-7.02,4.19c-1.56.93-2.62,2.52-2.86,4.33l-3.56,26.13h12.07l2.95-21.66,4.54-2.71c2.84-1.69,3.77-5.37,2.07-8.2Z"/>
        </g>
        <g>
          <path class="cls-43" d="m491.96,687.34c.27,0,.54-.02.82-.06,3.27-.44,5.56-3.46,5.12-6.73l-11.48-84.33c-.25-1.8-1.3-3.4-2.86-4.33l-7.02-4.19c-2.84-1.69-6.51-.77-8.2,2.07-1.69,2.84-.77,6.51,2.07,8.2l4.54,2.71,11.09,81.48c.41,3,2.97,5.18,5.92,5.18Z"/>
          <path class="cls-15" d="m468.34,589.78c1.69-2.84,5.36-3.76,8.2-2.07l7.02,4.19c1.56.93,2.61,2.52,2.86,4.33l3.56,26.13h-12.07l-2.95-21.66-4.54-2.71c-2.84-1.69-3.76-5.37-2.07-8.2Z"/>
        </g>
        <path class="cls-3" d="m467.46,584.76h-19.34c-9.21,0-16.24,7.52-15.62,16.71l1.72,52.36.82,10.41c.61,9.19,7.46,18.5,16.67,18.5h12.16c9.21,0,16.05-9.31,16.67-18.5l.82-10.41,1.72-52.36c.61-9.19-6.41-16.71-15.63-16.71Z"/>
        <path class="cls-10" d="m488.91,536.08c0,4.98-5.78,32.45,0,34.84-3.39,4.78-23.35,8.06-31.11,8.06s-27.72-3.28-31.12-8.06c5.78-2.39,0-29.87,0-34.84h62.23Z"/>
        <path class="cls-10" d="m488.91,536.08c0-17.18-13.93-31.11-31.11-31.11s-31.12,13.93-31.12,31.11,13.93,31.11,31.12,31.11,31.11-13.93,31.11-31.11Z"/>
        <path class="cls-43" d="m480.96,558.8c-1.23,9.13-9.77,16.59-18.98,16.59h-8.97c-9.21,0-17.67-7.48-18.81-16.62l-3.04-24.48c-1.14-9.14,5.47-16.62,14.68-16.62h23.92c9.21,0,15.74,7.47,14.51,16.59l-3.3,24.52Z"/>
        <path class="cls-10" d="m479.48,545.26c0,3.77,3.06,6.83,6.83,6.83v-27.61l-1.22-1.55-5.6,1.55v20.78Z"/>
        <path class="cls-10" d="m436.11,545.26c0,3.77-3.06,6.83-6.83,6.83v-27.61l1.23-2.35,5.61,2.35v20.78Z"/>
        <path class="cls-30" d="m456.11,546.73c0-.93.75-1.68,1.68-1.68s1.68.75,1.68,1.68v5.42c0,.93-.75,1.68-1.68,1.68s-1.68-.75-1.68-1.68v-5.42Z"/>
        <path class="cls-43" d="m435.13,541.31c-4.16,0-7.54,3.37-7.54,7.54s3.38,7.54,7.54,7.54v-15.08Z"/>
        <path class="cls-43" d="m480.45,541.31c4.16,0,7.54,3.37,7.54,7.54s-3.37,7.54-7.54,7.54v-15.08Z"/>
        <path class="cls-25" d="m448.32,546.71c0-.99-.8-1.79-1.79-1.79s-1.79.8-1.79,1.79.8,1.79,1.79,1.79,1.79-.8,1.79-1.79Z"/>
        <path class="cls-25" d="m467.26,546.71c0-.99.8-1.79,1.79-1.79s1.79.8,1.79,1.79-.8,1.79-1.79,1.79c-.98,0-1.79-.8-1.79-1.79Z"/>
        <g>
          <path class="cls-25" d="m448.32,557.73c0,5.23,4.24,9.47,9.47,9.47s9.47-4.24,9.47-9.47h-18.95Z"/>
          <path class="cls-30" d="m457.79,562.2c-2.44,0-4.64,1.05-6.17,2.72,1.66,1.43,3.81,2.29,6.17,2.29s4.51-.86,6.17-2.29c-1.53-1.67-3.72-2.72-6.17-2.72Z"/>
        </g>
        <rect class="cls-43" x="452.02" y="573.22" width="11.54" height="11.54"/>
        <path class="cls-10" d="m477.96,515.3c-6.14-2.19-13.43-5.16-20.17-2.27-6.73-2.89-14.03.08-20.16,2.27-9.87,3.53-8.66,20.78-8.66,20.78,0,0,1.69,3.38,7.31,6.64,3.91-.34,23.19-3.29,30.98-10.47,1.79,6.88,8.13,10.13,12.04,10.47,5.62-3.26,7.31-6.64,7.31-6.64,0,0,1.21-17.25-8.66-20.78Z"/>
        <path class="cls-15" d="m470.71,621.4c-6.12,0-11.1-4.98-11.1-11.1,0-.68.55-1.24,1.24-1.24s1.24.55,1.24,1.24c0,4.76,3.87,8.63,8.63,8.63s8.63-3.87,8.63-8.63c0-.68.55-1.24,1.24-1.24s1.23.55,1.23,1.24c0,6.12-4.98,11.1-11.1,11.1Z"/>
        <path class="cls-15" d="m444.87,621.4c-6.12,0-11.11-4.98-11.11-11.1,0-.68.55-1.24,1.24-1.24s1.23.55,1.23,1.24c0,4.76,3.87,8.63,8.63,8.63s8.63-3.87,8.63-8.63c0-.68.55-1.24,1.23-1.24s1.24.55,1.24,1.24c0,6.12-4.98,11.1-11.1,11.1Z"/>
        <polygon class="cls-43" points="451.94 584.76 457.63 591.65 463.48 584.76 451.94 584.76"/>
        <path class="cls-11" d="m486.11,555.38c0-1.04-.84-1.89-1.89-1.89s-1.89.85-1.89,1.89.85,1.89,1.89,1.89c1.05,0,1.89-.85,1.89-1.89Z"/>
        <path class="cls-11" d="m429.47,555.38c0-1.04.85-1.89,1.89-1.89s1.89.85,1.89,1.89-.85,1.89-1.89,1.89-1.89-.85-1.89-1.89Z"/>
      </g>
    </g>
    <path class="cls-40" d="m463.58,607.15c0-3.21-2.6-5.81-5.81-5.81s-5.81,2.6-5.81,5.81,2.6,5.81,5.81,5.81,5.81-2.6,5.81-5.81Z"/>
    <path class="cls-40" d="m465.17,491.12h-14.81c-.49,0-.9-.4-.9-.9s.4-.9.9-.9h14.81c.49,0,.9.4.9.9s-.4.9-.9.9Z"/>
    <g>
      <path class="cls-40" d="m459.66,485.7c0-1.05-.85-1.9-1.9-1.9s-1.9.85-1.9,1.9.85,1.89,1.9,1.89c1.05,0,1.9-.85,1.9-1.89Z"/>
      <path class="cls-14" d="m459.11,485.7c0-.74-.6-1.34-1.34-1.34s-1.34.6-1.34,1.34.6,1.34,1.34,1.34c.74,0,1.34-.6,1.34-1.34Z"/>
      <path class="cls-40" d="m458.58,485.7c0-.45-.36-.81-.81-.81s-.81.36-.81.81.36.81.81.81c.45,0,.81-.36.81-.81Z"/>
      <path class="cls-33" d="m458.26,485.7c0-.27-.22-.49-.49-.49s-.49.22-.49.49.22.49.49.49.49-.22.49-.49Z"/>
      <path class="cls-40" d="m458,485.7c0-.13-.1-.23-.23-.23s-.23.1-.23.23.1.23.23.23c.13,0,.23-.1.23-.23Z"/>
      <path class="cls-28" d="m457.77,483.8c-1.05,0-1.9.85-1.9,1.9,0,.78.47,1.45,1.14,1.74l1.88-3.26c-.32-.24-.7-.38-1.13-.38Z"/>
    </g>
    <polygon class="cls-16" points="462.38 494.35 425.52 557.27 425.52 596.23 431.92 596.23 490.01 497.05 490.01 494.35 462.38 494.35"/>
    <polygon class="cls-16" points="458.77 596.23 472.34 596.23 490.01 566.05 490.01 542.88 458.77 596.23"/>
  </g>
  <g>
    <path class="cls-33" d="m290.73,623.26h-54.17c-8.78,0-15.9-7.12-15.9-15.9v-105.75c0-8.78,7.12-15.9,15.9-15.9h54.17c8.78,0,15.9,7.12,15.9,15.9v105.75c0,8.78-7.12,15.9-15.9,15.9Z"/>
    <rect class="cls-24" x="231.4" y="500.15" width="64.49" height="101.88"/>
    <g class="cls-63">
      <g>
        <g>
          <path class="cls-43" d="m229.1,605.98v46.14c0,3.2,2.6,5.8,5.8,5.8s5.8-2.6,5.8-5.8v-46.14h-11.6Z"/>
          <path class="cls-33" d="m248.29,580.94h-13.4c-3.2,0-5.8,2.6-5.8,5.8v19.25h11.6v-13.45h7.6c3.2,0,5.8-2.6,5.8-5.8s-2.6-5.8-5.8-5.8Z"/>
        </g>
        <g>
          <path class="cls-43" d="m298.19,605.98v46.14c0,3.2-2.6,5.8-5.8,5.8s-5.8-2.6-5.8-5.8v-46.14h11.6Z"/>
          <path class="cls-33" d="m278.99,580.94h13.4c3.2,0,5.8,2.6,5.8,5.8v19.25h-11.6v-13.45h-7.6c-3.2,0-5.8-2.6-5.8-5.8s2.6-5.8,5.8-5.8Z"/>
        </g>
        <path class="cls-43" d="m287.8,559.12c0,7.44-6.09,13.53-13.53,13.53h-21.26c-7.44,0-13.53-6.09-13.53-13.53v-25.85c0-7.44,6.09-13.53,13.53-13.53h21.26c7.44,0,13.53,6.09,13.53,13.53v25.85Z"/>
        <path class="cls-10" d="m287.8,633.76c0,7.44-6.09,13.53-13.53,13.53h-21.26c-7.44,0-13.53-6.09-13.53-13.53v-40.03c0-7.44,6.09-13.53,13.53-13.53h21.26c7.44,0,13.53,6.09,13.53,13.53v40.03Z"/>
        <path class="cls-33" d="m254.09,580.21c0,5.28,4.28,9.55,9.55,9.55s9.55-4.28,9.55-9.55h-19.1Z"/>
        <path class="cls-43" d="m256.51,580.21c0,3.94,3.19,7.14,7.14,7.14s7.14-3.2,7.14-7.14h-14.27Z"/>
        <path class="cls-45" d="m234.9,528.57c0-3.7,3-6.7,6.7-6.7s6.7,3,6.7,6.7v14.96c0,3.7-3,6.7-6.7,6.7s-6.7-3-6.7-6.7v-14.96Z"/>
        <path class="cls-45" d="m292.39,528.57c0-3.7-3-6.7-6.7-6.7s-6.7,3-6.7,6.7v14.96c0,3.7,3,6.7,6.7,6.7s6.7-3,6.7-6.7v-14.96Z"/>
        <path class="cls-30" d="m261.45,549.01c0-1.21.98-2.19,2.19-2.19s2.19.98,2.19,2.19v4.89c0,1.21-.98,2.19-2.19,2.19s-2.19-.98-2.19-2.19v-4.89Z"/>
        <path class="cls-43" d="m241.47,545.11c-3.36,0-6.09,2.73-6.09,6.09s2.73,6.09,6.09,6.09v-12.18Z"/>
        <path class="cls-43" d="m285.82,545.11c3.36,0,6.09,2.73,6.09,6.09s-2.73,6.09-6.09,6.09v-12.18Z"/>
        <path class="cls-25" d="m254.53,548.02c0-.95-.77-1.72-1.72-1.72s-1.72.77-1.72,1.72.77,1.72,1.72,1.72,1.72-.77,1.72-1.72Z"/>
        <path class="cls-25" d="m272.76,548.02c0-.95.77-1.72,1.72-1.72s1.72.77,1.72,1.72-.77,1.72-1.72,1.72-1.72-.77-1.72-1.72Z"/>
        <g>
          <path class="cls-25" d="m254.53,558.63c0,5.03,4.08,9.11,9.12,9.11s9.11-4.08,9.11-9.11h-18.23Z"/>
          <path class="cls-30" d="m263.64,562.92c-2.35,0-4.46,1.01-5.94,2.62,1.6,1.37,3.67,2.2,5.94,2.2s4.34-.83,5.94-2.2c-1.47-1.6-3.58-2.62-5.94-2.62Z"/>
        </g>
        <rect class="cls-43" x="258.98" y="570.88" width="9.33" height="9.33"/>
        <path class="cls-45" d="m292.39,528.57c0-8.83-7.25-14.63-13.4-14.63h-30.7c-6.14,0-13.4,5.8-13.4,14.63,5.37,6.88,30.73,11.35,35.88,11.03-2.47-2.17-4.76-5.36-4.95-6.65,2.19,2.58,9.47,6.02,13.16,6.67,4.43-.06,13.4-2.48,13.4-2.48v-8.56h0Z"/>
        <g>
          <path class="cls-33" d="m260.7,546.82c0,4.36-3.53,7.89-7.89,7.89s-7.89-3.53-7.89-7.89v-3.41h15.78v3.41h0Z"/>
          <path class="cls-33" d="m266.59,546.82c0,4.36,3.53,7.89,7.89,7.89s7.89-3.53,7.89-7.89v-3.41h-15.78v3.41Z"/>
          <rect class="cls-40" x="260.7" y="543.41" width="5.89" height="1.69"/>
          <rect class="cls-40" x="282.37" y="543.41" width="5.89" height="1.69"/>
          <rect class="cls-40" x="239.03" y="543.41" width="5.89" height="1.69"/>
        </g>
      </g>
    </g>
    <path class="cls-40" d="m269.46,612.96c0-3.21-2.6-5.81-5.81-5.81s-5.81,2.6-5.81,5.81,2.6,5.81,5.81,5.81,5.81-2.6,5.81-5.81Z"/>
    <path class="cls-40" d="m271.05,496.92h-14.81c-.49,0-.9-.4-.9-.9s.4-.9.9-.9h14.81c.49,0,.89.4.89.9s-.4.9-.89.9Z"/>
    <g>
      <path class="cls-40" d="m265.54,491.5c0-1.05-.85-1.9-1.89-1.9s-1.9.85-1.9,1.9.85,1.9,1.9,1.9c1.05,0,1.89-.85,1.89-1.9Z"/>
      <path class="cls-14" d="m264.99,491.5c0-.74-.6-1.34-1.34-1.34s-1.34.6-1.34,1.34.6,1.34,1.34,1.34c.74,0,1.34-.6,1.34-1.34Z"/>
      <path class="cls-40" d="m264.46,491.5c0-.45-.36-.81-.81-.81s-.81.36-.81.81.36.81.81.81.81-.36.81-.81Z"/>
      <path class="cls-33" d="m264.14,491.5c0-.27-.22-.49-.49-.49s-.49.22-.49.49.22.49.49.49.49-.22.49-.49Z"/>
      <circle class="cls-40" cx="263.65" cy="491.5" r=".23"/>
      <path class="cls-28" d="m263.65,489.6c-1.05,0-1.9.85-1.9,1.9,0,.78.47,1.45,1.14,1.74l1.88-3.25c-.32-.24-.7-.38-1.13-.38Z"/>
    </g>
    <polygon class="cls-16" points="268.26 500.15 231.4 563.07 231.4 602.03 237.8 602.03 295.89 502.85 295.89 500.15 268.26 500.15"/>
    <polygon class="cls-16" points="264.64 602.03 278.21 602.03 295.89 571.85 295.89 548.68 264.64 602.03"/>
  </g>
  <g>
    <path class="cls-33" d="m146.12,535.64h-54.17c-8.78,0-15.9-7.12-15.9-15.9v-105.75c0-8.78,7.12-15.9,15.9-15.9h54.17c8.78,0,15.9,7.12,15.9,15.9v105.75c0,8.78-7.12,15.9-15.9,15.9Z"/>
    <rect class="cls-30" x="86.79" y="412.53" width="64.49" height="101.88"/>
    <g class="cls-64">
      <g>
        <path class="cls-37" d="m152.76,505.87c-12.13,10.34-54.52,11.03-68.42-.85,10.79-14.14,6.46-54.34,6.46-54.34h58.84s-5.47,44.73,3.12,55.19Z"/>
        <g>
          <path class="cls-22" d="m152.84,593.7c-2.79,0-5.21-2.06-5.59-4.89l-10.49-77.04-4.29-2.56c-2.68-1.6-3.56-5.07-1.96-7.75s5.07-3.56,7.75-1.96l6.63,3.96c1.48.88,2.47,2.39,2.71,4.09l10.85,79.74c.42,3.09-1.75,5.94-4.84,6.36-.26.04-.52.05-.77.05Z"/>
          <path class="cls-22" d="m87.61,593.7c-.25,0-.51-.02-.77-.05-3.1-.42-5.26-3.27-4.84-6.36l10.85-79.74c.23-1.71,1.23-3.21,2.71-4.09l6.63-3.96c2.68-1.6,6.15-.72,7.75,1.96s.72,6.15-1.96,7.75l-4.29,2.56-10.49,77.04c-.38,2.84-2.81,4.89-5.6,4.89Z"/>
        </g>
        <path class="cls-21" d="m129.37,496.71h-18.28c-8.71,0-15.35,7.11-14.77,15.8l1.63,49.51.77,9.84c.58,8.69,7.05,17.49,15.76,17.49h11.5c8.71,0,15.18-8.8,15.76-17.49l.78-9.84,1.63-49.51c.58-8.69-6.06-15.8-14.77-15.8Z"/>
        <path class="cls-37" d="m149.64,450.68c0-16.25-13.17-29.42-29.42-29.42s-29.42,13.17-29.42,29.42,13.17,29.42,29.42,29.42,29.42-13.17,29.42-29.42Z"/>
        <path class="cls-22" d="m142.13,472.17c-1.16,8.63-9.24,15.69-17.95,15.69h-8.48c-8.71,0-16.71-7.07-17.79-15.71l-2.88-23.14c-1.07-8.64,5.17-15.71,13.88-15.71h22.62c8.71,0,14.88,7.06,13.72,15.69l-3.12,23.18Z"/>
        <path class="cls-37" d="m140.73,459.36c0,3.57,2.89,6.46,6.46,6.46v-26.1l-1.16-1.46-5.3,1.46v19.65Z"/>
        <path class="cls-37" d="m99.72,459.36c0,3.57-2.89,6.46-6.46,6.46v-26.1l1.16-2.22,5.3,2.22v19.65Z"/>
        <path class="cls-18" d="m118.64,460.75c0-.88.71-1.59,1.59-1.59s1.59.71,1.59,1.59v5.13c0,.88-.71,1.59-1.59,1.59s-1.59-.71-1.59-1.59v-5.13Z"/>
        <path class="cls-22" d="m98.8,455.63c-3.94,0-7.13,3.19-7.13,7.13s3.19,7.13,7.13,7.13v-14.26Z"/>
        <path class="cls-22" d="m141.65,455.63c3.94,0,7.13,3.19,7.13,7.13s-3.19,7.13-7.13,7.13v-14.26Z"/>
        <path class="cls-25" d="m111.27,460.73c0-.93-.76-1.69-1.69-1.69s-1.69.76-1.69,1.69.76,1.69,1.69,1.69c.93,0,1.69-.76,1.69-1.69Z"/>
        <circle class="cls-25" cx="130.87" cy="460.73" r="1.69"/>
        <g>
          <path class="cls-25" d="m111.27,471.16c0,4.95,4.01,8.96,8.96,8.96s8.95-4.01,8.95-8.96h-17.91Z"/>
          <path class="cls-18" d="m120.22,475.38c-2.31,0-4.38,1-5.84,2.57,1.57,1.35,3.61,2.16,5.84,2.16s4.27-.82,5.83-2.16c-1.45-1.58-3.52-2.57-5.83-2.57Z"/>
        </g>
        <rect class="cls-22" x="114.76" y="485.79" width="10.92" height="10.91"/>
        <path class="cls-37" d="m147.36,441.41c-.94,4.01-40.98,14.98-47.48,15.55-5.32-3.08-6.91-6.28-6.91-6.28,0,0-1.15-16.31,8.18-19.65,9.33-3.34,37.99-8.57,46.21,10.37Z"/>
        <path class="cls-42" d="m132.44,531.35c-5.79,0-10.5-4.71-10.5-10.5,0-.65.52-1.17,1.17-1.17s1.17.52,1.17,1.17c0,4.5,3.66,8.16,8.16,8.16s8.16-3.66,8.16-8.16c0-.65.52-1.17,1.17-1.17s1.17.52,1.17,1.17c0,5.79-4.71,10.5-10.5,10.5Z"/>
        <path class="cls-42" d="m108,531.35c-5.79,0-10.5-4.71-10.5-10.5,0-.65.52-1.17,1.17-1.17s1.17.52,1.17,1.17c0,4.5,3.66,8.16,8.16,8.16s8.16-3.66,8.16-8.16c0-.65.52-1.17,1.17-1.17s1.17.52,1.17,1.17c0,5.79-4.71,10.5-10.5,10.5Z"/>
        <polygon class="cls-18" points="149.83 605.39 142.51 562.02 97.94 562.02 90.62 605.39 149.83 605.39"/>
        <polygon class="cls-22" points="114.76 496.71 120.15 503.23 125.68 496.71 114.76 496.71"/>
      </g>
    </g>
    <path class="cls-40" d="m124.85,525.34c0-3.21-2.6-5.81-5.81-5.81s-5.81,2.6-5.81,5.81,2.6,5.81,5.81,5.81c3.21,0,5.81-2.6,5.81-5.81Z"/>
    <path class="cls-40" d="m126.44,409.3h-14.81c-.49,0-.9-.4-.9-.89s.4-.9.9-.9h14.81c.49,0,.9.4.9.9,0,.49-.4.89-.9.89Z"/>
    <g>
      <path class="cls-40" d="m120.93,403.88c0-1.05-.85-1.89-1.9-1.89s-1.9.85-1.9,1.89.85,1.89,1.9,1.89c1.05,0,1.9-.85,1.9-1.89Z"/>
      <path class="cls-14" d="m120.37,403.88c0-.74-.6-1.34-1.34-1.34s-1.34.6-1.34,1.34.6,1.34,1.34,1.34c.74,0,1.34-.6,1.34-1.34Z"/>
      <path class="cls-40" d="m119.84,403.88c0-.45-.36-.81-.81-.81s-.81.36-.81.81.36.81.81.81c.45,0,.81-.36.81-.81Z"/>
      <path class="cls-33" d="m119.53,403.88c0-.27-.22-.49-.49-.49s-.49.22-.49.49.22.49.49.49.49-.22.49-.49Z"/>
      <path class="cls-40" d="m119.27,403.88c0-.13-.1-.23-.23-.23s-.23.1-.23.23.1.23.23.23.23-.1.23-.23Z"/>
      <path class="cls-28" d="m119.03,401.99c-1.05,0-1.9.85-1.9,1.89,0,.78.47,1.45,1.14,1.74l1.88-3.26c-.32-.23-.7-.38-1.13-.38Z"/>
    </g>
    <polygon class="cls-16" points="123.64 412.53 86.79 475.46 86.79 514.41 93.19 514.41 151.28 415.23 151.28 412.53 123.64 412.53"/>
    <polygon class="cls-16" points="120.03 514.41 133.6 514.41 151.28 484.23 151.28 461.06 120.03 514.41"/>
  </g>
  <g>
    <path class="cls-33" d="m460.35,182.31h-54.17c-8.78,0-15.9-7.12-15.9-15.9V60.66c0-8.78,7.12-15.9,15.9-15.9h54.17c8.78,0,15.9,7.12,15.9,15.9v105.75c0,8.78-7.12,15.9-15.9,15.9Z"/>
    <rect class="cls-27" x="401.02" y="59.2" width="64.49" height="101.88"/>
    <g class="cls-69">
      <g>
        <g>
          <path class="cls-22" d="m398.24,182.56l2.13,50.8c.15,3.53,3.13,6.26,6.65,6.11,3.52-.15,6.26-3.13,6.11-6.65l-2.13-50.8-12.77.54Z"/>
          <path class="cls-38" d="m418.21,154.1l-14.75.62c-3.52.15-6.26,3.13-6.11,6.65l.89,21.19,12.77-.54-.62-14.81,8.37-.35c3.52-.15,6.26-3.13,6.11-6.65s-3.13-6.26-6.65-6.11Z"/>
        </g>
        <g>
          <path class="cls-22" d="m474.31,179.37l2.13,50.8c.15,3.52-2.59,6.5-6.11,6.65-3.53.15-6.5-2.59-6.65-6.11l-2.13-50.8,12.77-.54Z"/>
          <path class="cls-38" d="m452.01,152.68l14.75-.62c3.53-.15,6.5,2.59,6.65,6.12l.89,21.19-12.77.54-.62-14.81-8.37.35c-3.53.15-6.5-2.59-6.65-6.12-.15-3.52,2.59-6.5,6.11-6.65Z"/>
        </g>
        <path class="cls-22" d="m460.7,128.25c.34,8.19-6.08,15.18-14.27,15.52l-23.41.98c-8.19.34-15.18-6.08-15.52-14.27l-1.19-28.46c-.35-8.19,6.08-15.18,14.27-15.52l23.41-.98c8.19-.34,15.17,6.08,15.52,14.27l1.2,28.46Z"/>
        <path class="cls-18" d="m464.15,210.43c.34,8.19-6.08,15.18-14.27,15.52l-23.41.98c-8.19.34-15.18-6.08-15.52-14.27l-1.85-44.07c-.34-8.19,6.08-15.18,14.27-15.52l23.41-.98c8.19-.34,15.17,6.08,15.52,14.27l1.85,44.07Z"/>
        <path class="cls-33" d="m424.57,153.03c.24,5.81,5.15,10.32,10.96,10.07,5.81-.24,10.32-5.15,10.08-10.96l-21.03.88Z"/>
        <path class="cls-22" d="m427.22,152.92c.18,4.34,3.85,7.71,8.19,7.53,4.34-.18,7.71-3.85,7.53-8.19l-15.71.66Z"/>
        <path class="cls-37" d="m448.23,78.95l-.16-3.93-38.16,1.6c-3.42.14-6.08,3.03-5.93,6.45l.89,21.31,48.42-2.03c4.34-.18,7.71-3.85,7.53-8.19l-.66-15.72-11.92.5Z"/>
        <path class="cls-37" d="m401.04,97.07c-.17-4.07,2.99-7.51,7.07-7.68,4.07-.17,7.52,2.99,7.69,7.07l.69,16.47c.17,4.07-2.99,7.51-7.07,7.69-4.07.17-7.51-2.99-7.68-7.07l-.69-16.47Z"/>
        <path class="cls-37" d="m464.34,94.41c-.17-4.07-3.61-7.24-7.68-7.07-4.07.17-7.24,3.61-7.07,7.68l.69,16.47c.17,4.07,3.61,7.24,7.69,7.07,4.07-.17,7.24-3.61,7.07-7.69l-.69-16.47Z"/>
        <path class="cls-18" d="m431.23,118.34c-.06-1.33.98-2.46,2.31-2.51s2.46.98,2.51,2.31l.23,5.38c.06,1.33-.98,2.46-2.31,2.51-1.33.06-2.46-.98-2.51-2.31l-.23-5.39Z"/>
        <path class="cls-22" d="m409.05,114.97c-3.7.15-6.58,3.28-6.42,6.99.15,3.7,3.28,6.58,6.99,6.42l-.56-13.41Z"/>
        <path class="cls-22" d="m457.87,112.92c3.7-.15,6.83,2.72,6.99,6.42.16,3.7-2.72,6.83-6.42,6.99l-.56-13.41Z"/>
        <path class="cls-25" d="m423.56,117.57c-.04-1.05-.93-1.86-1.97-1.81-1.05.04-1.86.93-1.82,1.97.04,1.05.93,1.86,1.98,1.81,1.04-.04,1.86-.93,1.81-1.97Z"/>
        <path class="cls-25" d="m443.63,116.73c-.04-1.05.77-1.93,1.81-1.97,1.04-.04,1.93.77,1.97,1.81.04,1.05-.77,1.93-1.81,1.97-1.05.04-1.93-.77-1.97-1.81Z"/>
        <g>
          <path class="cls-25" d="m424.05,129.25c.23,5.54,4.91,9.85,10.45,9.61s9.85-4.91,9.61-10.46l-20.07.84Z"/>
          <path class="cls-18" d="m434.28,133.56c-2.59.11-4.87,1.32-6.42,3.16,1.82,1.44,4.14,2.26,6.64,2.15,2.5-.1,4.74-1.12,6.44-2.7-1.7-1.7-4.07-2.72-6.66-2.61Z"/>
        </g>
        <rect class="cls-22" x="429.71" y="142.33" width="10.28" height="10.28" transform="translate(-5.8 18.35) rotate(-2.4)"/>
      </g>
    </g>
    <path class="cls-40" d="m439.07,172.01c0-3.21-2.6-5.81-5.81-5.81s-5.81,2.6-5.81,5.81,2.6,5.81,5.81,5.81,5.81-2.6,5.81-5.81Z"/>
    <path class="cls-40" d="m440.66,55.97h-14.81c-.49,0-.9-.4-.9-.9s.4-.9.9-.9h14.81c.49,0,.9.4.9.9s-.4.9-.9.9Z"/>
    <g>
      <path class="cls-40" d="m435.16,50.55c0-1.05-.85-1.89-1.89-1.89s-1.89.85-1.89,1.89.85,1.9,1.89,1.9c1.05,0,1.89-.85,1.89-1.9Z"/>
      <path class="cls-14" d="m434.6,50.55c0-.74-.6-1.34-1.34-1.34s-1.34.6-1.34,1.34.6,1.34,1.34,1.34,1.34-.6,1.34-1.34Z"/>
      <path class="cls-40" d="m434.07,50.55c0-.45-.36-.81-.81-.81s-.81.36-.81.81.36.81.81.81.81-.36.81-.81Z"/>
      <path class="cls-33" d="m433.76,50.55c0-.27-.22-.49-.49-.49s-.49.22-.49.49.22.49.49.49c.27,0,.49-.22.49-.49Z"/>
      <path class="cls-40" d="m433.49,50.55c0-.13-.1-.23-.23-.23s-.23.1-.23.23.1.23.23.23c.13,0,.23-.11.23-.23Z"/>
      <path class="cls-28" d="m433.26,48.65c-1.05,0-1.89.85-1.89,1.89,0,.78.47,1.45,1.14,1.74l1.88-3.25c-.32-.24-.7-.38-1.13-.38Z"/>
    </g>
    <polygon class="cls-16" points="437.87 59.2 401.02 122.12 401.02 161.08 407.42 161.08 465.51 61.9 465.51 59.2 437.87 59.2"/>
    <polygon class="cls-16" points="434.26 161.08 447.83 161.08 465.51 130.9 465.51 107.73 434.26 161.08"/>
  </g>
  <g>
    <path class="cls-44" d="m434.3,339.24c-2.21-63.73-55.67-113.6-119.4-111.39s-113.6,55.67-111.39,119.4,55.67,113.6,119.4,111.39c63.73-2.21,113.6-55.67,111.39-119.4Z"/>
    <path class="cls-49" d="m339.07,270.41c-.09.72.58,2.95.98,4.36.41,1.41.16,4.51-.66,5.01-.81.5,1.24,1.5,2.75.5,1.51-1,1.91.17,3.05-1.17,1.14-1.35,2.39-2.93,2.36-3.88-.03-.95-.75-1.04-1.63-2.44-.88-1.39-3.11-3.93-3.14-4.88s-.63-5.09-1.34-4.71c-.71.38-2.62.09-2.62.09-1.15,1.11-1.16.88-1.12,2.06s-1.01,1.69-.86,2.52c.15.83,2.32,1.82,2.23,2.54Zm-79.41-18.06c-1.37,1.59-5.84,6.38-5.74,9.23.1,2.85,1.96,3.14,3.25,2.03,1.3-1.11,1.34-3.26,2.26-4.12.92-.86,4.23-4.9,6.49-4.62,2.27.28,9,5.87,11.95,5.41,2.95-.46,4.67-2.3,4.65-3.01-.02-.71-4.21-1.64-4.51-3.17-.29-1.53-1.7-4.58-3.13-4.64-1.43-.07-6.53.23-7.04-.83s-5.84-3.84-6.11-4.78c-.07-.24-.08-.54-.09-.88-2.15,1.23-4.25,2.52-6.31,3.88.33.21.68.39,1.06.53.62.22,4.63,3.39,3.26,4.98Zm65.3,3.73c-.81.73-2.82,1.05-2.99,1.05-.18,0-.9,1.52-.51,2.51.39,1,2.35,2.59,4.06,2.18,1.71-.42,3.96-.56,4.71-3.02.75-2.46-.27-1.05-.97-2.28-.7-1.22-3.2-1.43-4.29-.44Zm10.88,22.5c.59-.2,1.52-.83,1.62-1.13s.27-.72.61-1.27c.34-.55,0-1.9-.07-2.14-.07-.23-1.97-.73-2.34-.63-.35.09-1.52.53-1.49,1.42.03.89-.47.25.07,1.9.53,1.65,1.02,2.04,1.61,1.85Zm-46.16,99.32c-4.69-2.85-10.52-6.45-11.21-8.01-.69-1.56-2.85-4.49-5.39-4.72-2.54-.23-5.59-1.39-6.08-6.13-.48-4.74-3.27-3.06-4.7-3.01s-5.48,1.93-8.42-.66c-2.94-2.59-5.55-4.56-7.96-1.15-2.42,3.41-5.19,5.73-7.92,4.71-2.73-1.01-5.92-1.54-5.56-4.88.36-3.34-.54-6.48-2.75-6.08-2.2.39-4.29-.33-2.97-3.38,1.32-3.06,4.27-4.9,2.49-5.95-1.78-1.05-5.92-1.7-6.48.54-.56,2.24-3.62,5.2-5.72,4-2.1-1.19-3.12-3.06-3.01-4.49.11-1.43-1.71-8.18,3.73-11.06,5.45-2.88,7.76-.11,8.83-1.1,1.08-.99.83-3.52,3.22-2.96,2.4.55,7.04,6.57,9.39,5.69,2.35-.87-1.92-9.76.59-10.48,2.51-.72,7.44-4.69,8.33-6.63.88-1.93,1.21-6.22,2.46-6.74,1.25-.52,5.82-1.31,6.58-2.29s1.72-5.13,3.31-5.18,7.78.52,9.26-2.54c1.48-3.06,2.84-5.01.11-5.87-2.72-.86-8.6-1.13-2.94-2.59,5.65-1.46,9.97-.35,12.1-2.96,2.13-2.61-.84-5.99-1.95-6.11-1.11-.12-2.42-1.18-2.15-2.62s.27-6.03-1.17-6.45c-1.44-.42-5.17,1.61-5.22.18-.05-1.42-5.43-5.83-7.15-5.3s-3.48,4.87-4.83,6.82c-1.36,1.95.33,4.9.33,4.9,0,0-3.11,1.85-4.21,1.89-1.11.04-3.26,6.61-3.62,5.35-.36-1.26-.62-4.1-2.39-4.99-1.77-.89-5.93-1.85-6.64-4.21-.71-2.35,1.1-4.95,4.86-6.19,3.76-1.24,8.3-7.26,8.55-9.33.25-2.07-1.02-2.02.83-3.36,1.86-1.33,1.14-3.68-2.98-3.7-.57,0-1.18.06-1.82.15-28.01,21.16-45.98,54.73-45.95,92.21,2.55,3.4,6.41,7.1,11.52,8.86,8.34,2.88,8.93,1.59,11.59,5.3,2.66,3.71,5.2,3.78,6.51,5,1.31,1.22,7.61.21,7.37,2.44-.24,2.23-2.46,11.33-4.48,12.36-2.02,1.02.59,3.31-.62,4.93s-1.34,7.02,1.46,10.09,2.92,11.15,10.95,14.35c8.03,3.21,7.12,8.94,7.26,12.74.13,3.8,2.28,10.85,1.73,13.41-.31,1.47-1,4.25-1.48,6.86,5.28,3.49,10.86,6.55,16.68,9.15.14-.29.22-.62.21-1.02-.1-3.01,1.78-3.39,2.85-4.54,1.07-1.15.05-3.17,5.84-5.11,5.79-1.94,4.13-8.7,4.98-11.58.85-2.88-2.26-5.62,1.17-7.49,3.42-1.86,6.47-.86,7.81-3.28,1.34-2.42,3.42-6.46,2.56-8.48-.86-2.03-2.05-9.28-.2-10.45,1.85-1.17,4.85-6.03,4.17-12.03-.69-5.99-6.95-4.03-11.65-6.88Zm30.19-126.27c3.54-4.11,6.58-12.41,6.77-13.84.19-1.43-9.09-5.15-9.29-7.4-.08-.85-.49-1.73-1.24-2.55-.41,0-.82.01-1.23.03-14.27.5-27.83,3.57-40.28,8.74.09.42.17.82.23,1.2.14.85,4.83,5.77,8.89,6.11,4.05.33,7.32,2.12,7.64,4.37.32,2.25,2.67,5.14-.51,5.84-3.18.7-2.44,5.08-1.58,5.88s2.54,8.23,4.55,7.92c2.01-.31,6.4-4.02,7.27-6.08.88-2.05,2.25-3.52,4.51-3.6,2.25-.08,10.73-2.51,14.27-6.61Zm-48.42,8.47c-1.67-.3-1.9-1.36-4.13.14-2.23,1.5-1.87,1.73-.89,2.41s2.16,4.08,5.21,2.79,2.73-3.1,2.22-4.59c-.51-1.49-2.4-.75-2.4-.75Zm118.68-7.71c-2.14,3.84-4.72,8.83-6.41,7.37-2.2-1.9-4.41-3.84-2.54-4.8,1.77-.91,5.47-1.73,5.94-4.86-1.01-.74-2.04-1.46-3.08-2.17-2.78.11-6.62,1.15-8.08.62-2.41-.87-10.26-1.28-12.35.09-2.09,1.37-7.93,4.2-7.64,5.96.3,1.76-1.51,4.48-5.05,5.18-3.54.7-1.7,5.86-1.17,7.51.53,1.65,4.4,3.65,5.03,1.25.63-2.4,4.09,1.5,6.45.83,2.35-.66,2.85-6.94,2.54-8.91s2.23-4.05,2.7-4.38c.46-.33,4.76-4.13,3.87-.13s-1.67,7.83.27,7.64c1.94-.19,6.29-1.39,3.07,1.56-3.23,2.96-4.22,5.13-4.31,5.97-.09.83-5.9,4.72-7.58,4.07-1.69-.65-4.76-.07-4.91-1.14-.16-1.06-.61-3.9-1.41-3.04-.8.86-2.89,2.36-2.27,3.05s1.03,2.22-.29,2.03-3.64-.42-3.65.15c0,.57-.55,5.58-3.94,7s-6.27.81-6.12,1.76c.15.95,1.98,2.31,2.49,3.36.51,1.05,1.68,3.98-.33,4.05-2.02.07-5.8.68-7.52,2.52-1.72,1.84-2.05,2.45-1.88,3.99.17,1.54.47,6.64,2.12,6.34,1.65-.3,3.97,1.29,4.35,2.11.38.82,2.37-.2,4.23-1.22,1.86-1.02,2.88-2.71,3.31-4.04.43-1.32,1.15-4.55,3.28-4.75,2.13-.19.64-2.16,3.71-2.62,3.07-.46,3.61-2.26,5.45-.55,1.84,1.72,4.42,4.12,5.85,4.08,1.42-.05-1.02,2.17-1.37,3.49-.36,1.32.86,2.35,1.9,1.24,1.03-1.11.7-1.98,1.52-2.43.82-.44,1.01.02,1.2.26.19.23,1.02-1.52.71-1.93s-2.91-3.35-3.06-4.17c-.15-.83-1.73-1.9-.91-2.17.82-.27,2.98.25,3.85,1.23s1.9,1.54,1.83,3.14c-.06,1.61.29,3.14,1.03,4.06.74.92,2.92,5.3,4.33,4.78,1.41-.52.32-2.68.22-4.05-.11-1.36-.24-3.56,1.12-3.72,1.36-.17,2.56.15,2.9,1.56.35,1.41,1.99,4.15,3.03,5.06,1.04.92,4.24.62,5.13.65.89.03,5.99-.15,6.25,2.1.26,2.25-2.36,5.55-5.33,5.77s-8.32-.13-10.27-1.31c-1.94-1.18-5.3-2.01-7.01-.05-1.71,1.96-2.57,4.76-4.14,2.12-1.58-2.64-7.87-5.8-8.42-6.44-.56-.63-5.49-.64-7.69-.62-2.2.02-10.01-.31-14.15,5.86-4.14,6.17-8.96,8.95-9.94,10.41s-3.79,9.56-4.21,10.92c-.43,1.36,1,3.77,1.58,4.38.58.61-1.46,3.69-2.38,4.6-.92.9-.47,2.39.58,5.37,1.05,2.97,2.52,6.49,3.9,7.47,1.38.98,4.5,4.04,5.92,6.13,1.42,2.09,3.76,5.49,5.42,5.44,1.66-.06,3.86-5.36,4.98-5.01,1.12.36,1.8,1.76,2.36,1.74.55-.02,2.47.39,2.98-.9.51-1.29,2.56-1.67,4.27-.31,1.71,1.37,7.69-1.1,7.85.08.16,1.18,3.19,2.98,2.42,4.55-.78,1.57-3.67,3.93-2.78,5.44.88,1.51,4.48,5.79,4.53,7.33.05,1.54,1.82,7.9,1.56,10.76-.26,2.86,3.02,1.44.18,8.67-2.84,7.23.4,11.51,1.15,12.56.75,1.04,4.23,8.77,4.35,12.21.12,3.44-.65,12.02,3.24,11.17,3.89-.85,1.77-.42,5.5-2.57,3.73-2.15,6.97-1.07,8-2.42,1.02-1.34,6.59-5.34,6.55-6.41-.04-1.07-.02-4.04.4-5.48.42-1.44,5.7-3.64,5.76-5.31.06-1.67-5.39-4.57-4.49-6.14.9-1.58,8-5.74,10.11-6.41,2.11-.67,1.37-4.92.86-6.09-.52-1.17-4.04-13.64-2.19-15.25,1.85-1.61,3.21-6.65,4.7-8.48,1.48-1.83,6.19-6.63,6.6-8.31.42-1.68,2.31-8.75,2.34-11.37.03-2.61-.36-3.55-2.49-3.24-2.13.31-8.44,6.71-10.18.95-1.74-5.76-3.89-5.81-4.07-7.7-.19-1.89-2.47-9.42-4.87-10.29-2.41-.87-3.6-4.39-3.65-5.81-.05-1.42-1.95-4.8-1-4.96s5.11,3.39,5.5,4.32,1.55.3,2.51,3.95c.96,3.65,2,2.78,3.9,6.4,1.91,3.62,4.16,6.75,3.72,7.95-.43,1.2,1.41,6.37,2.22,5.86.81-.5,3.77-4.41,5.07-4.57,1.3-.17,8.35-5.99,9.6-7.46,1.26-1.47,1.84-5.05,1.79-6.48-.05-1.42-2.21-5.51-3.28-5.59-1.07-.08-2.38,3.29-3.57,3.21-1.19-.08-3.1-3.58-4.17-3.78-1.08-.2-2.59-2.64-2.62-3.59s-.98-4.24.09-4.28c1.07-.04,2.89,4.42,3.85,4.74.96.32,4.82-1.59,6.04-.57,1.22,1.03,5.43,5.87,6.74,5.83.76-.03,1.69-1.2,2.56-2.76-4.95-28.9-20.57-53.99-42.56-71.25Zm-163.01,79.06c-.77-.29-1.82.78-2.01,1.3-.19.52,2.48.53,3.21.71.73.18,2.81,1.13,3.66,1.93.85.79,2.74,2.06,3.66,2.03.92-.03,2.24-.49,1.07-1.58s-3.46-2.14-4.09-2.53c-.63-.39-4.26-1.39-5.5-1.86Z"/>
  </g>
  <circle class="cls-41" cx="578.5" cy="69.07" r="7"/>
  <path class="cls-41" d="m658.73,493.24c0-3.86,3.13-7,7-7s7,3.14,7,7-3.13,7-7,7-7-3.14-7-7Z"/>
  <circle class="cls-41" cx="18.8" cy="154.45" r="7"/>
  <path class="cls-41" d="m112.27,31.71c0-3.87,3.13-7,7-7s7,3.13,7,7-3.13,7-7,7-7-3.13-7-7Z"/>
  <circle class="cls-41" cx="634.3" cy="271.12" r="7"/>
  <circle class="cls-41" cx="40.84" cy="433.3" r="7"/>
  <circle class="cls-41" cx="175.37" cy="575.35" r="7"/>
  <circle class="cls-41" cx="576.01" cy="528.57" r="7"/>
  <circle class="cls-41" cx="375.87" cy="637.89" r="7"/>
  <circle class="cls-41" cx="654.08" cy="162.49" r="7"/>
  <circle class="cls-41" cx="369.76" cy="62.07" r="7"/>
  <circle class="cls-41" cx="397.55" cy="7" r="7"/>
  <circle class="cls-41" cx="64.79" cy="208.44" r="7"/>
  <circle class="cls-41" cx="105.33" cy="561.48" r="7"/>
  <g>
    <path class="cls-26" d="m523.11,51.64h-49.29c-8.45,0-15.29,6.85-15.29,15.29v23.6c0,3.72,1.33,7.12,3.53,9.77-.73,3.04-2.24,5.97-5.35,7.6,3.88.77,8.04-.63,11.63-3.09,1.7.65,3.55,1.01,5.48,1.01h49.29c8.45,0,15.29-6.85,15.29-15.29v-23.6c0-8.45-6.85-15.29-15.29-15.29Z"/>
    <g>
      <rect class="cls-31" x="471" y="66.85" width="54.69" height="1.47"/>
      <rect class="cls-31" x="471" y="71.75" width="54.69" height="1.47"/>
      <rect class="cls-31" x="471" y="76.65" width="54.69" height="1.47"/>
      <rect class="cls-31" x="471" y="81.55" width="54.69" height="1.47"/>
      <rect class="cls-31" x="471" y="86.44" width="54.69" height="1.47"/>
    </g>
  </g>
  <g>
    <path class="cls-26" d="m15.29,451.67h49.29c8.44,0,15.29,6.85,15.29,15.29v23.6c0,3.72-1.33,7.12-3.53,9.77.73,3.04,2.24,5.97,5.35,7.6-3.88.77-8.04-.63-11.63-3.09-1.7.65-3.55,1.02-5.48,1.02H15.29c-8.44,0-15.29-6.85-15.29-15.29v-23.6c0-8.45,6.85-15.29,15.29-15.29Z"/>
    <g>
      <rect class="cls-8" x="12.71" y="466.87" width="54.69" height="1.47"/>
      <rect class="cls-8" x="12.71" y="471.77" width="54.69" height="1.47"/>
      <rect class="cls-8" x="12.71" y="476.67" width="54.69" height="1.47"/>
      <rect class="cls-8" x="12.71" y="481.57" width="54.69" height="1.47"/>
      <rect class="cls-8" x="12.71" y="486.47" width="54.69" height="1.47"/>
    </g>
  </g>
  <g>
    <path class="cls-26" d="m679.63,294.25h-49.29c-8.45,0-15.29,6.85-15.29,15.29v23.6c0,3.72,1.33,7.12,3.53,9.77-.73,3.04-2.24,5.97-5.35,7.6,3.88.77,8.04-.63,11.63-3.09,1.7.65,3.55,1.02,5.48,1.02h49.29c8.45,0,15.29-6.85,15.29-15.29v-23.6c0-8.45-6.85-15.29-15.29-15.29Z"/>
    <g>
      <rect class="cls-8" x="627.52" y="309.45" width="54.69" height="1.47"/>
      <rect class="cls-8" x="627.52" y="314.35" width="54.69" height="1.47"/>
      <rect class="cls-8" x="627.52" y="319.25" width="54.69" height="1.47"/>
      <rect class="cls-8" x="627.52" y="324.15" width="54.69" height="1.47"/>
      <rect class="cls-8" x="627.52" y="329.05" width="54.69" height="1.47"/>
    </g>
  </g>
  <g>
    <path class="cls-26" d="m54.19,120.4h49.29c8.44,0,15.29,6.85,15.29,15.29v23.6c0,3.72-1.33,7.12-3.53,9.77.73,3.04,2.24,5.97,5.35,7.6-3.88.77-8.04-.63-11.63-3.09-1.7.65-3.55,1.01-5.48,1.01h-49.29c-8.44,0-15.29-6.85-15.29-15.29v-23.6c0-8.45,6.85-15.29,15.29-15.29Z"/>
    <g>
      <rect class="cls-48" x="51.6" y="135.61" width="54.69" height="1.47"/>
      <rect class="cls-48" x="51.6" y="140.51" width="54.69" height="1.47"/>
      <rect class="cls-48" x="51.6" y="145.41" width="54.69" height="1.47"/>
      <rect class="cls-48" x="51.6" y="150.3" width="54.69" height="1.47"/>
      <rect class="cls-48" x="51.6" y="155.2" width="54.69" height="1.47"/>
    </g>
  </g>
  <g>
    <path class="cls-21" d="m603.64,161.08c0-9.34-7.57-16.9-16.9-16.9s-16.9,7.57-16.9,16.9,7.57,16.9,16.9,16.9c9.33,0,16.9-7.57,16.9-16.9Z"/>
    <polygon class="cls-26" points="582.38 153.79 582.38 157.7 585.53 157.7 585.53 169.01 590.06 169.01 590.06 153.79 582.38 153.79"/>
  </g>
  <g>
    <path class="cls-21" d="m126.53,243.15c0-9.33-7.57-16.9-16.9-16.9s-16.9,7.57-16.9,16.9,7.57,16.9,16.9,16.9,16.9-7.57,16.9-16.9Z"/>
    <polygon class="cls-26" points="110.66 234.66 110.66 241.18 107.58 241.18 107.58 234.66 103.05 234.66 103.05 245.09 110.66 245.09 110.66 251.09 115.2 251.09 115.2 234.66 110.66 234.66"/>
  </g>
</svg>