<?xml version="1.0" encoding="utf-8"?>
<!-- Generator: Adobe Illustrator 28.0.0, SVG Export Plug-In . SVG Version: 6.00 Build 0)  -->
<svg version="1.1" id="Ebene_1" xmlns="http://www.w3.org/2000/svg" xmlns:xlink="http://www.w3.org/1999/xlink" x="0px" y="0px"
	 viewBox="0 0 800 800" style="enable-background:new 0 0 800 800;" xml:space="preserve">
<style type="text/css">
	.st0{fill:#3E7999;}
	.st1{fill:#79919E;}
	.st2{fill:#577586;}
	.st3{fill:#90AFC2;}
	.st4{fill:#BCCFDA;}
	.st5{fill:#FFFFFF;}
	.st6{fill:#5B998D;}
	.st7{fill-rule:evenodd;clip-rule:evenodd;fill:#B6D8D5;}
	.st8{fill-rule:evenodd;clip-rule:evenodd;fill:#712728;}
	.st9{fill-rule:evenodd;clip-rule:evenodd;fill:#F8F6DB;}
	.st10{fill-rule:evenodd;clip-rule:evenodd;fill:#E3D9BE;}
	.st11{fill-rule:evenodd;clip-rule:evenodd;fill:#F95361;}
	.st12{fill:#600816;}
	.st13{fill-rule:evenodd;clip-rule:evenodd;fill:#600816;}
	.st14{fill:#712728;}
	.st15{fill:#2C5871;}
	.st16{fill-rule:evenodd;clip-rule:evenodd;fill:#E61A4B;}
	.st17{fill:#F95361;}
	.st18{fill:#F8F6DB;}
	.st19{fill:#E3D9BE;}
	.st20{fill-rule:evenodd;clip-rule:evenodd;fill:#2C5871;}
	.st21{fill:#0F303F;}
</style>
<g id="Layer_2">
	<g>
		<path class="st0" d="M51,718c0,5,4,9,9,9h682c5,0,9-4,9-9V36c0-5-4-9-9-9H60c-5,0-9,4-9,9V718z"/>
	</g>
</g>
<g id="Layer_1">
	<g>
		<g>
			<path class="st1" d="M400,228.5c-88.8,0-160.8,71.9-160.8,160.7c0,88.7,72,160.7,160.8,160.7c0.2,0,0.4,0,0.6,0V228.5
				C400.4,228.5,400.2,228.5,400,228.5z"/>
			<path class="st2" d="M560.8,389.2c0-88.6-71.7-160.4-160.2-160.7v321.4C489.1,549.5,560.8,477.7,560.8,389.2z"/>
			<path class="st3" d="M550.3,330.9l-8.4,0.1l-4.2-4.6l-0.8-7.4l-4.3,2.4l-2.3,9.1l-6.2-6.6l-0.3-6.3l-6-5.2l-2.2-2.2h-7l2.2,6.2
				l8.4,4.7l1.5,1.5l-1.8,0.9l0.1,4.9l-4.1,1.7l-3.5-0.8l-2.2-3.1l5.7,0.3l1.5-2.1l-12.6-8.5l-1-3.6l-5.1,4.6l-5.2-1.1l-7.9,10.2
				l-1.5,4l-5,0.5l-7.5,0l-4.5-2.1l-1.3-8.9l1.6-4.2l7.6-1.7l8.3,1.7l1-4.6l-3.5-0.8l1.2-7.1l8.3-1.3l5.8-8.2l6-1l5.4,0.8h2
				l-1.1-7.7l-6.6,2.7l-2.3-5.8l-3.8-0.5l-0.7-4l3.1-3.4l7.4-2.9l1.9-3.4c-28.3-24.9-65.4-40.1-105.9-40.2v29l3.1,1.4v5.8l4.8,1.2
				l-2.4,4.5h-5.5v21l3.3,2l-0.3,5.6l-3.1,1v3.9l4.7,2.1l-0.1,3.9l-2.1,0.2c0-0.1,0-0.1,0-0.1l-2.5-0.8v107.9l4,1.5l14.2,0.1
				l4.2,6.8l6.3,2l-1.2,5.6l-6.9,8.8l-2,19.4l-6.2,4.9l-9.2-0.3l-3.1,5.3v0l2.3,10l-2.3,2.9V550c50.2-0.1,95-23.3,124.5-59.5h-5.3
				v-10.7l-6.1-8.3v-12.9l-4.7-4.7l-0.4-5.4l6-11.4l-11.3-19.9l1.3-13.5l-10.2-1.1l-3.7-3.7h-6.8l-3.5,3.2h-12l-0.4,1.1h-6.7
				l-15.4-17.5l0.1-13.6l2.5-0.9l0.9-5.2h-3.6l-1.5-5.5l17.8-12.8v-9.1l8.7-4.8l3.5,0.4h7.2l5.6-3l18.1-1.4v9.2l14.2,3.6l2.8,2h2.6
				v-5l8.2-0.8l7.8,5.8h12.8l0.9-0.8C553.4,339.3,551.9,335.1,550.3,330.9z M474.3,285.1l1.5-2.3l5.3-1.1l1.3,6.4l2.8,4.5l1.9,2.1
				l3.4,1.3l-3.2,3.8l-6.2,0.6h-4.7l0.5-5.5l3.9-0.8l-0.3-2.6l-3.6-2.3l-2.5-1.7L474.3,285.1L474.3,285.1z M465.6,295.1l3.2-5.1
				l4.3-1l3.1,1.3l-0.3,3.5l-6.6,4.7h-3.7L465.6,295.1L465.6,295.1z"/>
			<g>
				<g>
					<polygon class="st4" points="400.6,470.9 400.6,471 400.6,470.9 					"/>
					<path class="st4" d="M392.8,493.8l-3.2,5.9l-9.6,4.6l-6.3,1l-0.3,2.7l4.4,1.3l-0.5,2.9l-4,3.8l2.4,3l4.8,0.1l-0.3,3.7l-1.3,3.6
						l-0.4,2.9l7,5.9l-0.9,3.1l-9.6-0.2l-9.5-8.3l-7.4-13.1l1-12.6l-5.6-7.5l2.3-12.7l-3.3-0.9v-27.6c0,0-9.4-7.1-9.9-7.1
						c-0.5,0-4.9-1.2-4.9-1.2l-0.9-5.2l-12.2-15.3l1.2-5.5l0.4-9l8.4-5.9l-1.2-10l-12.3-0.9l-9.6-11l-6.8-1.9l-4.4-0.8l0.5-4
						l-5.6-0.8v2.3l-14-3.5l-5.7-8.6l2.3-4.2l-8.9-13l-1.5-9.5h-3.6l1.2,9.2l6.2,9.5l-0.7,3.8l-5.2-0.8l-6.4-10.9v-12.7l-6.7-3.2
						V326c-8.3,19.4-12.9,40.7-12.9,63c0,88.8,72.2,161,161,161c0.1,0,0.2,0,0.4,0v-66.1L392.8,493.8z"/>
					<path class="st4" d="M394.1,306.8l-0.4-2.9h0l2.6-1.8v-2.6l-2.8-0.7l-0.7,2.4l-4.9,0.8l-0.5-0.2v0.2l-1.7,0.3l-1.4-2.8
						l-1.6-0.7h-3.5l-1.6,1.3v2.9l3,1l3,0.4l-0.7,0.3l-2.7,3l-1.2-1.5l-2.6-0.7l-7.1,6.7l0.9,0.8l-10.5,5.8l-9.9,10.3l-0.7,4.6
						l-9.9,6.5l-4.9,4.9l0.5,9.9l-6.8-3.2l0.1-5.8l-19,0l-9.8,5l-4.3,7.9l-1.7,6.2l2.8,6.1l7.7,0.9L316,364l1.1,4.1l-3.8,7.1
						l9.4,1.6l0.9,14.5l12.9,2.2l8.2-9.4l9.9,2l3.5,4.8l9.5-0.6l0.3-2.8l5.2,2.5l5.9,9.2l10.2,0.1l3.8,6.6l0.5,8l7.2,2.8V308.8
						L394.1,306.8z M378.1,314.9l-3.3,0.3l0.2-2.3l1.5-1.9l2,1.6L378.1,314.9z M389.9,310.8l-2.3,0.2l-0.5,2.2l-1.8,1.1l-2.8,0.2
						c-0.1-0.7-0.2-1.2-0.2-1.2h-1.1V311h4.6l1-2.5l1.8,0l2.1,0.4L389.9,310.8z"/>
					<path class="st4" d="M400.2,228c-35.3,0-68,11.5-94.6,30.8l8.1-0.1l3.6,2l6.8,1.5l0.5,2.7l10.8,0.4l-1.5-3.5l-9.6-0.3l2.3-2.1
						l-0.8-2.5h-8.7l9.5-7.1h9.1l4.3,5.9l7.1,0.4l4.3-4.2l3.2,1.6l-5.9,5.8c0,0-8.2,0.1-7.8,0.1s0.7,5.6,0.7,5.6l9.9-0.3l1.1-2.7
						l6.8-0.4l0.8-4l-4-0.7l1.3-3.6l3.1-0.9l10.7,0.5l-5.9,5.4l1,4.1l6.2,0.9l-0.4-7.5l5.9-3.1l10.4-1.2l12,5.3v-29
						C400.5,228,400.3,228,400.2,228z"/>
					<polygon class="st4" points="399.2,269.9 397.2,275.1 381.6,271.4 393.9,264.9 389.2,260.9 378.6,262.3 377.7,263.2 
						377.7,263.2 377.5,263.4 374.5,266.6 369.4,267 369.8,269.5 371.6,270.2 371.5,271.1 367.4,271.7 367.1,274 363.2,274.2 
						362.5,269.5 355.5,271.7 341.1,280.1 342.8,286 346.8,288.6 354.8,289.7 354.8,298.8 358.5,298.2 361.9,291.1 370.4,288.4 
						370.4,277.4 375.2,273.9 386.7,276.6 385.9,283.8 388.9,283.8 397.4,279.6 397.8,289.1 400.6,290.9 400.6,269.9 					"/>
					<polygon class="st4" points="397.8,300.5 398.2,302.4 400.6,303.5 400.6,299.6 					"/>
				</g>
			</g>
		</g>
		<g>
			<g>
				<g>
					
						<rect x="395.3" y="169.1" transform="matrix(0.6903 -0.7236 0.7236 0.6903 0.1496 339.6221)" class="st5" width="3" height="1"/>
				</g>
				<g>
					<path class="st5" d="M176.1,401.7l-0.7-0.7l4.1-4.3l0.7,0.7L176.1,401.7z M184.2,393.1l-0.7-0.7l4.1-4.3l0.7,0.7L184.2,393.1z
						 M192.4,384.6l-0.7-0.7l4.1-4.3l0.7,0.7L192.4,384.6z M200.5,376.1l-0.7-0.7l4.1-4.3l0.7,0.7L200.5,376.1z M208.7,367.5
						l-0.7-0.7l4.1-4.3l0.7,0.7L208.7,367.5z M216.8,359l-0.7-0.7l4.1-4.3l0.7,0.7L216.8,359z M225,350.4l-0.7-0.7l4.1-4.3l0.7,0.7
						L225,350.4z M233.1,341.9l-0.7-0.7l4.1-4.3l0.7,0.7L233.1,341.9z M241.2,333.4l-0.7-0.7l4.1-4.3l0.7,0.7L241.2,333.4z
						 M249.4,324.8l-0.7-0.7l4.1-4.3l0.7,0.7L249.4,324.8z M257.5,316.3l-0.7-0.7l4.1-4.3l0.7,0.7L257.5,316.3z M265.7,307.7
						L265,307l4.1-4.3l0.7,0.7L265.7,307.7z M273.8,299.2l-0.7-0.7l4.1-4.3l0.7,0.7L273.8,299.2z M282,290.7l-0.7-0.7l4.1-4.3
						l0.7,0.7L282,290.7z M290.1,282.1l-0.7-0.7l4.1-4.3l0.7,0.7L290.1,282.1z M298.3,273.6l-0.7-0.7l4.1-4.3l0.7,0.7L298.3,273.6z
						 M306.4,265l-0.7-0.7l4.1-4.3l0.7,0.7L306.4,265z M314.6,256.5l-0.7-0.7l4.1-4.3l0.7,0.7L314.6,256.5z M322.7,247.9l-0.7-0.7
						l4.1-4.3l0.7,0.7L322.7,247.9z M330.9,239.4l-0.7-0.7l4.1-4.3l0.7,0.7L330.9,239.4z M339,230.9l-0.7-0.7l4.1-4.3l0.7,0.7
						L339,230.9z M347.2,222.3l-0.7-0.7l4.1-4.3l0.7,0.7L347.2,222.3z M355.3,213.8l-0.7-0.7l4.1-4.3l0.7,0.7L355.3,213.8z
						 M363.5,205.2l-0.7-0.7l4.1-4.3l0.7,0.7L363.5,205.2z M371.6,196.7l-0.7-0.7l4.1-4.3l0.7,0.7L371.6,196.7z M379.8,188.2
						l-0.7-0.7l4.1-4.3l0.7,0.7L379.8,188.2z M387.9,179.6l-0.7-0.7l4.1-4.3l0.7,0.7L387.9,179.6z"/>
				</g>
				<g>
					<polygon class="st5" points="172.2,409.3 168.7,408 171.3,405.3 172,406 170.4,407.6 172.5,408.3 					"/>
				</g>
				<g>
					<path class="st5" d="M595.8,560.4l-5.7-2l0.3-0.9l5.7,2L595.8,560.4z M584.3,556.4l-5.7-2l0.3-0.9l5.7,2L584.3,556.4z
						 M572.9,552.3l-5.7-2l0.3-0.9l5.7,2L572.9,552.3z M561.4,548.2l-5.7-2l0.3-0.9l5.7,2L561.4,548.2z M550,544.1l-5.7-2l0.3-0.9
						l5.7,2L550,544.1z M538.5,540l-5.7-2l0.3-0.9l5.7,2L538.5,540z M527.1,535.9l-5.7-2l0.3-0.9l5.7,2L527.1,535.9z M515.6,531.8
						l-5.7-2l0.3-0.9l5.7,2L515.6,531.8z M504.2,527.8l-5.7-2l0.3-0.9l5.7,2L504.2,527.8z M492.8,523.7l-5.7-2l0.3-0.9l5.7,2
						L492.8,523.7z M481.3,519.6l-5.7-2l0.3-0.9l5.7,2L481.3,519.6z M469.9,515.5l-5.7-2l0.3-0.9l5.7,2L469.9,515.5z M458.4,511.4
						l-5.7-2l0.3-0.9l5.7,2L458.4,511.4z M447,507.3l-5.7-2l0.3-0.9l5.7,2L447,507.3z M435.5,503.2l-5.7-2l0.3-0.9l5.7,2
						L435.5,503.2z M424.1,499.2l-5.7-2l0.3-0.9l5.7,2L424.1,499.2z M412.6,495.1l-5.7-2l0.3-0.9l5.7,2L412.6,495.1z M401.2,491
						l-5.7-2l0.3-0.9l5.7,2L401.2,491z M389.7,486.9l-5.7-2l0.3-0.9l5.7,2L389.7,486.9z M378.3,482.8l-5.7-2l0.3-0.9l5.7,2
						L378.3,482.8z M366.8,478.7l-5.7-2l0.3-0.9l5.7,2L366.8,478.7z M355.4,474.6l-5.7-2l0.3-0.9l5.7,2L355.4,474.6z M343.9,470.6
						l-5.7-2l0.3-0.9l5.7,2L343.9,470.6z M332.5,466.5l-5.7-2l0.3-0.9l5.7,2L332.5,466.5z M321,462.4l-5.7-2l0.3-0.9l5.7,2
						L321,462.4z M309.6,458.3l-5.7-2l0.3-0.9l5.7,2L309.6,458.3z M298.1,454.2l-5.7-2l0.3-0.9l5.7,2L298.1,454.2z M286.7,450.1
						l-5.7-2l0.3-0.9l5.7,2L286.7,450.1z M275.2,446l-5.7-2l0.3-0.9l5.7,2L275.2,446z M263.8,442l-5.7-2l0.3-0.9l5.7,2L263.8,442z
						 M252.3,437.9l-5.7-2l0.3-0.9l5.7,2L252.3,437.9z M240.9,433.8l-5.7-2l0.3-0.9l5.7,2L240.9,433.8z M229.5,429.7l-5.7-2l0.3-0.9
						l5.7,2L229.5,429.7z M218,425.6l-5.7-2l0.3-0.9l5.7,2L218,425.6z M206.6,421.5l-5.7-2l0.3-0.9l5.7,2L206.6,421.5z M195.1,417.4
						l-5.7-2l0.3-0.9l5.7,2L195.1,417.4z M183.7,413.4l-5.7-2l0.3-0.9l5.7,2L183.7,413.4z"/>
				</g>
				<g>
					<polygon class="st5" points="606.9,564.4 601.5,562.5 601.8,561.5 602.1,561.6 601.9,561.5 602.5,560.7 					"/>
				</g>
				<g>
					<path class="st5" d="M597.3,557.6l-4.6-3.9l0.6-0.8l4.6,3.9L597.3,557.6z M588.1,549.8l-4.6-3.9l0.6-0.8l4.6,3.9L588.1,549.8z
						 M579,542.1l-4.6-3.9l0.6-0.8l4.6,3.9L579,542.1z M569.8,534.3l-4.6-3.9l0.6-0.8l4.6,3.9L569.8,534.3z M560.6,526.5l-4.6-3.9
						l0.6-0.8l4.6,3.9L560.6,526.5z M551.4,518.8l-4.6-3.9l0.6-0.8l4.6,3.9L551.4,518.8z M542.3,511l-4.6-3.9l0.6-0.8l4.6,3.9
						L542.3,511z M533.1,503.3l-4.6-3.9l0.6-0.8l4.6,3.9L533.1,503.3z M523.9,495.5l-4.6-3.9l0.6-0.8l4.6,3.9L523.9,495.5z
						 M514.8,487.7l-4.6-3.9l0.6-0.8l4.6,3.9L514.8,487.7z M505.6,480l-4.6-3.9l0.6-0.8l4.6,3.9L505.6,480z M496.4,472.2l-4.6-3.9
						l0.6-0.8l4.6,3.9L496.4,472.2z M487.2,464.4l-4.6-3.9l0.6-0.8l4.6,3.9L487.2,464.4z M478.1,456.7l-4.6-3.9l0.6-0.8l4.6,3.9
						L478.1,456.7z M468.9,448.9l-4.6-3.9l0.6-0.8l4.6,3.9L468.9,448.9z M459.7,441.2l-4.6-3.9l0.6-0.8l4.6,3.9L459.7,441.2z
						 M450.6,433.4l-4.6-3.9l0.6-0.8l4.6,3.9L450.6,433.4z M441.4,425.6l-4.6-3.9l0.6-0.8l4.6,3.9L441.4,425.6z M432.2,417.9
						l-4.6-3.9l0.6-0.8l4.6,3.9L432.2,417.9z M423,410.1l-4.6-3.9l0.6-0.8l4.6,3.9L423,410.1z M413.9,402.4l-4.6-3.9l0.6-0.8
						l4.6,3.9L413.9,402.4z M404.7,394.6l-4.6-3.9l0.6-0.8l4.6,3.9L404.7,394.6z M395.5,386.8l-4.6-3.9l0.6-0.8l4.6,3.9L395.5,386.8
						z M386.3,379.1l-4.6-3.9l0.6-0.8l4.6,3.9L386.3,379.1z M377.2,371.3l-4.6-3.9l0.6-0.8l4.6,3.9L377.2,371.3z M368,363.5
						l-4.6-3.9l0.6-0.8l4.6,3.9L368,363.5z M358.8,355.8l-4.6-3.9l0.6-0.8l4.6,3.9L358.8,355.8z M349.7,348l-4.6-3.9l0.6-0.8
						l4.6,3.9L349.7,348z M340.5,340.3l-4.6-3.9l0.6-0.8l4.6,3.9L340.5,340.3z M331.3,332.5l-4.6-3.9l0.6-0.8l4.6,3.9L331.3,332.5z
						 M322.1,324.7l-4.6-3.9l0.6-0.8l4.6,3.9L322.1,324.7z M313,317l-4.6-3.9l0.6-0.8l4.6,3.9L313,317z M303.8,309.2l-4.6-3.9
						l0.6-0.8l4.6,3.9L303.8,309.2z M294.6,301.5l-4.6-3.9l0.6-0.8l4.6,3.9L294.6,301.5z M285.5,293.7l-4.6-3.9l0.6-0.8l4.6,3.9
						L285.5,293.7z M276.3,285.9l-4.6-3.9l0.6-0.8l4.6,3.9L276.3,285.9z M267.1,278.2l-4.6-3.9l0.6-0.8l4.6,3.9L267.1,278.2z
						 M257.9,270.4l-4.6-3.9l0.6-0.8l4.6,3.9L257.9,270.4z M248.8,262.6l-4.6-3.9l0.6-0.8l4.6,3.9L248.8,262.6z M239.6,254.9
						L235,251l0.6-0.8l4.6,3.9L239.6,254.9z M230.4,247.1l-4.6-3.9l0.6-0.8l4.6,3.9L230.4,247.1z"/>
				</g>
				<g>
					<polygon class="st5" points="220.1,240 217.9,235.2 221.9,238.6 221.3,239.4 220.7,238.9 221,239.5 					"/>
				</g>
				<g>
					<path class="st5" d="M403.1,630.8l-2.5-5.4l0.9-0.4l2.5,5.4L403.1,630.8z M398,619.9l-2.5-5.4l0.9-0.4l2.5,5.4L398,619.9z
						 M392.9,609.1l-2.5-5.4l0.9-0.4l2.5,5.4L392.9,609.1z M387.8,598.2l-2.5-5.4l0.9-0.4l2.5,5.4L387.8,598.2z M382.7,587.4
						l-2.5-5.4l0.9-0.4l2.5,5.4L382.7,587.4z M377.6,576.5l-2.5-5.4l0.9-0.4l2.5,5.4L377.6,576.5z M372.6,565.7l-2.5-5.4l0.9-0.4
						l2.5,5.4L372.6,565.7z M367.5,554.8l-2.5-5.4l0.9-0.4l2.5,5.4L367.5,554.8z M362.4,544l-2.5-5.4l0.9-0.4l2.5,5.4L362.4,544z
						 M357.3,533.1l-2.5-5.4l0.9-0.4l2.5,5.4L357.3,533.1z M352.2,522.2l-2.5-5.4l0.9-0.4l2.5,5.4L352.2,522.2z M347.2,511.4
						l-2.5-5.4l0.9-0.4l2.5,5.4L347.2,511.4z M342.1,500.5l-2.5-5.4l0.9-0.4l2.5,5.4L342.1,500.5z M337,489.7l-2.5-5.4l0.9-0.4
						l2.5,5.4L337,489.7z M331.9,478.8l-2.5-5.4l0.9-0.4l2.5,5.4L331.9,478.8z M326.8,468l-2.5-5.4l0.9-0.4l2.5,5.4L326.8,468z
						 M321.7,457.1l-2.5-5.4l0.9-0.4l2.5,5.4L321.7,457.1z M316.7,446.2l-2.5-5.4l0.9-0.4l2.5,5.4L316.7,446.2z M311.6,435.4
						L309,430l0.9-0.4l2.5,5.4L311.6,435.4z M306.5,424.5l-2.5-5.4l0.9-0.4l2.5,5.4L306.5,424.5z M301.4,413.7l-2.5-5.4l0.9-0.4
						l2.5,5.4L301.4,413.7z M296.3,402.8l-2.5-5.4l0.9-0.4l2.5,5.4L296.3,402.8z M291.3,392l-2.5-5.4l0.9-0.4l2.5,5.4L291.3,392z
						 M286.2,381.1l-2.5-5.4l0.9-0.4l2.5,5.4L286.2,381.1z M281.1,370.2l-2.5-5.4l0.9-0.4l2.5,5.4L281.1,370.2z M276,359.4l-2.5-5.4
						l0.9-0.4l2.5,5.4L276,359.4z M270.9,348.5l-2.5-5.4l0.9-0.4l2.5,5.4L270.9,348.5z M265.8,337.7l-2.5-5.4l0.9-0.4l2.5,5.4
						L265.8,337.7z M260.8,326.8l-2.5-5.4l0.9-0.4l2.5,5.4L260.8,326.8z M255.7,316l-2.5-5.4l0.9-0.4l2.5,5.4L255.7,316z
						 M250.6,305.1l-2.5-5.4l0.9-0.4l2.5,5.4L250.6,305.1z M245.5,294.2l-2.5-5.4l0.9-0.4l2.5,5.4L245.5,294.2z M240.4,283.4
						l-2.5-5.4l0.9-0.4l2.5,5.4L240.4,283.4z M235.4,272.5l-2.5-5.4l0.9-0.4l2.5,5.4L235.4,272.5z M230.3,261.7l-2.5-5.4l0.9-0.4
						l2.5,5.4L230.3,261.7z M225.2,250.8l-2.5-5.4l0.9-0.4l2.5,5.4L225.2,250.8z"/>
				</g>
				<g>
					<polygon class="st5" points="407.3,639.9 405.6,636.2 406.5,635.8 407.3,637.6 408.2,635.8 409.1,636.3 					"/>
				</g>
				<g>
					<path class="st5" d="M411.8,630.9l-0.9-0.4l2.7-5.4l0.9,0.4L411.8,630.9z M417.1,620.2l-0.9-0.4l2.7-5.4l0.9,0.4L417.1,620.2z
						 M422.4,609.5l-0.9-0.4l2.7-5.4l0.9,0.4L422.4,609.5z M427.8,598.8l-0.9-0.4l2.7-5.4l0.9,0.4L427.8,598.8z M433.1,588.1
						l-0.9-0.4l2.7-5.4l0.9,0.4L433.1,588.1z M438.4,577.4l-0.9-0.4l2.7-5.4l0.9,0.4L438.4,577.4z M443.7,566.7l-0.9-0.4l2.7-5.4
						l0.9,0.4L443.7,566.7z M449.1,556l-0.9-0.4l2.7-5.4l0.9,0.4L449.1,556z M454.4,545.3l-0.9-0.4l2.7-5.4l0.9,0.4L454.4,545.3z
						 M459.7,534.6l-0.9-0.4l2.7-5.4l0.9,0.4L459.7,534.6z M465.1,523.9l-0.9-0.4l2.7-5.4l0.9,0.4L465.1,523.9z M470.4,513.2
						l-0.9-0.4l2.7-5.4l0.9,0.4L470.4,513.2z M475.7,502.5l-0.9-0.4l2.7-5.4l0.9,0.4L475.7,502.5z M481,491.8l-0.9-0.4l2.7-5.4
						l0.9,0.4L481,491.8z M486.4,481.1l-0.9-0.4l2.7-5.4l0.9,0.4L486.4,481.1z M491.7,470.4l-0.9-0.4l2.7-5.4l0.9,0.4L491.7,470.4z
						 M497,459.7l-0.9-0.4l2.7-5.4l0.9,0.4L497,459.7z M502.4,449l-0.9-0.4l2.7-5.4l0.9,0.4L502.4,449z M507.7,438.3l-0.9-0.4
						l2.7-5.4l0.9,0.4L507.7,438.3z M513,427.6l-0.9-0.4l2.7-5.4l0.9,0.4L513,427.6z M518.3,416.9l-0.9-0.4l2.7-5.4l0.9,0.4
						L518.3,416.9z M523.7,406.1l-0.9-0.4l2.7-5.4l0.9,0.4L523.7,406.1z M529,395.4l-0.9-0.4l2.7-5.4l0.9,0.4L529,395.4z
						 M534.3,384.7l-0.9-0.4l2.7-5.4l0.9,0.4L534.3,384.7z M539.7,374l-0.9-0.4l2.7-5.4l0.9,0.4L539.7,374z M545,363.3l-0.9-0.4
						l2.7-5.4l0.9,0.4L545,363.3z M550.3,352.6l-0.9-0.4l2.7-5.4l0.9,0.4L550.3,352.6z M555.7,341.9l-0.9-0.4l2.7-5.4l0.9,0.4
						L555.7,341.9z M561,331.2l-0.9-0.4l2.7-5.4l0.9,0.4L561,331.2z M566.3,320.5l-0.9-0.4l2.7-5.4l0.9,0.4L566.3,320.5z
						 M571.6,309.8l-0.9-0.4l2.7-5.4l0.9,0.4L571.6,309.8z M577,299.1l-0.9-0.4l2.7-5.4l0.9,0.4L577,299.1z M582.3,288.4l-0.9-0.4
						l2.7-5.4l0.9,0.4L582.3,288.4z M587.6,277.7l-0.9-0.4l2.7-5.4l0.9,0.4L587.6,277.7z M593,267l-0.9-0.4l2.7-5.4l0.9,0.4L593,267
						z M598.3,256.3l-0.9-0.4l2.7-5.4l0.9,0.4L598.3,256.3z M603.6,245.6l-0.9-0.4l2.7-5.4l0.9,0.4L603.6,245.6z"/>
				</g>
				<g>
					<polygon class="st5" points="608.9,234.9 608,234.4 608.1,234.3 608,234.4 607.3,233.7 611.5,229.7 					"/>
				</g>
				<g>
					<path class="st5" d="M238.9,581.2l-0.7-0.7l4.4-4.1l0.7,0.7L238.9,581.2z M247.7,572.9l-0.7-0.7l4.4-4.1l0.7,0.7L247.7,572.9z
						 M256.5,564.7l-0.7-0.7l4.4-4.1l0.7,0.7L256.5,564.7z M265.3,556.4l-0.7-0.7l4.4-4.1l0.7,0.7L265.3,556.4z M274.1,548.2
						l-0.7-0.7l4.4-4.1l0.7,0.7L274.1,548.2z M282.9,539.9l-0.7-0.7l4.4-4.1l0.7,0.7L282.9,539.9z M291.6,531.6l-0.7-0.7l4.4-4.1
						l0.7,0.7L291.6,531.6z M300.4,523.4l-0.7-0.7l4.4-4.1l0.7,0.7L300.4,523.4z M309.2,515.1l-0.7-0.7l4.4-4.1l0.7,0.7L309.2,515.1
						z M318,506.9l-0.7-0.7l4.4-4.1l0.7,0.7L318,506.9z M326.8,498.6l-0.7-0.7l4.4-4.1l0.7,0.7L326.8,498.6z M335.6,490.4l-0.7-0.7
						l4.4-4.1l0.7,0.7L335.6,490.4z M344.4,482.1l-0.7-0.7l4.4-4.1l0.7,0.7L344.4,482.1z M353.2,473.8l-0.7-0.7l4.4-4.1l0.7,0.7
						L353.2,473.8z M361.9,465.6l-0.7-0.7l4.4-4.1l0.7,0.7L361.9,465.6z M370.7,457.3l-0.7-0.7l4.4-4.1l0.7,0.7L370.7,457.3z
						 M379.5,449.1l-0.7-0.7l4.4-4.1l0.7,0.7L379.5,449.1z M388.3,440.8l-0.7-0.7l4.4-4.1l0.7,0.7L388.3,440.8z M397.1,432.6
						l-0.7-0.7l4.4-4.1l0.7,0.7L397.1,432.6z M405.9,424.3l-0.7-0.7l4.4-4.1l0.7,0.7L405.9,424.3z M414.7,416l-0.7-0.7l4.4-4.1
						l0.7,0.7L414.7,416z M423.5,407.8l-0.7-0.7l4.4-4.1l0.7,0.7L423.5,407.8z M432.2,399.5l-0.7-0.7l4.4-4.1l0.7,0.7L432.2,399.5z
						 M441,391.3l-0.7-0.7l4.4-4.1l0.7,0.7L441,391.3z M449.8,383l-0.7-0.7l4.4-4.1l0.7,0.7L449.8,383z M458.6,374.8l-0.7-0.7
						l4.4-4.1l0.7,0.7L458.6,374.8z M467.4,366.5l-0.7-0.7l4.4-4.1l0.7,0.7L467.4,366.5z M476.2,358.3l-0.7-0.7l4.4-4.1l0.7,0.7
						L476.2,358.3z M485,350l-0.7-0.7l4.4-4.1l0.7,0.7L485,350z M493.8,341.7l-0.7-0.7l4.4-4.1l0.7,0.7L493.8,341.7z M502.5,333.5
						l-0.7-0.7l4.4-4.1l0.7,0.7L502.5,333.5z M511.3,325.2l-0.7-0.7l4.4-4.1l0.7,0.7L511.3,325.2z M520.1,317l-0.7-0.7l4.4-4.1
						l0.7,0.7L520.1,317z M528.9,308.7l-0.7-0.7l4.4-4.1l0.7,0.7L528.9,308.7z M537.7,300.5l-0.7-0.7l4.4-4.1l0.7,0.7L537.7,300.5z
						 M546.5,292.2l-0.7-0.7l4.4-4.1l0.7,0.7L546.5,292.2z M555.3,283.9l-0.7-0.7l4.4-4.1l0.7,0.7L555.3,283.9z M564.1,275.7
						l-0.7-0.7l4.4-4.1l0.7,0.7L564.1,275.7z M572.8,267.4l-0.7-0.7l4.4-4.1l0.7,0.7L572.8,267.4z M581.6,259.2l-0.7-0.7l4.4-4.1
						l0.7,0.7L581.6,259.2z M590.4,250.9l-0.7-0.7l4.4-4.1l0.7,0.7L590.4,250.9z M599.2,242.7l-0.7-0.7l4.4-4.1l0.7,0.7L599.2,242.7
						z"/>
				</g>
				<g>
					<polygon class="st5" points="230.8,588.8 232.6,584 233.5,584.4 233.2,585.2 233.8,584.6 234.5,585.3 					"/>
				</g>
				<g>
					<path class="st5" d="M235.6,578.7l-0.9-0.3l2.1-5.7l0.9,0.3L235.6,578.7z M239.7,567.4l-0.9-0.3l2.1-5.7l0.9,0.3L239.7,567.4z
						 M243.9,556l-0.9-0.3l2.1-5.7l0.9,0.3L243.9,556z M248.1,544.7l-0.9-0.3l2.1-5.7l0.9,0.3L248.1,544.7z M252.2,533.4l-0.9-0.3
						l2.1-5.7l0.9,0.3L252.2,533.4z M256.4,522.1l-0.9-0.3l2.1-5.7l0.9,0.3L256.4,522.1z M260.5,510.8l-0.9-0.3l2.1-5.7l0.9,0.3
						L260.5,510.8z M264.7,499.4l-0.9-0.3l2.1-5.7l0.9,0.3L264.7,499.4z M268.9,488.1l-0.9-0.3l2.1-5.7l0.9,0.3L268.9,488.1z
						 M273,476.8l-0.9-0.3l2.1-5.7l0.9,0.3L273,476.8z M277.2,465.5l-0.9-0.3l2.1-5.7l0.9,0.3L277.2,465.5z M281.3,454.1l-0.9-0.3
						l2.1-5.7l0.9,0.3L281.3,454.1z M285.5,442.8l-0.9-0.3l2.1-5.7l0.9,0.3L285.5,442.8z M289.7,431.5l-0.9-0.3l2.1-5.7l0.9,0.3
						L289.7,431.5z M293.8,420.2l-0.9-0.3l2.1-5.7l0.9,0.3L293.8,420.2z M298,408.8l-0.9-0.3l2.1-5.7l0.9,0.3L298,408.8z
						 M302.2,397.5l-0.9-0.3l2.1-5.7l0.9,0.3L302.2,397.5z M306.3,386.2l-0.9-0.3l2.1-5.7l0.9,0.3L306.3,386.2z M310.5,374.9
						l-0.9-0.3l2.1-5.7l0.9,0.3L310.5,374.9z M314.6,363.5l-0.9-0.3l2.1-5.7l0.9,0.3L314.6,363.5z M318.8,352.2l-0.9-0.3l2.1-5.7
						l0.9,0.3L318.8,352.2z M323,340.9l-0.9-0.3l2.1-5.7l0.9,0.3L323,340.9z M327.1,329.6l-0.9-0.3l2.1-5.7l0.9,0.3L327.1,329.6z
						 M331.3,318.2l-0.9-0.3l2.1-5.7l0.9,0.3L331.3,318.2z M335.4,306.9l-0.9-0.3l2.1-5.7l0.9,0.3L335.4,306.9z M339.6,295.6
						l-0.9-0.3l2.1-5.7l0.9,0.3L339.6,295.6z M343.8,284.3l-0.9-0.3l2.1-5.7l0.9,0.3L343.8,284.3z M347.9,272.9l-0.9-0.3l2.1-5.7
						l0.9,0.3L347.9,272.9z M352.1,261.6l-0.9-0.3l2.1-5.7l0.9,0.3L352.1,261.6z M356.2,250.3l-0.9-0.3l2.1-5.7l0.9,0.3L356.2,250.3
						z M360.4,239l-0.9-0.3l2.1-5.7l0.9,0.3L360.4,239z M364.6,227.7l-0.9-0.3l2.1-5.7l0.9,0.3L364.6,227.7z M368.7,216.3l-0.9-0.3
						l2.1-5.7l0.9,0.3L368.7,216.3z M372.9,205l-0.9-0.3l2.1-5.7l0.9,0.3L372.9,205z M377,193.7l-0.9-0.3l2.1-5.7l0.9,0.3L377,193.7
						z M381.2,182.4l-0.9-0.3l2.1-5.7l0.9,0.3L381.2,182.4z M385.4,171l-0.9-0.3l2.1-5.7l0.9,0.3L385.4,171z M389.5,159.7l-0.9-0.3
						l2.1-5.7l0.9,0.3L389.5,159.7z"/>
				</g>
				<g>
					<polygon class="st5" points="393.7,148.4 392.7,148 394,144.5 396.8,147.1 396.1,147.8 394.5,146.3 					"/>
				</g>
				<g>
					<path class="st5" d="M640.8,373.7l-4.4-4l0.7-0.7l4.4,4L640.8,373.7z M632.1,365.6l-4.4-4l0.7-0.7l4.4,4L632.1,365.6z
						 M623.4,357.6l-4.4-4l0.7-0.7l4.4,4L623.4,357.6z M614.6,349.5l-4.4-4l0.7-0.7l4.4,4L614.6,349.5z M605.9,341.4l-4.4-4l0.7-0.7
						l4.4,4L605.9,341.4z M597.1,333.4l-4.4-4l0.7-0.7l4.4,4L597.1,333.4z M588.4,325.3l-4.4-4l0.7-0.7l4.4,4L588.4,325.3z
						 M579.7,317.2l-4.4-4l0.7-0.7l4.4,4L579.7,317.2z M570.9,309.2l-4.4-4l0.7-0.7l4.4,4L570.9,309.2z M562.2,301.1l-4.4-4l0.7-0.7
						l4.4,4L562.2,301.1z M553.4,293l-4.4-4l0.7-0.7l4.4,4L553.4,293z M544.7,285l-4.4-4l0.7-0.7l4.4,4L544.7,285z M536,276.9
						l-4.4-4l0.7-0.7l4.4,4L536,276.9z M527.2,268.8l-4.4-4l0.7-0.7l4.4,4L527.2,268.8z M518.5,260.8l-4.4-4l0.7-0.7l4.4,4
						L518.5,260.8z M509.7,252.7l-4.4-4l0.7-0.7l4.4,4L509.7,252.7z M501,244.6l-4.4-4l0.7-0.7l4.4,4L501,244.6z M492.3,236.5
						l-4.4-4l0.7-0.7l4.4,4L492.3,236.5z M483.5,228.5l-4.4-4l0.7-0.7l4.4,4L483.5,228.5z M474.8,220.4l-4.4-4l0.7-0.7l4.4,4
						L474.8,220.4z M466,212.3l-4.4-4l0.7-0.7l4.4,4L466,212.3z M457.3,204.3l-4.4-4l0.7-0.7l4.4,4L457.3,204.3z M448.6,196.2
						l-4.4-4l0.7-0.7l4.4,4L448.6,196.2z M439.8,188.1l-4.4-4l0.7-0.7l4.4,4L439.8,188.1z M431.1,180.1l-4.4-4l0.7-0.7l4.4,4
						L431.1,180.1z M422.3,172l-4.4-4l0.7-0.7l4.4,4L422.3,172z M413.6,163.9l-4.4-4l0.7-0.7l4.4,4L413.6,163.9z M404.9,155.9
						l-4.4-4l0.7-0.7l4.4,4L404.9,155.9z"/>
				</g>
				<g>
					<polygon class="st5" points="647.7,382.4 646.7,382.3 647.2,379.6 645.2,377.7 645.9,377 648.3,379.2 					"/>
				</g>
				<g>
					<path class="st5" d="M613.7,562.2l-1-0.2l1.1-6l1,0.2L613.7,562.2z M616,550.2l-1-0.2l1.1-6l1,0.2L616,550.2z M618.2,538.2
						l-1-0.2l1.1-6l1,0.2L618.2,538.2z M620.5,526.2l-1-0.2l1.1-6l1,0.2L620.5,526.2z M622.8,514.2l-1-0.2l1.1-6l1,0.2L622.8,514.2z
						 M625,502.3l-1-0.2l1.1-6l1,0.2L625,502.3z M627.3,490.3l-1-0.2l1.1-6l1,0.2L627.3,490.3z M629.6,478.3l-1-0.2l1.1-6l1,0.2
						L629.6,478.3z M631.8,466.3l-1-0.2l1.1-6l1,0.2L631.8,466.3z M634.1,454.3l-1-0.2l1.1-6l1,0.2L634.1,454.3z M636.4,442.3
						l-1-0.2l1.1-6l1,0.2L636.4,442.3z M638.6,430.4l-1-0.2l1.1-6l1,0.2L638.6,430.4z M640.9,418.4l-1-0.2l1.1-6l1,0.2L640.9,418.4z
						 M643.2,406.4l-1-0.2l1.1-6l1,0.2L643.2,406.4z M645.4,394.4l-1-0.2l1.1-6l1,0.2L645.4,394.4z"/>
				</g>
				<g>
					<polygon class="st5" points="611.7,572.6 609.7,568.5 610.6,568.1 611.3,569.4 611.6,568 612.5,568.1 					"/>
				</g>
				<g>
					<path class="st5" d="M607.1,563.1l-2.6-5.4l0.9-0.4l2.6,5.4L607.1,563.1z M601.9,552.3l-2.6-5.4l0.9-0.4l2.6,5.4L601.9,552.3z
						 M596.7,541.4l-2.6-5.4l0.9-0.4l2.6,5.4L596.7,541.4z M591.5,530.6l-2.6-5.4l0.9-0.4l2.6,5.4L591.5,530.6z M586.2,519.8
						l-2.6-5.4l0.9-0.4l2.6,5.4L586.2,519.8z M581,508.9l-2.6-5.4l0.9-0.4l2.6,5.4L581,508.9z M575.8,498.1l-2.6-5.4l0.9-0.4
						l2.6,5.4L575.8,498.1z M570.6,487.3l-2.6-5.4l0.9-0.4l2.6,5.4L570.6,487.3z M565.3,476.4l-2.6-5.4l0.9-0.4l2.6,5.4L565.3,476.4
						z M560.1,465.6l-2.6-5.4l0.9-0.4l2.6,5.4L560.1,465.6z M554.9,454.8l-2.6-5.4l0.9-0.4l2.6,5.4L554.9,454.8z M549.7,443.9
						l-2.6-5.4l0.9-0.4l2.6,5.4L549.7,443.9z M544.4,433.1l-2.6-5.4l0.9-0.4l2.6,5.4L544.4,433.1z M539.2,422.3l-2.6-5.4l0.9-0.4
						l2.6,5.4L539.2,422.3z M534,411.5l-2.6-5.4l0.9-0.4l2.6,5.4L534,411.5z M528.8,400.6l-2.6-5.4l0.9-0.4l2.6,5.4L528.8,400.6z
						 M523.5,389.8l-2.6-5.4l0.9-0.4l2.6,5.4L523.5,389.8z M518.3,379l-2.6-5.4l0.9-0.4l2.6,5.4L518.3,379z M513.1,368.1l-2.6-5.4
						l0.9-0.4l2.6,5.4L513.1,368.1z M507.9,357.3l-2.6-5.4l0.9-0.4l2.6,5.4L507.9,357.3z M502.6,346.5L500,341l0.9-0.4l2.6,5.4
						L502.6,346.5z M497.4,335.6l-2.6-5.4l0.9-0.4l2.6,5.4L497.4,335.6z M492.2,324.8l-2.6-5.4l0.9-0.4l2.6,5.4L492.2,324.8z
						 M487,314l-2.6-5.4l0.9-0.4l2.6,5.4L487,314z M481.7,303.1l-2.6-5.4l0.9-0.4l2.6,5.4L481.7,303.1z M476.5,292.3l-2.6-5.4
						l0.9-0.4l2.6,5.4L476.5,292.3z M471.3,281.5l-2.6-5.4l0.9-0.4l2.6,5.4L471.3,281.5z M466.1,270.6l-2.6-5.4l0.9-0.4l2.6,5.4
						L466.1,270.6z M460.8,259.8l-2.6-5.4l0.9-0.4l2.6,5.4L460.8,259.8z M455.6,249l-2.6-5.4l0.9-0.4l2.6,5.4L455.6,249z
						 M450.4,238.1l-2.6-5.4l0.9-0.4l2.6,5.4L450.4,238.1z M445.2,227.3l-2.6-5.4l0.9-0.4l2.6,5.4L445.2,227.3z M439.9,216.5
						l-2.6-5.4l0.9-0.4l2.6,5.4L439.9,216.5z M434.7,205.6l-2.6-5.4l0.9-0.4l2.6,5.4L434.7,205.6z M429.5,194.8l-2.6-5.4l0.9-0.4
						l2.6,5.4L429.5,194.8z M424.3,184l-2.6-5.4l0.9-0.4l2.6,5.4L424.3,184z M419,173.1l-2.6-5.4l0.9-0.4l2.6,5.4L419,173.1z
						 M413.8,162.3l-2.6-5.4l0.9-0.4l2.6,5.4L413.8,162.3z M408.6,151.5l-2.6-5.4l0.9-0.4l2.6,5.4L408.6,151.5z M403.4,140.6
						l-2.6-5.4l0.9-0.4l2.6,5.4L403.4,140.6z"/>
				</g>
				<g>
					<polygon class="st5" points="396.9,129.9 396.7,124.5 399,129.4 398.1,129.8 397.9,129.2 397.9,129.9 					"/>
				</g>
				<g>
					<path class="st5" d="M414.2,653.3l-0.2-5.9l1,0l0.2,5.9L414.2,653.3z M413.8,641.4l-0.2-5.9l1,0l0.2,5.9L413.8,641.4z
						 M413.4,629.5l-0.2-5.9l1,0l0.2,5.9L413.4,629.5z M413,617.6l-0.2-5.9l1,0l0.2,5.9L413,617.6z M412.6,605.7l-0.2-5.9l1,0
						l0.2,5.9L412.6,605.7z M412.2,593.8l-0.2-5.9l1,0l0.2,5.9L412.2,593.8z M411.8,581.9l-0.2-5.9l1,0l0.2,5.9L411.8,581.9z
						 M411.4,570l-0.2-5.9l1,0l0.2,5.9L411.4,570z M411.1,558.1l-0.2-5.9l1,0l0.2,5.9L411.1,558.1z M410.7,546.2l-0.2-5.9l1,0
						l0.2,5.9L410.7,546.2z M410.3,534.3l-0.2-5.9l1,0l0.2,5.9L410.3,534.3z M409.9,522.4l-0.2-5.9l1,0l0.2,5.9L409.9,522.4z
						 M409.5,510.5l-0.2-5.9l1,0l0.2,5.9L409.5,510.5z M409.1,498.6l-0.2-5.9l1,0l0.2,5.9L409.1,498.6z M408.7,486.7l-0.2-5.9l1,0
						l0.2,5.9L408.7,486.7z M408.3,474.9l-0.2-5.9l1,0l0.2,5.9L408.3,474.9z M407.9,463l-0.2-5.9l1,0l0.2,5.9L407.9,463z
						 M407.5,451.1l-0.2-5.9l1,0l0.2,5.9L407.5,451.1z M407.1,439.2l-0.2-5.9l1,0l0.2,5.9L407.1,439.2z M406.7,427.3l-0.2-5.9l1,0
						l0.2,5.9L406.7,427.3z M406.3,415.4l-0.2-5.9l1,0l0.2,5.9L406.3,415.4z M405.9,403.5l-0.2-5.9l1,0l0.2,5.9L405.9,403.5z
						 M405.5,391.6l-0.2-5.9l1,0l0.2,5.9L405.5,391.6z M405.1,379.7l-0.2-5.9l1,0l0.2,5.9L405.1,379.7z M404.8,367.8l-0.2-5.9l1,0
						l0.2,5.9L404.8,367.8z M404.4,355.9l-0.2-5.9l1,0l0.2,5.9L404.4,355.9z M404,344l-0.2-5.9l1,0l0.2,5.9L404,344z M403.6,332.1
						l-0.2-5.9l1,0l0.2,5.9L403.6,332.1z M403.2,320.2l-0.2-5.9l1,0l0.2,5.9L403.2,320.2z M402.8,308.3l-0.2-5.9l1,0l0.2,5.9
						L402.8,308.3z M402.4,296.4l-0.2-5.9l1,0l0.2,5.9L402.4,296.4z M402,284.5l-0.2-5.9l1,0l0.2,5.9L402,284.5z M401.6,272.6
						l-0.2-5.9l1,0l0.2,5.9L401.6,272.6z M401.2,260.8l-0.2-5.9l1,0l0.2,5.9L401.2,260.8z M400.8,248.9l-0.2-5.9l1,0l0.2,5.9
						L400.8,248.9z M400.4,237l-0.2-5.9l1,0l0.2,5.9L400.4,237z M400,225.1l-0.2-5.9l1,0l0.2,5.9L400,225.1z M399.6,213.2l-0.2-5.9
						l1,0l0.2,5.9L399.6,213.2z M399.2,201.3l-0.2-5.9l1,0l0.2,5.9L399.2,201.3z M398.8,189.4l-0.2-5.9l1,0l0.2,5.9L398.8,189.4z
						 M398.5,177.5l-0.2-5.9l1,0l0.2,5.9L398.5,177.5z M398.1,165.6l-0.2-5.9l1,0l0.2,5.9L398.1,165.6z M397.7,153.7l-0.2-5.9l1,0
						l0.2,5.9L397.7,153.7z M397.3,141.8l-0.2-5.9l1,0l0.2,5.9L397.3,141.8z"/>
				</g>
				<g>
					<polygon class="st5" points="415.5,662.9 412,661.8 412.3,660.8 414.5,661.5 414.4,659.2 415.4,659.2 					"/>
				</g>
				<g>
					<path class="st5" d="M406.3,660l-5.6-1.8l0.3-1l5.6,1.8L406.3,660z M395,656.5l-5.6-1.8l0.3-1l5.6,1.8L395,656.5z M383.8,653
						l-5.6-1.8l0.3-1l5.6,1.8L383.8,653z M372.5,649.5l-5.6-1.8l0.3-1l5.6,1.8L372.5,649.5z M361.2,646l-5.6-1.8l0.3-1l5.6,1.8
						L361.2,646z M349.9,642.5l-5.6-1.8l0.3-1l5.6,1.8L349.9,642.5z M338.6,638.9l-5.6-1.8l0.3-1l5.6,1.8L338.6,638.9z M327.3,635.4
						l-5.6-1.8l0.3-1l5.6,1.8L327.3,635.4z M316,631.9l-5.6-1.8l0.3-1l5.6,1.8L316,631.9z M304.7,628.4l-5.6-1.8l0.3-1l5.6,1.8
						L304.7,628.4z M293.4,624.9l-5.6-1.8l0.3-1l5.6,1.8L293.4,624.9z M282.1,621.4l-5.6-1.8l0.3-1l5.6,1.8L282.1,621.4z
						 M270.8,617.9l-5.6-1.8l0.3-1l5.6,1.8L270.8,617.9z M259.5,614.3l-5.6-1.8l0.3-1l5.6,1.8L259.5,614.3z M248.2,610.8l-5.6-1.8
						l0.3-1l5.6,1.8L248.2,610.8z"/>
				</g>
				<g>
					<polygon class="st5" points="236.9,607.3 233.7,606.3 233.5,603 234.5,602.9 234.7,605.6 237.2,606.4 					"/>
				</g>
				<g>
					<path class="st5" d="M233.1,597l-0.4-6l1-0.1l0.4,6L233.1,597z M232.3,585.1l-0.4-6l1-0.1l0.4,6L232.3,585.1z M231.5,573.2
						l-0.4-6l1-0.1l0.4,6L231.5,573.2z M230.6,561.3l-0.4-6l1-0.1l0.4,6L230.6,561.3z M229.8,549.4l-0.4-6l1-0.1l0.4,6L229.8,549.4z
						 M229,537.5l-0.4-6l1-0.1l0.4,6L229,537.5z M228.2,525.6l-0.4-6l1-0.1l0.4,6L228.2,525.6z M227.4,513.7l-0.4-6l1-0.1l0.4,6
						L227.4,513.7z M226.5,501.8l-0.4-6l1-0.1l0.4,6L226.5,501.8z M225.7,489.9l-0.4-6l1-0.1l0.4,6L225.7,489.9z M224.9,478l-0.4-6
						l1-0.1l0.4,6L224.9,478z M224.1,466.1l-0.4-6l1-0.1l0.4,6L224.1,466.1z M223.3,454.2l-0.4-6l1-0.1l0.4,6L223.3,454.2z
						 M222.4,442.3l-0.4-6l1-0.1l0.4,6L222.4,442.3z M221.6,430.4l-0.4-6l1-0.1l0.4,6L221.6,430.4z M220.8,418.5l-0.4-6l1-0.1l0.4,6
						L220.8,418.5z M220,406.6l-0.4-6l1-0.1l0.4,6L220,406.6z M219.2,394.7l-0.4-6l1-0.1l0.4,6L219.2,394.7z M218.4,382.8l-0.4-6
						l1-0.1l0.4,6L218.4,382.8z M217.5,370.9l-0.4-6l1-0.1l0.4,6L217.5,370.9z M216.7,359l-0.4-6l1-0.1l0.4,6L216.7,359z
						 M215.9,347.1l-0.4-6l1-0.1l0.4,6L215.9,347.1z M215.1,335.2l-0.4-6l1-0.1l0.4,6L215.1,335.2z M214.3,323.3l-0.4-6l1-0.1l0.4,6
						L214.3,323.3z M213.4,311.4l-0.4-6l1-0.1l0.4,6L213.4,311.4z M212.6,299.5l-0.4-6l1-0.1l0.4,6L212.6,299.5z M211.8,287.6
						l-0.4-6l1-0.1l0.4,6L211.8,287.6z M211,275.7l-0.4-6l1-0.1l0.4,6L211,275.7z M210.2,263.8l-0.4-6l1-0.1l0.4,6L210.2,263.8z"/>
				</g>
				<g>
					<polygon class="st5" points="209.3,251.9 209.1,248.4 212.6,248.1 212.7,249.1 210.2,249.3 210.3,251.8 					"/>
				</g>
				<g>
					<path class="st5" d="M218.7,248.6l-0.1-1l6-0.5l0.1,1L218.7,248.6z M230.7,247.6l-0.1-1l6-0.5l0.1,1L230.7,247.6z M242.8,246.7
						l-0.1-1l6-0.5l0.1,1L242.8,246.7z M254.8,245.7l-0.1-1l6-0.5l0.1,1L254.8,245.7z M266.9,244.7l-0.1-1l6-0.5l0.1,1L266.9,244.7z
						 M278.9,243.7l-0.1-1l6-0.5l0.1,1L278.9,243.7z M291,242.7l-0.1-1l6-0.5l0.1,1L291,242.7z M303,241.7l-0.1-1l6-0.5l0.1,1
						L303,241.7z M315.1,240.7l-0.1-1l6-0.5l0.1,1L315.1,240.7z M327.1,239.7l-0.1-1l6-0.5l0.1,1L327.1,239.7z M339.2,238.7l-0.1-1
						l6-0.5l0.1,1L339.2,238.7z M351.2,237.7l-0.1-1l6-0.5l0.1,1L351.2,237.7z M363.3,236.7l-0.1-1l6-0.5l0.1,1L363.3,236.7z
						 M375.3,235.8l-0.1-1l6-0.5l0.1,1L375.3,235.8z M387.4,234.8l-0.1-1l6-0.5l0.1,1L387.4,234.8z M399.4,233.8l-0.1-1l6-0.5l0.1,1
						L399.4,233.8z M411.5,232.8l-0.1-1l6-0.5l0.1,1L411.5,232.8z M423.5,231.8l-0.1-1l6-0.5l0.1,1L423.5,231.8z M435.6,230.8
						l-0.1-1l6-0.5l0.1,1L435.6,230.8z M447.6,229.8l-0.1-1l6-0.5l0.1,1L447.6,229.8z M459.6,228.8l-0.1-1l6-0.5l0.1,1L459.6,228.8z
						 M471.7,227.8l-0.1-1l6-0.5l0.1,1L471.7,227.8z M483.7,226.8l-0.1-1l6-0.5l0.1,1L483.7,226.8z M495.8,225.8l-0.1-1l6-0.5l0.1,1
						L495.8,225.8z M507.8,224.8l-0.1-1l6-0.5l0.1,1L507.8,224.8z M519.9,223.9l-0.1-1l6-0.5l0.1,1L519.9,223.9z M531.9,222.9
						l-0.1-1l6-0.5l0.1,1L531.9,222.9z M544,221.9l-0.1-1l6-0.5l0.1,1L544,221.9z M556,220.9l-0.1-1l6-0.5l0.1,1L556,220.9z
						 M568.1,219.9l-0.1-1l6-0.5l0.1,1L568.1,219.9z M580.1,218.9l-0.1-1l6-0.5l0.1,1L580.1,218.9z"/>
				</g>
				<g>
					<polygon class="st5" points="596.2,220 594.8,217.7 592.2,217.9 592.1,216.9 595.4,216.6 597,219.5 					"/>
				</g>
				<g>
					<path class="st5" d="M681.2,372l-2.8-5.1l0.9-0.5l2.8,5.1L681.2,372z M675.5,361.8l-2.8-5.1l0.9-0.5l2.8,5.1L675.5,361.8z
						 M669.8,351.7l-2.8-5.1l0.9-0.5l2.8,5.1L669.8,351.7z M664.2,341.6l-2.8-5.1l0.9-0.5l2.8,5.1L664.2,341.6z M658.5,331.5
						l-2.8-5.1l0.9-0.5l2.8,5.1L658.5,331.5z M652.8,321.3l-2.8-5.1l0.9-0.5l2.8,5.1L652.8,321.3z M647.2,311.2l-2.8-5.1l0.9-0.5
						l2.8,5.1L647.2,311.2z M641.5,301.1l-2.8-5.1l0.9-0.5l2.8,5.1L641.5,301.1z M635.8,290.9l-2.8-5.1l0.9-0.5l2.8,5.1L635.8,290.9
						z M630.2,280.8l-2.8-5.1l0.9-0.5l2.8,5.1L630.2,280.8z M624.5,270.7l-2.8-5.1l0.9-0.5l2.8,5.1L624.5,270.7z M618.8,260.5
						l-2.8-5.1l0.9-0.5l2.8,5.1L618.8,260.5z M613.2,250.4l-2.8-5.1l0.9-0.5l2.8,5.1L613.2,250.4z M607.5,240.3l-2.8-5.1l0.9-0.5
						l2.8,5.1L607.5,240.3z M601.8,230.2l-2.8-5.1l0.9-0.5l2.8,5.1L601.8,230.2z"/>
				</g>
				<g>
					<polygon class="st5" points="683,380.3 682.9,379.3 685.1,379 684,377 684.9,376.5 686.7,379.8 					"/>
				</g>
				<g>
					<path class="st5" d="M163.5,445.6l-0.1-1l5.9-0.7l0.1,1L163.5,445.6z M175.3,444.1l-0.1-1l5.9-0.7l0.1,1L175.3,444.1z
						 M187.1,442.6l-0.1-1l5.9-0.7l0.1,1L187.1,442.6z M198.9,441.1l-0.1-1l5.9-0.7l0.1,1L198.9,441.1z M210.8,439.7l-0.1-1l5.9-0.7
						l0.1,1L210.8,439.7z M222.6,438.2l-0.1-1l5.9-0.7l0.1,1L222.6,438.2z M234.4,436.7l-0.1-1l5.9-0.7l0.1,1L234.4,436.7z
						 M246.2,435.2l-0.1-1l5.9-0.7l0.1,1L246.2,435.2z M258,433.7l-0.1-1l5.9-0.7l0.1,1L258,433.7z M269.8,432.2l-0.1-1l5.9-0.7
						l0.1,1L269.8,432.2z M281.6,430.8l-0.1-1l5.9-0.7l0.1,1L281.6,430.8z M293.4,429.3l-0.1-1l5.9-0.7l0.1,1L293.4,429.3z
						 M305.2,427.8l-0.1-1l5.9-0.7l0.1,1L305.2,427.8z M317,426.3l-0.1-1l5.9-0.7l0.1,1L317,426.3z M328.8,424.8l-0.1-1l5.9-0.7
						l0.1,1L328.8,424.8z M340.6,423.3l-0.1-1l5.9-0.7l0.1,1L340.6,423.3z M352.4,421.8l-0.1-1l5.9-0.7l0.1,1L352.4,421.8z
						 M364.2,420.4l-0.1-1l5.9-0.7l0.1,1L364.2,420.4z M376,418.9l-0.1-1l5.9-0.7l0.1,1L376,418.9z M387.8,417.4l-0.1-1l5.9-0.7
						l0.1,1L387.8,417.4z M399.7,415.9l-0.1-1l5.9-0.7l0.1,1L399.7,415.9z M411.5,414.4l-0.1-1l5.9-0.7l0.1,1L411.5,414.4z
						 M423.3,412.9l-0.1-1l5.9-0.7l0.1,1L423.3,412.9z M435.1,411.5l-0.1-1l5.9-0.7l0.1,1L435.1,411.5z M446.9,410l-0.1-1l5.9-0.7
						l0.1,1L446.9,410z M458.7,408.5l-0.1-1l5.9-0.7l0.1,1L458.7,408.5z M470.5,407l-0.1-1l5.9-0.7l0.1,1L470.5,407z M482.3,405.5
						l-0.1-1l5.9-0.7l0.1,1L482.3,405.5z M494.1,404l-0.1-1l5.9-0.7l0.1,1L494.1,404z M505.9,402.5l-0.1-1l5.9-0.7l0.1,1
						L505.9,402.5z M517.7,401.1l-0.1-1l5.9-0.7l0.1,1L517.7,401.1z M529.5,399.6l-0.1-1l5.9-0.7l0.1,1L529.5,399.6z M541.3,398.1
						l-0.1-1l5.9-0.7l0.1,1L541.3,398.1z M553.1,396.6l-0.1-1l5.9-0.7l0.1,1L553.1,396.6z M564.9,395.1l-0.1-1l5.9-0.7l0.1,1
						L564.9,395.1z M576.7,393.6l-0.1-1l5.9-0.7l0.1,1L576.7,393.6z M588.5,392.2l-0.1-1l5.9-0.7l0.1,1L588.5,392.2z M600.4,390.7
						l-0.1-1l5.9-0.7l0.1,1L600.4,390.7z M612.2,389.2l-0.1-1l5.9-0.7l0.1,1L612.2,389.2z M624,387.7l-0.1-1l5.9-0.7l0.1,1
						L624,387.7z M635.8,386.2l-0.1-1l5.9-0.7l0.1,1L635.8,386.2z M647.6,384.7l-0.1-1l5.9-0.7l0.1,1L647.6,384.7z M659.4,383.2
						l-0.1-1l5.9-0.7l0.1,1L659.4,383.2z M671.2,381.8l-0.1-1l5.9-0.7l0.1,1L671.2,381.8z"/>
				</g>
				<g>
					<polygon class="st5" points="155.4,449.2 153.8,445.8 157.5,445.4 157.6,446.3 155.3,446.6 156.3,448.7 					"/>
				</g>
				<g>
					<path class="st5" d="M215.8,579.1l-2.5-5.4l0.9-0.4l2.5,5.4L215.8,579.1z M210.7,568.2l-2.5-5.4l0.9-0.4l2.5,5.4L210.7,568.2z
						 M205.7,557.4l-2.5-5.4l0.9-0.4l2.5,5.4L205.7,557.4z M200.7,546.6l-2.5-5.4l0.9-0.4l2.5,5.4L200.7,546.6z M195.6,535.8
						l-2.5-5.4l0.9-0.4l2.5,5.4L195.6,535.8z M190.6,524.9l-2.5-5.4l0.9-0.4l2.5,5.4L190.6,524.9z M185.6,514.1l-2.5-5.4l0.9-0.4
						l2.5,5.4L185.6,514.1z M180.6,503.3l-2.5-5.4l0.9-0.4l2.5,5.4L180.6,503.3z M175.5,492.5L173,487l0.9-0.4l2.5,5.4L175.5,492.5z
						 M170.5,481.6l-2.5-5.4l0.9-0.4l2.5,5.4L170.5,481.6z M165.5,470.8l-2.5-5.4l0.9-0.4l2.5,5.4L165.5,470.8z M160.4,460l-2.5-5.4
						l0.9-0.4l2.5,5.4L160.4,460z"/>
				</g>
				<g>
					
						<rect x="218.9" y="584.1" transform="matrix(0.9069 -0.4214 0.4214 0.9069 -226.3585 146.9802)" class="st5" width="1" height="3"/>
				</g>
			</g>
			<g>
				<path class="st5" d="M441.6,655.7l-0.4-0.9l2.3-0.9l0.4,0.9L441.6,655.7z M449.4,652.4l-0.4-0.9l5.5-2.3l0.4,0.9L449.4,652.4z
					 M460.5,647.8l-0.4-0.9l5.5-2.3l0.4,0.9L460.5,647.8z M471.6,643.2l-0.4-0.9l5.5-2.3l0.4,0.9L471.6,643.2z M482.7,638.6
					l-0.4-0.9l5.5-2.3l0.4,0.9L482.7,638.6z M493.7,634l-0.4-0.9l5.5-2.3l0.4,0.9L493.7,634z M504.8,629.3l-0.4-0.9l5.5-2.3l0.4,0.9
					L504.8,629.3z M515.9,624.7l-0.4-0.9l5.5-2.3l0.4,0.9L515.9,624.7z M527,620.1l-0.4-0.9l5.5-2.3l0.4,0.9L527,620.1z M538,615.5
					l-0.4-0.9l5.5-2.3l0.4,0.9L538,615.5z M549.1,610.9l-0.4-0.9l5.5-2.3l0.4,0.9L549.1,610.9z M560.2,606.2l-0.4-0.9l5.5-2.3
					l0.4,0.9L560.2,606.2z M571.3,601.6l-0.4-0.9l5.5-2.3l0.4,0.9L571.3,601.6z M582.3,597l-0.4-0.9l5.5-2.3l0.4,0.9L582.3,597z
					 M593.4,592.4l-0.4-0.9l5.5-2.3l0.4,0.9L593.4,592.4z M604.5,587.8l-0.4-0.9l5.5-2.3l0.4,0.9L604.5,587.8z"/>
			</g>
			<g>
				<path class="st5" d="M606.7,558.8l-0.9-0.4l2.2-5.6l0.9,0.4L606.7,558.8z M611.2,547.7l-0.9-0.4l2.2-5.6l0.9,0.4L611.2,547.7z
					 M615.7,536.6l-0.9-0.4l2.2-5.6l0.9,0.4L615.7,536.6z M620.2,525.5l-0.9-0.4l2.2-5.6l0.9,0.4L620.2,525.5z M624.7,514.3
					l-0.9-0.4l2.2-5.6l0.9,0.4L624.7,514.3z M629.2,503.2l-0.9-0.4l2.2-5.6l0.9,0.4L629.2,503.2z M633.7,492.1l-0.9-0.4l2.2-5.6
					l0.9,0.4L633.7,492.1z M638.2,481l-0.9-0.4l2.2-5.6l0.9,0.4L638.2,481z M642.7,469.8l-0.9-0.4l2.2-5.6l0.9,0.4L642.7,469.8z
					 M647.2,458.7l-0.9-0.4l2.2-5.6l0.9,0.4L647.2,458.7z M651.7,447.6l-0.9-0.4l2.2-5.6l0.9,0.4L651.7,447.6z M656.2,436.5
					l-0.9-0.4l2.2-5.6l0.9,0.4L656.2,436.5z M660.7,425.4l-0.9-0.4l2.2-5.6l0.9,0.4L660.7,425.4z M665.2,414.2l-0.9-0.4l2.2-5.6
					l0.9,0.4L665.2,414.2z"/>
			</g>
			<g>
				<path class="st5" d="M569.9,202.9l-0.8-0.4l0.4-0.9l0.8,0.4L569.9,202.9z M563.7,199.8l-5.4-2.6l0.4-0.9l5.4,2.6L563.7,199.8z
					 M552.9,194.5l-5.4-2.6l0.4-0.9l5.4,2.6L552.9,194.5z M542.2,189.3l-5.4-2.6l0.4-0.9l5.4,2.6L542.2,189.3z M531.4,184l-5.4-2.6
					l0.4-0.9l5.4,2.6L531.4,184z M520.6,178.7l-5.4-2.6l0.4-0.9l5.4,2.6L520.6,178.7z M509.8,173.4l-5.4-2.6l0.4-0.9l5.4,2.6
					L509.8,173.4z M499,168.2l-5.4-2.6l0.4-0.9l5.4,2.6L499,168.2z M488.3,162.9l-5.4-2.6l0.4-0.9l5.4,2.6L488.3,162.9z
					 M477.5,157.6l-5.4-2.6l0.4-0.9l5.4,2.6L477.5,157.6z M466.7,152.3l-5.4-2.6l0.4-0.9l5.4,2.6L466.7,152.3z M455.9,147.1
					l-5.4-2.6l0.4-0.9l5.4,2.6L455.9,147.1z M445.2,141.8l-5.4-2.6l0.4-0.9l5.4,2.6L445.2,141.8z M434.4,136.5l-5.4-2.6l0.4-0.9
					l5.4,2.6L434.4,136.5z M423.6,131.2l-5.4-2.6l0.4-0.9l5.4,2.6L423.6,131.2z"/>
			</g>
			<g>
				<path class="st5" d="M157.1,404.6l-0.9-0.4l2.2-5.6l0.9,0.4L157.1,404.6z M161.6,393.5l-0.9-0.4l2.2-5.6l0.9,0.4L161.6,393.5z
					 M166,382.3l-0.9-0.4l2.2-5.6l0.9,0.4L166,382.3z M170.5,371.2l-0.9-0.4l2.2-5.6l0.9,0.4L170.5,371.2z M175,360.1l-0.9-0.4
					l2.2-5.6l0.9,0.4L175,360.1z M179.5,348.9l-0.9-0.4l2.2-5.6l0.9,0.4L179.5,348.9z M184,337.8l-0.9-0.4l2.2-5.6l0.9,0.4
					L184,337.8z M188.4,326.7l-0.9-0.4l2.2-5.6l0.9,0.4L188.4,326.7z M192.9,315.5l-0.9-0.4l2.2-5.6l0.9,0.4L192.9,315.5z
					 M197.4,304.4l-0.9-0.4l2.2-5.6l0.9,0.4L197.4,304.4z M201.9,293.3l-0.9-0.4l2.2-5.6l0.9,0.4L201.9,293.3z M206.4,282.1
					l-0.9-0.4l2.2-5.6l0.9,0.4L206.4,282.1z M210.9,271l-0.9-0.4l2.2-5.6l0.9,0.4L210.9,271z M215.3,259.9l-0.9-0.4l2.2-5.6l0.9,0.4
					L215.3,259.9z M219.8,248.7l-0.9-0.4l2.2-5.6l0.9,0.4L219.8,248.7z M224.3,237.6l-0.9-0.4l2.2-5.6l0.9,0.4L224.3,237.6z
					 M228.8,226.5l-0.9-0.4l2.2-5.6l0.9,0.4L228.8,226.5z M234.1,216.5l-0.5-0.9l5.2-3l0.5,0.9L234.1,216.5z M244.6,210.6l-0.5-0.9
					l5.2-3l0.5,0.9L244.6,210.6z M255,204.7l-0.5-0.9l5.2-3l0.5,0.9L255,204.7z M265.5,198.8L265,198l5.2-3l0.5,0.9L265.5,198.8z
					 M275.9,192.9l-0.5-0.9l5.2-3l0.5,0.9L275.9,192.9z M286.4,187l-0.5-0.9l5.2-3l0.5,0.9L286.4,187z M296.8,181.1l-0.5-0.9l5.2-3
					l0.5,0.9L296.8,181.1z M307.3,175.2l-0.5-0.9l5.2-3l0.5,0.9L307.3,175.2z M317.7,169.3l-0.5-0.9l5.2-3l0.5,0.9L317.7,169.3z
					 M328.2,163.4l-0.5-0.9l5.2-3l0.5,0.9L328.2,163.4z M338.6,157.5l-0.5-0.9l5.2-3l0.5,0.9L338.6,157.5z M349,151.6l-0.5-0.9
					l5.2-3l0.5,0.9L349,151.6z M359.5,145.7l-0.5-0.9l5.2-3l0.5,0.9L359.5,145.7z"/>
			</g>
		</g>
		<g>
			<g>
				<path class="st6" d="M606.4,94.9c-0.2-9-7.4-16.3-16.4-16.4c-2,0-3.9,0.3-5.7,0.9c-3.6,1.2-6.7,3.6-8.7,6.8c-2.2-1.9-5-3-8-3.2
					c-0.2,0-0.3,0-0.5,0c-7.5-0.1-13.7,5.8-13.8,13.3c0,0.9,0.1,1.7,0.2,2.6c-0.1,0-0.3,0.1-0.4,0.2c-1.9-2-4.5-3.2-7.5-3.3
					c-1.3,0-2.5,0.2-3.6,0.6c-2.3,0.8-4.2,2.3-5.5,4.3c-1.5-1.2-3.4-2-5.4-2.1c-4.8-0.1-8.7,3.7-8.8,8.5c0,0.6,0,1.1,0.1,1.6
					c-3.8,1.2-6.5,4.6-6.6,8.8c-0.1,5.2,4,9.4,9.2,9.5c0.4,0,0.9,0,1.3-0.1l15.2,0.3l12.7,0.2c0.4,0.1,0.8,0.1,1.2,0.1
					c0.3,0,0.5,0,0.8,0c0.5,0.1,1,0.1,1.4,0.1c0.7,0,1.4,0,2.1-0.1l7.2,0.1l16.6,0.3l20,0.4c0.6,0.1,1.2,0.1,1.8,0.1
					c9.2,0.2,16.9-7.2,17-16.4C622.3,102.9,615.3,95.4,606.4,94.9z M537,113.2C537,113.2,537,113.2,537,113.2
					C537,113.2,537,113.2,537,113.2L537,113.2z M576.6,105.9C576.6,105.9,576.6,105.9,576.6,105.9c0.1,0,0.1,0,0.1,0L576.6,105.9z"
					/>
				<path class="st6" d="M222.1,126.8c-0.1-7.4-6.1-13.4-13.5-13.5c-1.6,0-3.2,0.2-4.7,0.7c-3,1-5.5,3-7.2,5.6
					c-1.8-1.5-4.1-2.5-6.6-2.6c-0.1,0-0.3,0-0.4,0c-6.2-0.1-11.3,4.8-11.4,11c0,0.7,0,1.4,0.2,2.1c-0.1,0-0.2,0.1-0.4,0.1
					c-1.6-1.6-3.7-2.7-6.2-2.7c-1,0-2,0.1-3,0.5c-1.9,0.6-3.5,1.9-4.6,3.6c-1.2-1-2.8-1.7-4.5-1.7c-3.9-0.1-7.2,3.1-7.2,7
					c0,0.5,0,0.9,0.1,1.3c-3.1,0.9-5.4,3.8-5.5,7.2c-0.1,4.2,3.3,7.8,7.6,7.8c0.4,0,0.7,0,1.1-0.1l12.5,0.2l10.5,0.2
					c0.3,0,0.6,0.1,0.9,0.1c0.2,0,0.5,0,0.7,0c0.4,0,0.8,0.1,1.2,0.1c0.6,0,1.1,0,1.7-0.1l6,0.1l13.7,0.2l16.4,0.3
					c0.5,0.1,1,0.1,1.5,0.1c7.6,0.1,13.9-5.9,14-13.5C235.3,133.4,229.5,127.2,222.1,126.8z M165,141.8
					C165,141.8,165,141.8,165,141.8C165.1,141.8,165.1,141.8,165,141.8L165,141.8z M197.6,135.8
					C197.6,135.8,197.7,135.8,197.6,135.8c0.1,0,0.1,0,0.1,0L197.6,135.8z"/>
				<g>
					<path class="st6" d="M513.3,571.2c-0.2,0-0.5,0-0.7,0c-2.8-5.5-8.6-9.3-15.2-9.3c-6.6,0-12.4,3.8-15.2,9.3c-0.2,0-0.5,0-0.7,0
						c-6.7,0-12.2,5.4-12.2,12.1c0,6.7,5.4,12.1,12.2,12.1h11.6v-5.3h-9.7l14.2-12.6l14.2,12.6h-11v5.3h12.5
						c6.7,0,12.2-5.4,12.2-12.1C525.5,576.6,520,571.2,513.3,571.2z"/>
				</g>
				<g>
					<path class="st6" d="M213.6,483.1H213c-1.5,0-2.8,1.2-2.8,2.7v-1.8c0-1.5-1-2.8-2.5-2.8h-0.6c-1.5,0-2.6,1.2-2.6,2.6
						c0-1.5-1.2-2.6-2.6-2.6h-0.6c-0.8,0-1.3,0.6-2,1.2v-7.7c0-1.5-1.5-3-2.9-3h-0.3c-1.5,0-2.5,1.6-2.5,3V487
						c0-1.5-1.4-2.6-2.8-2.6h-0.6c-1.5,0-3,1.1-3,2.6v3.2v5.8v1.5c0,0.4,0.3,0.7,0.4,1c1.2,6.6,7.1,11.5,14,11.5h0.6
						c7.8,0,13.8-6.2,13.8-14v-2.6v-3.2v-4.4C216,484.4,215,483.1,213.6,483.1z"/>
					<g>
						<path class="st6" d="M196,470.1h0.5c2.1,0,4.1,2,4.1,4v5.8c4.5-1.6,7.8-5.9,7.8-11.1c0-6.5-5.3-11.7-11.8-11.7
							c-6.5,0-11.7,5.3-11.7,11.7c0,5,3,9.2,7.5,10.9v-5.7C192.3,472,193.9,470.1,196,470.1z"/>
					</g>
				</g>
				<g>
					<path class="st6" d="M319.7,189.5h-21.9c-4,0-8.2,3-8.2,6.3v18.2c0,3.4,4.2,7.8,8.2,7.8h11.9l11.7,5.9v-7.6
						c3.2-0.3,5.4-2.9,5.4-6.1v-18.2C326.8,192.5,323.7,189.5,319.7,189.5z M317.1,213.9c0,1.2-0.9,2.1-2.1,2.1h-15.8
						c-1.2,0-2.1-0.9-2.1-2.1v-0.1c0-1.2,0.9-2.1,2.1-2.1H315c1.1,0,2.1,0.9,2.1,2.1V213.9z M322.5,206.9c0,1.2-0.9,2.1-2.1,2.1
						h-21.2c-1.2,0-2.1-0.9-2.1-2.1v-0.1c0-1.2,0.9-2.1,2.1-2.1h21.2c1.2,0,2.1,0.9,2.1,2.1V206.9z M322.5,198.2
						c0,1.2-0.9,2.1-2.1,2.1h-21.2c-1.2,0-2.1-0.9-2.1-2.1v-0.1c0-1.2,0.9-2.1,2.1-2.1h21.2c1.2,0,2.1,0.9,2.1,2.1V198.2z"/>
				</g>
				<g>
					<path class="st6" d="M493.7,188c2.3-0.5,4.4-1.8,5.5-4.2c1.9-3.9,0.2-8.6-3.7-10.5c-3.9-1.9-8.7-0.2-10.6,3.7
						c-1.1,2.3-0.9,4.6,0.2,6.8c-5.6,0.2-12.1,5.3-15,11.4l23.9,11.6C497,200.7,497,192.5,493.7,188z"/>
					<path class="st6" d="M505.5,198.8c1.7-0.3,3.2-1.4,4-3.1c1.4-2.8,0.2-6.2-2.6-7.5c-2.8-1.4-6.2-0.2-7.5,2.6
						c-0.8,1.6-0.6,3.3,0.1,4.8c-0.5,0-1.1,0.3-1.6,0.4c0.3,3.7-1,9-2.3,11.6l10,4.8C507.5,208.5,507.8,202,505.5,198.8z"/>
					<path class="st6" d="M474.7,183.6c1.7-0.3,3.1-1.3,3.9-3c1.4-2.8,0.2-6.1-2.6-7.5c-2.8-1.4-6.2-0.2-7.5,2.6
						c-0.8,1.6-0.8,3.6,0,5.1c-4,0.2-8.9,4.5-10.8,8.4l10.8,5.3c1.3-2.6,4.3-6.5,7.2-8.6C475.4,185.1,475.1,184.2,474.7,183.6z"/>
				</g>
				<path class="st6" d="M603.9,444.9c2.6,2.8,7.1,2.8,9.9,0.2l5.5-5.1c2-1.9,2.7-4.7,1.9-7.2c-0.1,0.1-0.2,0.2-0.3,0.3l-6.5,6
					c-2.5,2.3-6.6,2.2-9-0.3l-0.1-0.1c-2.3-2.5-2.4-6.8,0.1-9.2l6.5-6c0.2-0.2,0.3-0.3,0.5-0.4c-2.5-1.3-5.7-1-7.9,1l-5.5,5.1
					c-2.8,2.6-2.8,7.4-0.2,10.2l0.8,0.9l-2.9,2.7L584,429.3l-4.2-1.2l-0.9,0.9l1.2,3.9l12.8,13.7l-3.3,3.1c-1.7-0.6-3.6-0.3-5,1.1
					l-8.6,8c-2.1,1.9-2.2,5.1-0.3,7.2l0.1,0.1c1.9,2.1,5.3,2.3,7.3,0.4l8.6-8c1.4-1.3,1.7-3.1,1.3-4.8l3.4-3.2l2.7,2.8
					c-0.6,1.7-0.3,3.6,1.1,5l8,8.6c1.9,2.1,5.1,2.2,7.2,0.3l0.1-0.1c2.1-1.9,2.3-5.3,0.4-7.3l-8-8.6c-1.3-1.4-3.1-1.7-4.8-1.3
					l-2.7-2.9l2.9-2.7L603.9,444.9z"/>
				<g>
					<path class="st6" d="M312.1,608h-0.9c-1.4,0-3,0.5-3,1.9v0.9c0,1.4,1.6,2.3,3,2.3h0.9c1.4,0,2.7-0.9,2.7-2.3v-0.9
						C314.8,608.5,313.4,608,312.1,608z"/>
					<path class="st6" d="M318.5,602h-0.9c-1.4,0-2.4,0.7-2.4,2.1v6.8c0,1.4,1,2.3,2.4,2.3h0.9c1.4,0,2.9-0.9,2.9-2.3V604
						C321.4,602.6,319.9,602,318.5,602z"/>
					<path class="st6" d="M325.7,596.9H325c-1.4,0-2.6,1.4-2.6,2.8v11.1c0,1.4,1.3,2.4,2.6,2.4h0.7c1.4,0,2.3-1,2.3-2.4v-11.1
						C328,598.3,327.1,596.9,325.7,596.9z"/>
					<path class="st6" d="M334.6,593.8c0-1.4-1.1-2.5-2.5-2.5h-0.5c-1.4,0-2.5,1.1-2.5,2.5v16.8c0,1.4,1.1,2.5,2.5,2.5h0.5
						c1.4,0,2.5-1.1,2.5-2.5V593.8z"/>
					<path class="st6" d="M339,585.2h-0.5c-1.4,0-2.4,1.3-2.4,2.6v22.6c0,1.4,1.1,2.6,2.4,2.6h0.5c1.4,0,2.6-1.2,2.6-2.6v-22.6
						C341.7,586.5,340.4,585.2,339,585.2z"/>
					<path class="st6" d="M341.3,570c-0.5-0.9-1.5-1.3-2.5-0.9l-8.7,3.3c-1,0.4-1.5,1.5-1.1,2.6c0.3,0.8,1.1,1.3,1.9,1.3
						c0.2,0,0.5,0,0.7-0.1l3.3-1.3c-10.1,14-25.8,19.9-26,20c-1,0.4-1.6,1.5-1.2,2.5c0.3,0.8,1.1,1.3,1.9,1.3c0.2,0,0.5,0,0.8-0.1
						c0.7-0.3,15.6-6,26.8-19.9v1.9c0,1.1,1.2,2,2.3,2c1.1,0,2.3-0.9,2.3-2v-9.3c0,0,0,0,0,0C341.7,570.8,341.5,570.3,341.3,570z"/>
				</g>
				<g>
					<path class="st6" d="M314.4,696.3c-2.4,1.3-4.8,1.7-7.8,1.7c-7.2,0-13.2-5.2-13.2-13.6c0-9,6.2-16.8,15.9-16.8
						c7.6,0,12.7,5.3,12.7,12.6c0,6.5-3.7,10.4-7.8,10.4c-1.7,0-3.4-1.2-3.2-3.8h-0.2c-1.5,2.6-3.5,3.8-6.2,3.8
						c-2.5,0-4.7-2.1-4.7-5.5c0-5.4,4.3-10.3,10.3-10.3c1.9,0,3.5,0.4,4.7,0.9l-1.5,7.9c-0.7,3.3-0.1,4.8,1.3,4.9
						c2.2,0,4.7-2.9,4.7-8c0-6.3-3.8-10.9-10.6-10.9c-7.1,0-13.1,5.6-13.1,14.5c0,7.3,4.8,11.8,11.2,11.8c2.5,0,4.8-0.5,6.6-1.5
						L314.4,696.3z M312,677.5c-0.4-0.1-1.2-0.3-2.2-0.3c-3.8,0-6.9,3.6-6.9,7.9c0,1.9,1,3.3,2.9,3.3c2.5,0,4.8-3.2,5.3-5.9
						L312,677.5z"/>
				</g>
				<g>
					<path class="st6" d="M683.3,199.2c-0.7-1.2,0.9-1.5-2.5-4c-3.5-2.5-3.8-3-4-4.2c-0.2-1.2-0.2-3.8-0.5-4.6
						c-0.3-0.8-4.8-1.1-3.9,4.1c0.3,1.5,0.8,2.5,1,3.3c0.2,0.9,0.1,1.4,0.1,1.4h-5c0,0-2.5,2.1,0,3.7c0,0-2.4,1.4,0,3.9
						c0,0-1.5,2.2,0.3,3.5c0,0-1.7,2.4,0.6,3.5l9.7,0.6c0,0,2.5-0.2,3-1.1l3.1,0.1v-9.6L683.3,199.2z"/>
					<path class="st6" d="M686.1,198.4v1.9v11.4h7.6v-13.3H686.1z M689.5,209c-0.6,0-1.1-0.5-1.1-1.1c0-0.6,0.5-1.1,1.1-1.1
						c0.6,0,1.1,0.5,1.1,1.1C690.5,208.5,690.1,209,689.5,209z"/>
				</g>
				<g>
					<path class="st6" d="M634.5,667.3c0,1.3-1.1,2.4-2.4,2.4c-1.3,0-2.4-1.1-2.4-2.4c0-1.3,1.1-2.4,2.4-2.4
						C633.5,664.9,634.5,665.9,634.5,667.3z"/>
					<g>
						<path class="st6" d="M637.8,667.1c-0.4,0-0.9-0.3-1-0.7c-0.7-1.9-2.5-3.3-4.6-3.3c-2,0-3.7,1.2-4.5,3
							c-0.2,0.5-0.8,0.8-1.4,0.6c-0.5-0.2-0.8-0.8-0.6-1.4c1.1-2.6,3.6-4.3,6.4-4.3c3,0,5.6,1.9,6.6,4.7c0.2,0.6-0.1,1.2-0.7,1.4
							C638,667.1,637.9,667.1,637.8,667.1z"/>
					</g>
					<g>
						<path class="st6" d="M641.4,664.7c-0.4,0-0.8-0.3-1-0.7c-1.3-3.4-4.5-5.7-8.2-5.7c-3.6,0-6.9,2.3-8.2,5.7
							c-0.2,0.6-0.8,0.8-1.4,0.6c-0.6-0.2-0.8-0.8-0.6-1.4c1.6-4.2,5.7-7,10.1-7c4.5,0,8.6,2.9,10.2,7.1c0.2,0.6-0.1,1.2-0.6,1.4
							C641.6,664.7,641.5,664.7,641.4,664.7z"/>
					</g>
				</g>
				<g>
					<path class="st6" d="M142.7,526.6c0,1.9-1.5,3.4-3.4,3.4c-1.9,0-3.4-1.5-3.4-3.4c0-1.9,1.5-3.4,3.4-3.4
						C141.1,523.2,142.7,524.7,142.7,526.6z"/>
					<g>
						<path class="st6" d="M147.3,526.4c-0.6,0-1.2-0.4-1.5-1c-1-2.8-3.6-4.7-6.6-4.7c-2.9,0-5.4,1.7-6.5,4.4
							c-0.3,0.8-1.2,1.2-2,0.8c-0.8-0.3-1.2-1.2-0.8-2c1.6-3.8,5.2-6.3,9.3-6.3c4.3,0,8.1,2.7,9.5,6.8c0.3,0.8-0.2,1.7-1,2
							C147.7,526.4,147.5,526.4,147.3,526.4z"/>
					</g>
					<g>
						<path class="st6" d="M152.5,522.8c-0.6,0-1.2-0.4-1.4-1c-1.8-4.9-6.6-8.3-11.8-8.3c-5.2,0-10,3.3-11.8,8.2
							c-0.3,0.8-1.2,1.2-2,0.9c-0.8-0.3-1.2-1.2-0.9-2c2.3-6.1,8.2-10.2,14.7-10.2c6.6,0,12.5,4.1,14.7,10.3c0.3,0.8-0.1,1.7-0.9,2
							C152.9,522.8,152.7,522.8,152.5,522.8z"/>
					</g>
				</g>
				<path class="st6" d="M714.9,282.8c0-13.5-13.2-12.1-13.2-12.1c-0.9,0.1-2.2-0.2-2.9-0.6l-2.4-1.5c-0.7-0.4-1.6-1.5-1.9-2.3
					c0,0-4.9-12.3-16.9-6.1c-12,6.2-16,18.4-16,18.4c-1.2,2.9-0.8,5.5,1.9,6.9c2.8,1.4,12.6-2,12.6-2c0.8-0.3,2.1-0.1,2.8,0.3
					l14.5,8.8c0.7,0.4,1.4,1.5,1.6,2.4c0,0,1.6,10.3,4.1,12.1c2.5,1.8,5,0.9,7-1.5C706.1,305.6,715,296.3,714.9,282.8z M689.2,272.7
					l-1.9,3.1l-0.2,0.3l-0.3-0.2l-3.1-1.9l-1.9,3.1l-0.2,0.3l-0.3-0.2l-3.1-1.9l-0.3-0.2l0.2-0.3l1.9-3.1l-3.1-1.9l-0.3-0.2l0.2-0.3
					l1.9-3.1l0.2-0.3l0.3,0.2l3.1,1.9l1.9-3.1l0.2-0.3l0.3,0.2l3.1,1.9l0.3,0.2l-0.2,0.3l-1.9,3.1l3.1,1.9l0.3,0.2L689.2,272.7z
					 M698.2,288.4c-1.4-0.8-1.8-2.6-1-4c0.8-1.4,2.6-1.8,4-1c1.4,0.8,1.8,2.6,1,4C701.3,288.7,699.5,289.2,698.2,288.4z
					 M702.3,281.6c-1.4-0.8-1.8-2.6-1-4c0.8-1.4,2.6-1.8,4-1c1.4,0.8,1.8,2.6,1,4C705.4,282,703.6,282.4,702.3,281.6z M706.2,288.9
					c-1.4-0.8-1.8-2.6-1-4c0.8-1.4,2.6-1.8,4-1c1.4,0.8,1.8,2.6,1,4C709.3,289.3,707.6,289.7,706.2,288.9z"/>
				<g>
					<path class="st6" d="M684.1,495.5c0.3,0.1,0.6,0.2,0.9,0.3c2,0.8,3.8,3.4,3,7l-0.4,1.2c-1.3,3.3-5.1,6.8-14.3,9.8
						c-6-7.5-7.3-12.5-6.5-16l0.4-1.2c1.4-3.5,4.3-4.6,6.4-4.2c0.3,0.1,0.7,0.1,1,0.2c2.4,0.7,3.2,2.1,4,4
						C680.3,495.5,681.7,494.8,684.1,495.5"/>
				</g>
				<g>
					<path class="st6" d="M459.5,61c0.4-0.2,0.8-0.4,1.2-0.6c2.7-1.2,7-0.4,9.9,4l0.8,1.5c2,4.6,1.6,11.7-4.4,23.7
						c-13.3-1.6-19.5-5.2-22.2-9.4l-0.8-1.5c-2.1-4.8-0.4-8.8,2.1-10.4c0.4-0.3,0.8-0.5,1.2-0.7c3-1.6,5.2-1.1,7.9,0
						C455.8,64.7,456.5,62.6,459.5,61"/>
				</g>
				<path class="st6" d="M134.1,617.4v28.4h39.1v-28.4H134.1z M153.6,635.6l4.9-3.5l10.4,10.8h-30.6l10.4-10.8L153.6,635.6z
					 M153.6,630.5l-12.5-9h24.9L153.6,630.5z M147.2,631L137,641.6v-18L147.2,631z M170.2,641.7L160,631l10.2-7.3V641.7z"/>
				<path class="st6" d="M551.5,640.2H548v33.8c-1.8-1.4-4.2-2.3-6.7-2.3c-5.7,0-10.3,4.2-10.3,9.3s4.6,9.3,10.3,9.3
					c5.7,0,10.3-4.2,10.3-9.3v-27.4c18.9,16,26.8,4.4,26.8,4.4C564,663.5,551.5,640.2,551.5,640.2z"/>
				<path class="st6" d="M318.5,55l-3.1-1.6l-15.5,30.1c-0.9-2.1-2.6-4-4.9-5.1c-5-2.6-11-1-13.4,3.6c-2.4,4.6-0.2,10.4,4.8,13
					s11,1,13.4-3.6L312.3,67c9.5,22.9,21.8,16.1,21.8,16.1C318.9,81.3,318.5,55,318.5,55z"/>
				<path class="st6" d="M131.5,283.9c-5.4-5.4-14.2-5.4-19.6,0c-5.4,5.4-5.4,14.2,0,19.6c5,5,12.8,5.4,18.3,1.2l16,16l2.5-2.5
					l-16-16C136.9,296.7,136.5,288.9,131.5,283.9z M129,301c-4,4-10.5,4-14.6,0c-4-4-4-10.5,0-14.5c4-4,10.5-4,14.6,0
					C133,290.5,133,297,129,301z"/>
			</g>
		</g>
		<g>
			<g>
				<path class="st7" d="M653.8,570c0,27.1-21.9,49-49,49c-27.1,0-49-21.9-49-49s21.9-49,49-49C631.9,521,653.8,542.9,653.8,570z"/>
				<g>
					<path class="st8" d="M619.4,598.9c-3.5-1.5-4.7-3.9-5-6.8c2.3-1.9,4.2-4.6,5.6-7.6c1-0.4,1.9-1.1,2.6-2
						c0.9-1.2,1.5-2.7,1.8-4.3c0.3-1.6,0.4-3.3,0.1-4.9c-0.2-1.2-0.5-2.2-1-3.2c-0.6-5.4-2.8-10.3-5.8-13.8
						c-0.6-0.8-1.4-1.5-2.2-2.2c2.7-6.7-4.8-13.3-13.6-10.4c2.3,1.3,4.1,3.6,3,5.7c-2.5-7.2-11-5.1-11.2-2.7c2.2,1.6,2.8,3,2.8,5.6
						c-2.4,0-3.3-1.7-4.2-4.1c-1.2,2.8-1.3,5.8-0.5,8.4c-3,3.4-5.1,8-5.5,12.7c0,0.4,0,0.7,0,1c-0.5,0.9-0.8,2-1,3.1
						c-0.2,1.6-0.2,3.3,0.1,4.9c0.3,1.6,1,3.1,1.8,4.3c0.7,0.9,1.6,1.6,2.6,2c1.4,3,3.2,5.6,5.6,7.6c-0.3,2.9-1.5,5.3-5,6.8
						c-6.1,2.5-14,3.7-17.3,8.5c8.5,7.2,19.5,11.6,31.6,11.6c12.1,0,23.2-4.4,31.8-11.7C633.2,602.6,625.4,601.4,619.4,598.9z"/>
					<g>
						<path class="st9" d="M621.9,571.5c1.8,4,0.3,10.9-3.4,11.5c-2.5,6-7.2,10.4-13.5,10.4c-6.4,0-11-4.5-13.5-10.4
							c-3.7-0.6-5.2-7.5-3.5-11.5c0.1,0,0.1-0.1,0.2-0.1c2.5-1.6,3.2,5.8,3.3,6.5c0,2.6,2.8,3.5,2.2,1.7c-0.6-1.8-1.5-4.7-1.6-8.3
							c0-0.1,0-0.1,0-0.2c-0.1-2.8,0.6-5.8,1.7-8.6c0.4-0.6,0.8-1,1.2-1.4c3.4,2.6,9,3.2,16.6-0.4c0,0,0.1,0,0.1,0
							c2.6-0.6,3.4,0.2,4.5,1.8c0,0,0,0.1,0.1,0.1c1.1,2.6,1.7,5.5,1.7,8.2c0,0.2,0,0.3,0,0.5c-0.1,3.6-0.9,6.5-1.6,8.3
							c-0.6,1.8,2.2,0.9,2.2-1.7c0-0.7,0.8-8.1,3.3-6.5C621.8,571.4,621.9,571.4,621.9,571.5z"/>
						<path class="st9" d="M595.1,597.9c1.2-1.3,2.2-2.8,2.6-4.2c2.1,1.2,4.5,1.9,7.2,1.9c2.8,0,5.2-0.7,7.4-2
							c0.5,1.8,1.5,3.6,2.9,5.1c-4.3,5.3-7.2,7.3-10.1,10.4C602.7,607.5,599.4,604,595.1,597.9z"/>
						<path class="st9" d="M605.1,615.2c-0.2-2.9-3.8-5.4-4.9-6.5c-2.1,0.9-2.8,2.9-4.2,4.7c-1.4-1.8-5.2-7.2-6.4-12.1
							c1.5-0.3,3-1.2,4.3-2.3c0,0.1,0.1,0.3,0.1,0.4c2.8,3.9,7.9,9.7,11.1,12.3c3.4-4.5,7.3-7.8,11.2-12c1,0.8,2.2,1.4,3.6,1.8
							c-1.4,3.5-3.7,9.5-5.9,11.8c-1.3-1.6-2.1-4-4.3-5.3C607.8,609.3,605.4,613.2,605.1,615.2z"/>
					</g>
					<g>
						<path class="st10" d="M621.9,571.5c0,0-0.1-0.1-0.2-0.1c-2.5-1.6-3.2,5.8-3.3,6.5c0,2.6-2.8,3.5-2.2,1.7
							c0.6-1.8,1.5-4.7,1.6-8.3c0-0.1,0-0.3,0-0.5c0-2.7-0.6-5.5-1.7-8.2c0,0,0-0.1-0.1-0.1c-1.1-1.6-1.9-2.4-4.5-1.8
							c0,0-0.1,0-0.1,0c-2.6,1.2-5,1.9-7.1,2.3v30.4c0.2,0,0.3,0,0.5,0c6.4,0,11-4.5,13.5-10.4C622.2,582.4,623.7,575.5,621.9,571.5
							z"/>
						<path class="st10" d="M612.4,593.6c-2.2,1.3-4.6,2-7.4,2c-0.2,0-0.3,0-0.5,0v13c0.2,0.2,0.5,0.3,0.7,0.5
							c2.9-3.1,5.8-5.2,10.1-10.4C613.9,597.2,612.9,595.4,612.4,593.6z"/>
						<path class="st10" d="M616.4,599.7c-3.9,4.2-7.8,7.5-11.2,12c-0.2-0.2-0.5-0.4-0.7-0.6v2.2c0.3,0.6,0.5,1.2,0.6,1.9
							c0.3-1.9,2.8-5.9,4.7-7.2c2.2,1.3,3.1,3.8,4.3,5.3c2.3-2.3,4.5-8.2,5.9-11.8C618.7,601.1,617.5,600.5,616.4,599.7z"/>
					</g>
					<path class="st11" d="M599,585h10.9C609.8,585,603.8,595,599,585z"/>
					<g>
						<g>
							<path class="st8" d="M618,571.2c0,2.7-2.2,4.8-4.8,4.8h-3.3c-2.7,0-4.8-2.2-4.8-4.8v-0.3c0-2.7,2.2-4.8,4.8-4.8h3.3
								c2.7,0,4.8,2.2,4.8,4.8V571.2z"/>
							<path class="st8" d="M604,571.2c0,2.7-2.2,4.8-4.8,4.8h-3.3c-2.7,0-4.8-2.2-4.8-4.8v-0.3c0-2.7,2.2-4.8,4.8-4.8h3.3
								c2.7,0,4.8,2.2,4.8,4.8V571.2z"/>
						</g>
					</g>
				</g>
			</g>
			<g>
				<path class="st11" d="M463.8,640c0,27.1-21.9,49-49,49c-27.1,0-49-21.9-49-49s21.9-49,49-49C441.9,591,463.8,612.9,463.8,640z"
					/>
				<g>
					<path class="st12" d="M450,674c-4.4-4.1-12.3-5.4-18.4-8c-1.8-0.8-3.1-1.7-4-2.9c3.3-1,6.1-2.6,8-4.5c-2.4-0.5-3.2-1.7-3.4-2.7
						c3,0,8-0.3,11.4-6.4c-3.6,0.6-5,0-6.3-1.2c4.3-0.7,8.9-4,8.4-6.9c-10.5,6.9-2.9-41.4-30.8-33.4c-27.3-5.8-20.4,40.3-30.8,33.4
						c-0.5,2.9,4.1,6.2,8.4,6.9c-1.4,1.2-2.7,1.8-6.3,1.2c3.4,6.1,8.4,6.3,11.4,6.4c-0.2,1-1,2.3-3.4,2.7c1.8,2,4.6,3.5,8,4.5
						c-0.9,1.2-2.2,2.1-4,2.9c-6.2,2.6-14,3.9-18.4,8c0.7,0.7,1.5,1.5,2.2,2.2c1-1.4,2.5-2.5,4.4-3.1l0,0.1c1.5,2.9,3.7,6.6,8,9.6
						c4.3,3,10.8,5.3,20.8,5.3c10.1,0,16.5-2.3,20.8-5.3c4.2-3,6.4-6.7,8-9.6l0-0.1c1.8,0.6,3.1,1.6,4.2,2.9
						C448.7,675.3,449.4,674.7,450,674z"/>
					<path class="st9" d="M433.2,632.2c3.9,3.8,2.4,14.5-2.6,15.4c-2.9,6.9-8.3,12.1-15.7,12.1s-12.8-5.2-15.7-12.1
						c-5.1-0.9-6.6-11.6-2.6-15.4c1,0.1,1.7,1.5,2.2,2.9c0.9,2.7,1.4,4.1,1.2-1.1c-0.1-1.5,0.1-3,0.3-4.5c1.5-0.4,3.7-1.5,6.6-2.4
						c0.1-1.9,0.9-4,4.2-7.1c-0.4,1.2-1.4,3.5-1.6,6.4c3.9-0.8,7.9-0.7,11.8,0.1c-0.2-3-1.2-5.3-1.6-6.6c3.4,3.2,4.1,5.3,4.2,7.2
						c2.4,0.7,4.4,1.6,5.9,2.1c0.3,1.6,0.4,3.1,0.3,4.7c-0.2,5.1,0.2,3.8,1.1,1.1C431.5,633.6,432.2,632.2,433.2,632.2z"/>
					<path class="st10" d="M433.2,632.2c-1,0.1-1.7,1.5-2.2,2.9c-0.9,2.7-1.3,4.1-1.1-1.1c0.1-1.5-0.1-3.1-0.3-4.7
						c-1.5-0.5-3.4-1.3-5.9-2.1c-0.1-1.9-0.8-4-4.2-7.2c0.4,1.2,1.4,3.5,1.6,6.6c-2-0.5-4.1-0.7-6.2-0.7v33.8
						c7.3-0.1,12.6-5.2,15.6-12.1C435.6,646.7,437.1,635.9,433.2,632.2z"/>
					<path class="st9" d="M388.2,672.3c0.7,2.6,3.8,7,10.1,10.1c10,5,21.9,5.1,32.1,0.4c6.8-3.1,10.2-7.6,11-10.4
						c-3.8-1.3-8.2-2.4-12.3-4.2c-3.1-1.4-4.9-4.6-5.8-8.3c-2.5,1.4-5.3,2.2-8.4,2.2c-3.1,0-6-0.8-8.5-2.3c-1,3.8-3,7.1-6.3,8.4
						C396.1,669.8,391.8,670.9,388.2,672.3z"/>
					<path class="st10" d="M429.1,668.3c-3.1-1.4-4.9-4.6-5.8-8.3c-2.4,1.4-5.2,2.2-8.2,2.2v24c5.3,0,10.6-1.2,15.4-3.4
						c6.8-3.1,10.2-7.6,11-10.4C437.7,671.1,433.2,670.1,429.1,668.3z"/>
					<g>
						<g>
							<path class="st13" d="M403.3,668.7c0,1.3-1,2.3-2.3,2.3c-1.3,0-2.3-1-2.3-2.3c0-1.3,1-2.3,2.3-2.3
								C402.3,666.3,403.3,667.4,403.3,668.7z"/>
							<path class="st13" d="M408.3,674.7c0,1.3-1,2.3-2.3,2.3c-1.3,0-2.3-1-2.3-2.3c0-1.3,1-2.3,2.3-2.3
								C407.3,672.3,408.3,673.4,408.3,674.7z"/>
							<path class="st13" d="M417.3,676.7c0,1.3-1,2.3-2.3,2.3c-1.3,0-2.3-1-2.3-2.3c0-1.3,1-2.3,2.3-2.3
								C416.3,674.3,417.3,675.4,417.3,676.7z"/>
							<path class="st13" d="M425.3,672.7c0,1.3-1,2.3-2.3,2.3c-1.3,0-2.3-1-2.3-2.3c0-1.3,1-2.3,2.3-2.3
								C424.3,670.3,425.3,671.4,425.3,672.7z"/>
							<path class="st13" d="M431.3,667.7c0,1.3-1,2.3-2.3,2.3c-1.3,0-2.3-1-2.3-2.3c0-1.3,1-2.3,2.3-2.3
								C430.3,665.3,431.3,666.4,431.3,667.7z"/>
						</g>
					</g>
					<path class="st11" d="M407,651h15C422,651,414.5,660.5,407,651z"/>
					<path class="st13" d="M433.6,634.2c0,2.5-4.2,4.5-9.3,4.5c-5.1,0-9.3-2-9.3-4.5c0-2.5,4.2-4.5,9.3-4.5
						C429.5,629.7,433.6,631.7,433.6,634.2z"/>
					<path class="st13" d="M416.6,634.2c0,2.5-4.2,4.5-9.3,4.5c-5.1,0-9.3-2-9.3-4.5c0-2.5,4.2-4.5,9.3-4.5
						C412.5,629.7,416.6,631.7,416.6,634.2z"/>
				</g>
			</g>
			<g>
				<path class="st7" d="M282.8,585c0,27.1-21.9,49-49,49c-27.1,0-49-21.9-49-49s21.9-49,49-49C260.9,536,282.8,557.9,282.8,585z"/>
				<g>
					<path class="st14" d="M249.6,611.8c-3.7-1.6-5.1-4.1-5.4-7.2c2.5-2.1,4.5-4.9,6-8.1c1.1-0.4,2-1.1,2.8-2.1
						c0.9-1.2,1.6-2.9,2-4.6c0.3-1.7,0.4-3.5,0.1-5.2c-0.2-1.2-0.6-2.4-1.1-3.4c-0.6-5.7-3-11-6.1-14.7c-1.9-2.3-4.5-4.3-7.6-5.6
						c1.8-3.4,0.4-7.5-1.1-8.1c0.2,2.8-0.6,4.5-2,5.5c0.4-3.5-1.7-6.5-3.5-6.7c1.9,5.5-7.6,9.7-10.9,12.5c-4.3,3.7-7.9,9.7-8.4,16
						c0,0.4,0,0.8,0,1.1c-0.5,1-0.8,2.1-1,3.3c-0.3,1.7-0.2,3.5,0.1,5.2c0.4,1.7,1,3.4,2,4.6c0.8,1,1.7,1.8,2.8,2.1
						c1.5,3.2,3.5,6,6,8.1c-0.3,3.1-1.6,5.7-5.4,7.2c-6.4,2.7-14.9,3.9-18.4,9c8.8,8.2,20.5,13.2,33.4,13.2
						c13.1,0,25.1-5.2,33.9-13.6C264,615.6,255.9,614.4,249.6,611.8z"/>
					<path class="st9" d="M234.3,629.1c5.6-2.4,12.6-6.5,13.6-15.3c-3.1-1.2-4.9-4.2-5.8-7.7c-2.3,1.4-4.9,2.2-7.9,2.2
						c-2.9,0-5.4-0.7-7.7-2c-1,3.5-2.7,6.5-5.8,7.6C221.7,622.6,228.7,626.7,234.3,629.1z"/>
					<path class="st9" d="M222.1,589.5c0.7,1.9-2.2,1-2.3-1.8c0-0.4,0-3.3-1-5.1c-1-1.9-2.1-1.4-2.9,0.4c-1.8,4.1,0.1,11.1,3.9,11.8
						c2.7,6.4,7.6,11.1,14.4,11.1s11.7-4.8,14.4-11.1c3.8-0.7,5.5-7.3,3.9-11.6c-1-2.6-2.3-2.4-3.1,0c-0.7,1.8-0.8,4.1-0.8,4.5
						c0,2.8-3,3.8-2.3,1.8c0.7-1.9,1.6-5,1.7-8.9c0-0.1,0-0.3,0-0.4c-0.2-2.4-0.8-4.9-1.8-7.2l-0.1-0.1c-1.3-1.8-2.1-2.7-5.3-1.8
						c-1.8,0.5-4,0.8-6.3,0.8c-2.3,0-4.5-0.3-6.3-0.8c-3.5-1-4.9-0.1-6.1,1.8c-1.1,2.6-1.8,5.4-1.8,8.1
						C220.6,584.8,221.4,587.7,222.1,589.5z"/>
					<g>
						<path class="st10" d="M242.1,606.1c-2.3,1.4-4.9,2.2-7.9,2.2c-0.4,0-0.7,0-1.1,0v20.4c0.4,0.2,0.8,0.4,1.2,0.5
							c5.6-2.4,12.6-6.5,13.6-15.3C244.8,612.7,243,609.6,242.1,606.1z"/>
						<path class="st10" d="M252.6,583.2c-1-2.6-2.3-2.4-3.1,0c-0.7,1.8-0.8,4.1-0.8,4.5c0,2.8-3,3.8-2.3,1.8c0.7-1.9,1.6-5,1.7-8.9
							c0-0.1,0-0.3,0-0.4c-0.2-2.4-0.8-4.9-1.8-7.2l-0.1-0.1c-1.3-1.8-2.1-2.7-5.3-1.8c-1.8,0.5-4,0.8-6.3,0.8c-0.5,0-1,0-1.5,0v34
							c0.4,0,0.7,0,1.1,0c6.8,0,11.7-4.8,14.4-11.1C252.4,594.1,254.2,587.5,252.6,583.2z"/>
					</g>
					<g>
						<g>
							<rect x="235" y="577" class="st14" width="13" height="10"/>
							<rect x="220" y="577" class="st14" width="12" height="10"/>
						</g>
					</g>
				</g>
			</g>
			<g>
				<path class="st11" d="M194.8,416c0,27.1-21.9,49-49,49c-27.1,0-49-21.9-49-49s21.9-49,49-49C172.9,367,194.8,388.9,194.8,416z"
					/>
				<g>
					<g>
						<g>
							<path class="st15" d="M171.2,442.4c5.2-11.4-7.3-9.2-3.9-14.6c4-6.1-1.6-9.1-2.2-14c-1.3-10.7-6.5-18.9-19.2-18.9
								c-12.7,0-17.9,8.2-19.2,18.9c-0.6,4.8-6.2,7.8-2.2,14c3.5,5.4-9.1,3.2-3.9,14.6c2.2,4.8-9.2,2.8-5.1,11.7
								c-0.1,0.1-0.1,0.2-0.2,0.2c8.4,6.6,18.9,10.6,30.5,10.6c11.5,0,22.1-4,30.5-10.6c0,0,0-0.1-0.1-0.1
								C180.6,445.2,169,447.3,171.2,442.4z"/>
						</g>
					</g>
					<g>
						<path class="st9" d="M129.3,414.1c3.8-20.9,29.3-20.8,33.1,0c-0.4-0.7-0.9-1.3-1.4-2c-0.4-1.9-1.7-2.5-2.9-3.1
							c-0.6-0.5-1.1-1-1.7-1.4c-0.3-0.4-0.4-1-0.4-1.7c0-7.1-14.4-9.5-22.4,3C132,410.4,130.6,412.1,129.3,414.1z"/>
						<path class="st9" d="M118.6,455.2c3.1-3.4,9.3-4.1,15.1-6.3c3.6-1.3,4.3-4.1,4.2-7.3c2.3,1.5,4.9,2.3,7.9,2.3
							c3,0,5.6-0.9,7.9-2.3c-0.1,3.2,0.6,5.9,4.2,7.3c5.8,2.2,12,2.8,15.1,6.3C174.7,461.9,117.1,461.2,118.6,455.2z"/>
						<path class="st9" d="M153.7,464.4c0.4-0.1,0.9-0.2,1.3-0.2c0.4-0.1,0.7-0.2,1.1-0.3c0-0.1,0.1-0.3,0.1-0.5
							c0-0.9-0.7-1.7-1.6-1.7c-0.9,0-1.6,0.8-1.6,1.7c0,0.4,0.1,0.7,0.3,1C153.4,464.4,153.6,464.4,153.7,464.4z"/>
						<path class="st9" d="M144.1,464.9c0.2,0,0.4,0,0.6,0c0.4,0,0.9,0,1.3,0c0.4-0.3,0.6-0.8,0.6-1.3c0-0.9-0.7-1.7-1.6-1.7
							c-0.9,0-1.6,0.8-1.6,1.7C143.4,464.1,143.7,464.6,144.1,464.9z"/>
						<path class="st9" d="M137,464c0.1-0.2,0.1-0.4,0.1-0.7c0-0.9-0.7-1.7-1.6-1.7c-0.9,0-1.6,0.8-1.6,1.7c0,0,0,0.1,0,0.1
							C135,463.6,136,463.8,137,464z"/>
						<path class="st9" d="M159.2,431.3c-2.5,5.9-7.1,10.3-13.4,10.3s-10.9-4.4-13.4-10.3c-3.2-0.6-4.8-5.9-3.9-9.8
							c0.7-3,2.2-3.6,3.5-0.8c1,2.2,1.2,3.4,1-0.9c0-0.4,0-0.8,0-1.1c0.2-4.5,2-7.8,4.5-9.9c7-2.9,14,1.2,13.1,4.9
							c-2.3,9.4,7.4,1,4.7,8.4c-1.9,5.3,1.5,9.2,3.8,9.2C159.2,431.2,159.2,431.3,159.2,431.3z"/>
						<path class="st9" d="M163.2,421.6c0.5,2.2,0.1,4.9-0.8,6.9c-0.8-0.6-1.6-1-2.5-1.1c-1.8-0.1-1.6-2.5-1-4.8
							c0.2-0.3,0.4-1,0.6-1.8C160.5,418.1,162.5,418.5,163.2,421.6z"/>
					</g>
					<g>
						<path class="st10" d="M145,398.5v1.9c5.8-1.3,11,1.3,11,5.5c0,0.7,0.2,1.2,0.4,1.7c0.6,0.4,1.1,0.9,1.7,1.4
							c1.2,0.6,2.5,1.2,2.9,3.1c0.5,0.6,1,1.3,1.4,2C160.4,403.3,152.6,398.1,145,398.5z"/>
						<path class="st10" d="M173,455.2c-3.1-3.4-9.4-4.1-15.1-6.3c-3.6-1.3-4.3-4.1-4.2-7.3c-2.3,1.5-4.9,2.3-7.9,2.3
							c-0.3,0-0.6,0-0.8,0v16C159.3,460.1,173.9,458.6,173,455.2z"/>
						<path class="st10" d="M153.7,464.4c0.4-0.1,0.9-0.2,1.3-0.2c0.4-0.1,0.7-0.2,1.1-0.3c0-0.1,0.1-0.3,0.1-0.5
							c0-0.9-0.7-1.7-1.6-1.7c-0.9,0-1.6,0.8-1.6,1.7c0,0.4,0.1,0.7,0.3,1C153.4,464.4,153.6,464.4,153.7,464.4z"/>
						<path class="st10" d="M146,464.9c0.4-0.3,0.6-0.8,0.6-1.3c0-0.9-0.7-1.7-1.6-1.7c0,0,0,0-0.1,0v3.1
							C145.4,464.9,145.7,464.9,146,464.9z"/>
						<path class="st10" d="M155.4,422c2.6-7.4-7,1.1-4.7-8.4c0.6-2.3-2-4.7-5.7-5.6v33.5c0.3,0,0.6,0,0.8,0
							c6.3,0,10.9-4.4,13.4-10.3c0,0,0-0.1,0-0.2C156.9,431.2,153.5,427.3,155.4,422z"/>
						<path class="st10" d="M163.2,421.6c0.5,2.2,0.1,4.9-0.8,6.9c-0.8-0.6-1.6-1-2.5-1.1c-1.8-0.1-1.6-2.5-1-4.8
							c0.2-0.3,0.4-1,0.6-1.8C160.5,418.1,162.5,418.5,163.2,421.6z"/>
					</g>
					<path class="st16" d="M151.5,419.4c2.3-0.5,5.6-0.8,6.9-0.1c0.6,0.4-0.4,4-3.4,6.2c-1.1,0.8-2.3,1.2-3.5,1.3v-1
						c0.7,0,1.4-0.2,2.1-0.6c2.1-1.3,2.5-3.8,1.8-4.3c-0.5-0.4-2.1-0.5-3.9-0.2L151.5,419.4L151.5,419.4z M138.1,419.4l0.3,0.1
						c1.6,0.4,3,1.1,4.4,1.5c1.3,0.4,2.5,0.4,3.8,0.1c1.5-0.4,3-1.1,4.7-1.5l0.3-0.1v1.2c-0.6,0.1-1.2,0.2-1.8,0.4
						c-2.4,0.7-3,1.9-1.8,3.2c0.8,0.9,2.2,1.6,3.6,1.5v1c-1.2,0.1-2.4-0.2-3.4-0.8c-1.1-0.7-1.8-1.9-2.3-2.7c-0.6-0.8-1.3-0.8-2,0
						c-0.6,0.8-1.2,2-2.3,2.7c-1,0.6-2.2,0.9-3.4,0.8v-1c1.4,0.1,2.8-0.6,3.6-1.5c1.2-1.4,0.6-2.5-1.8-3.2c-0.6-0.2-1.2-0.3-1.8-0.4
						L138.1,419.4L138.1,419.4z M131.3,419.3c1.2-0.7,4.6-0.4,6.9,0.1v1.2c-1.8-0.3-3.4-0.2-3.9,0.2c-0.7,0.5-0.2,3,1.8,4.3
						c0.7,0.4,1.4,0.6,2.1,0.6v1c-1.2-0.1-2.4-0.5-3.5-1.3C131.6,423.3,130.6,419.7,131.3,419.3z"/>
				</g>
			</g>
			<g>
				<path class="st7" d="M249.8,232c0,27.1-21.9,49-49,49c-27.1,0-49-21.9-49-49s21.9-49,49-49C227.9,183,249.8,204.9,249.8,232z"/>
				<g>
					<g>
						<g>
							<path class="st17" d="M234.4,267.6c-4-3.7-11-4.9-16.6-7.2c-3.2-1.3-4.6-3.5-5.1-6c1.5-1.6,2.9-3.4,3.7-5.4
								c0.7-1.1,1.4-2.3,1.9-3.5c1.1-0.4,2-1.1,2.7-2.1c0.9-1.2,1.6-2.8,1.9-4.5c0.3-1.6,0.4-3.4,0.1-5.1c-0.2-1.2-0.5-2.3-1.1-3.3
								c-1.9-15.8-8.7-24.8-22.3-21c-1.1,0.2-2.1,0.4-3.1,0.7c-9.5,0.4-12.5,11.6-13.2,20.3c-0.5,1-0.9,2.1-1.1,3.4
								c-0.3,1.7-0.2,3.4,0.1,5.1c0.3,1.7,1,3.3,1.9,4.5c0.7,1,1.7,1.7,2.7,2.1c0.6,1.3,1.3,2.5,2.1,3.7c0.8,1.9,2.1,3.6,3.6,5.1
								c-0.5,2.6-1.9,4.7-5.1,6.1c-6.5,2.7-15,3.9-18.3,9.3c8.5,7,19.4,11.3,31.3,11.3C213.9,281,225.7,275.9,234.4,267.6z"/>
						</g>
					</g>
					<path class="st13" d="M223.2,233.9c-0.2-1.2-0.5-2.3-1.1-3.3c-1.9-15.8-8.7-24.8-22.3-21c-1.1,0.2-2.1,0.4-3.1,0.7
						c-9.5,0.4-12.5,11.6-13.2,20.3c-0.5,1-0.9,2.1-1.1,3.4c-0.3,1.7-0.2,3.4,0.1,5.1c0.3,1.7,1,3.3,1.9,4.5c0.7,1,1.7,1.7,2.7,2.1
						c2,4.4,5,9.3,9.3,11.8c1.5,0.9,3.2,1.8,5,2c3.6,0.4,6-1.1,8.9-2.9c1.5-1,2.8-2.3,3.9-3.6c0.9-1.1,1.4-2.5,2.2-3.8
						c0.7-1.1,1.4-2.3,1.9-3.5c1.1-0.4,2-1.1,2.7-2.1c0.9-1.2,1.6-2.8,1.9-4.5C223.4,237.3,223.5,235.5,223.2,233.9z"/>
					<g>
						<path class="st9" d="M189.7,262.4c2.6-1,4.3-3.4,5.3-6.3c2.6,2,5.3,3.2,7.4,3.2c0.2,0,0.3,0,0.4,0c0.1,0,0.3,0,0.4,0
							c2.1,0,5-1.3,7.6-3.3c1,2.9,2.7,5.4,5.3,6.4c-4.6,5.9-7.7,8.8-13.3,11C197.6,271.7,194.1,269,189.7,262.4z"/>
						<path class="st9" d="M203,277.3c0.6,0,1,0.5,1,1.1c0,0.6-0.4,1.1-1,1.1c-0.6,0-1-0.5-1-1.1C202,277.8,202.4,277.3,203,277.3z"
							/>
						<path class="st9" d="M203,274.5c0.6,0,1,0.5,1,1.1c0,0.6-0.4,1.1-1,1.1c-0.6,0-1-0.5-1-1.1C202,274.9,202.4,274.5,203,274.5z"
							/>
						<path class="st9" d="M195.9,248.6c-0.1,2,1.3,3.9,4.1,4.9c1.1,0.4,1.8-1.1,2.9-1.1c1.1,0,1.8,1.5,2.9,1.1
							c2.6-0.9,3.8-2.7,3.8-4.6C209.7,243.7,196.2,243.9,195.9,248.6z"/>
						<path class="st9" d="M188.3,243.7c-3.4-1.1-4.7-7.3-3.3-11.3c0.9-2.7,2.5-3.1,3.2,0.1C188.6,235,188.6,239.1,188.3,243.7z"/>
						<path class="st9" d="M220.8,232.5c1.3,4,0,10-3.3,11.2c-0.3-4.7-0.2-8.2,0.1-10.5C218.1,229.7,219.6,228.8,220.8,232.5z"/>
						<path class="st9" d="M194.4,244.6c0.1-0.1,0.2-0.2,0.3-0.3c1.5-1.2,4.1-2.4,8-1.7c3.9-0.6,6.5,0.5,8,1.7
							c0.1,0.1,0.2,0.2,0.3,0.3c3.8,2.3,5.2-7.3,5.3-13.6c-8.1-0.5-11.6-5.8-17.4-8.4c-3.4-1.5-6.7-1.8-7.9,0.2
							c-0.9,1.5-1.4,3.4-1.6,5.6c0,0.1,0,0.3,0,0.4C189.2,234.7,190.1,247.2,194.4,244.6z"/>
					</g>
					<g>
						<path class="st10" d="M210.9,256.1c-2.6,2.1-5.4,3.3-7.6,3.3c-0.2,0-0.3,0-0.4,0c-0.1,0-0.3,0-0.4,0c0,0-0.1,0-0.1,0v13.9
							c0.2,0.1,0.3,0.1,0.5,0.2c5.7-2.2,8.8-5.1,13.3-11C213.6,261.4,211.9,259,210.9,256.1z"/>
						<path class="st10" d="M202.3,245v7.5c0.2-0.1,0.4-0.1,0.5-0.1c1.1,0,1.8,1.5,2.9,1.1c2.6-0.9,3.8-2.7,3.8-4.6
							C209.6,246.2,205.9,244.9,202.3,245z"/>
						<path class="st10" d="M220.8,232.5c1.3,4,0,10-3.3,11.2c-0.3-4.7-0.2-8.2,0.1-10.5C218.1,229.7,219.6,228.8,220.8,232.5z"/>
						<path class="st10" d="M202.3,224.5v18c0.1,0,0.3,0,0.4,0c3.9-0.6,6.5,0.5,8,1.7c0.1,0.1,0.2,0.2,0.3,0.3
							c3.8,2.3,5.2-7.3,5.3-13.6C210,230.6,206.4,227.2,202.3,224.5z"/>
					</g>
				</g>
			</g>
			<g>
				<path class="st7" d="M549.6,427.4c0,26.2-21.2,47.4-47.4,47.4s-47.4-21.2-47.4-47.4c0-26.2,21.2-47.4,47.4-47.4
					C528.4,380,549.6,401.2,549.6,427.4z"/>
				<g>
					<g>
						<g>
							<path class="st17" d="M534.8,461.8c-3.8-3.6-10.7-4.7-16-6.9c-3.1-1.3-4.5-3.4-4.9-5.8c1.5-1.5,2.8-3.3,3.6-5.2
								c0.7-1.1,1.3-2.2,1.9-3.4c1-0.4,1.9-1.1,2.6-2c0.9-1.2,1.5-2.7,1.9-4.3c0.3-1.6,0.4-3.3,0.1-4.9c-0.2-1.2-0.5-2.3-1-3.2
								c-1.8-15.3-8.4-24-21.6-20.3c-1,0.2-2,0.4-3,0.7c-9.2,0.4-12.1,11.2-12.8,19.6c-0.5,1-0.9,2.1-1,3.2
								c-0.2,1.6-0.2,3.3,0.1,4.9c0.3,1.6,1,3.2,1.9,4.3c0.7,0.9,1.6,1.7,2.6,2c0.6,1.3,1.2,2.5,2,3.6c0.8,1.8,2.1,3.5,3.5,5
								c-0.5,2.5-1.8,4.6-4.9,5.9c-6.3,2.6-14.5,3.7-17.7,9c8.2,6.8,18.8,10.9,30.3,10.9C514.8,474.8,526.3,469.9,534.8,461.8z"/>
						</g>
					</g>
					<path class="st13" d="M523.9,429.2c-0.2-1.2-0.5-2.3-1-3.2c-1.8-15.3-8.4-24-21.6-20.3c-1,0.2-2,0.4-3,0.7
						c-9.2,0.4-12.1,11.2-12.8,19.6c-0.5,1-0.9,2.1-1,3.2c-0.2,1.6-0.2,3.3,0.1,4.9c0.3,1.6,1,3.2,1.9,4.3c0.7,0.9,1.6,1.7,2.6,2
						c1.9,4.2,4.8,9,9,11.5c1.5,0.9,3.1,1.7,4.8,1.9c3.5,0.4,5.8-1.1,8.6-2.9c1.4-0.9,2.7-2.2,3.8-3.5c0.9-1.1,1.3-2.5,2.1-3.6
						c0.7-1.1,1.3-2.2,1.9-3.4c1-0.4,1.9-1.1,2.6-2c0.9-1.2,1.5-2.7,1.9-4.3C524.1,432.5,524.1,430.8,523.9,429.2z"/>
					<g>
						<path class="st9" d="M491.5,456.9c2.5-0.9,4.1-3.3,5.1-6.1c2.5,1.9,5.2,3.1,7.2,3.1c0.1,0,0.3,0,0.4,0c0.1,0,0.3,0,0.4,0
							c2.1,0,4.8-1.2,7.3-3.2c1,2.8,2.6,5.2,5.1,6.2c-4.4,5.7-7.4,8.5-12.9,10.6C499.2,465.9,495.7,463.2,491.5,456.9z"/>
						<path class="st9" d="M504.3,471.3c0.5,0,1,0.5,1,1c0,0.6-0.4,1-1,1c-0.5,0-1-0.5-1-1C503.3,471.7,503.8,471.3,504.3,471.3z"/>
						<path class="st9" d="M504.3,468.5c0.5,0,1,0.5,1,1c0,0.6-0.4,1-1,1c-0.5,0-1-0.5-1-1C503.3,468.9,503.8,468.5,504.3,468.5z"/>
						<path class="st9" d="M497.4,443.5c-0.1,1.9,1.3,3.8,4,4.8c1.1,0.4,1.8-1.1,2.8-1.1c1,0,1.8,1.4,2.8,1.1
							c2.6-0.9,3.7-2.6,3.7-4.5C510.8,438.8,497.7,438.9,497.4,443.5z"/>
						<path class="st9" d="M490.1,438.7c-3.2-1.1-4.6-7-3.2-10.9c0.9-2.6,2.4-3,3.1,0.1C490.4,430.3,490.4,434.3,490.1,438.7z"/>
						<path class="st9" d="M521.6,427.9c1.3,3.9,0,9.7-3.2,10.8c-0.3-4.6-0.2-8,0.1-10.1C518.9,425.2,520.4,424.3,521.6,427.9z"/>
						<path class="st9" d="M496,439.6c0.1-0.1,0.2-0.2,0.3-0.3c1.5-1.2,3.9-2.3,7.8-1.7c3.8-0.6,6.3,0.5,7.8,1.7
							c0.1,0.1,0.2,0.2,0.3,0.3c3.7,2.3,5.1-7.1,5.1-13.2c-7.8-0.4-11.3-5.6-16.8-8.1c-3.3-1.5-6.5-1.7-7.7,0.2
							c-0.9,1.5-1.4,3.3-1.5,5.4c0,0.1,0,0.3,0,0.4C490.9,430,491.9,442.1,496,439.6z"/>
					</g>
					<g>
						<path class="st10" d="M512,450.7c-2.5,2-5.3,3.2-7.3,3.2c-0.1,0-0.3,0-0.4,0c-0.1,0-0.3,0-0.4,0c0,0-0.1,0-0.1,0v13.4
							c0.2,0.1,0.3,0.1,0.5,0.2c5.5-2.1,8.5-4.9,12.9-10.6C514.6,455.9,512.9,453.5,512,450.7z"/>
						<path class="st10" d="M503.7,440v7.3c0.2-0.1,0.3-0.1,0.5-0.1c1,0,1.8,1.4,2.8,1.1c2.6-0.9,3.7-2.6,3.7-4.5
							C510.8,441.1,507.2,439.9,503.7,440z"/>
						<path class="st10" d="M521.6,427.9c1.3,3.9,0,9.7-3.2,10.8c-0.3-4.6-0.2-8,0.1-10.1C518.9,425.2,520.4,424.3,521.6,427.9z"/>
						<path class="st10" d="M503.7,420.1v17.5c0.1,0,0.3,0,0.4,0c3.8-0.6,6.3,0.5,7.8,1.7c0.1,0.1,0.2,0.2,0.3,0.3
							c3.7,2.3,5.1-7.1,5.1-13.2C511.1,426,507.6,422.7,503.7,420.1z"/>
					</g>
				</g>
			</g>
			<g>
				<path class="st11" d="M439.8,138c0,27.1-21.9,49-49,49c-27.1,0-49-21.9-49-49s21.9-49,49-49C417.9,89,439.8,110.9,439.8,138z"/>
				<g>
					<path class="st12" d="M425.2,172.9c-4.6-3-11.3-4.3-16.7-6.6c-1.7-0.7-2.9-1.6-3.8-2.7c1.8-0.4,3.3-1.9,3.7-3.8
						c0.2,0,0.4,0,0.6,0c2.8,0,5.1-2.4,5.1-5.4c0-0.5-0.1-1-0.2-1.4c2.1-0.7,3.6-2.7,3.6-5.1c0-1.4-0.5-2.6-1.3-3.6
						c1.8-0.8,3.1-2.7,3.1-5c0-1.5-0.6-2.8-1.5-3.8c1-1,1.7-2.4,1.7-4c0-1.3-0.4-2.5-1.2-3.4c0.6-0.9,1-2,1-3.1c0-3-2.3-5.4-5.1-5.4
						c-0.3,0-0.6,0-0.9,0.1c0.3-0.7,0.5-1.5,0.5-2.3c0-3-2.3-5.4-5.1-5.4c-0.8,0-1.6,0.2-2.3,0.6c-0.1-2.9-2.3-5.2-5.1-5.2
						c-1.1,0-2.2,0.4-3,1.1c-0.3-2.7-2.4-4.7-5-4.7c-2,0-3.8,1.2-4.6,3.1c-0.6-0.2-1.2-0.4-1.9-0.4c-1.5,0-2.9,0.7-3.8,1.9
						c-0.8-0.6-1.8-0.9-2.8-0.9c-2.8,0-5.1,2.4-5.1,5.4c0,0.1,0,0.2,0,0.3c-1.8,0.4-3.3,1.8-3.9,3.6c-0.2,0-0.3,0-0.5,0
						c-2.8,0-5.1,2.4-5.1,5.4c0,0.6,0.1,1.2,0.3,1.8c-1.7,0.9-2.8,2.7-2.8,4.8c0,1.4,0.5,2.6,1.3,3.5c-1.1,1-1.7,2.4-1.7,4
						c0,1.7,0.8,3.2,1.9,4.2c-0.2,0.6-0.3,1.2-0.3,1.9c0,2.5,1.6,4.5,3.7,5.2c-0.2,0.5-0.2,1.1-0.2,1.7c0,2.7,1.9,4.9,4.3,5.3
						c-0.1,0.4-0.1,0.8-0.1,1.3c0,3,2.3,5.4,5.1,5.4c0,0,0.1,0,0.1,0c0,1.1,0.4,2.2,1,3c-0.9,0.9-2,1.6-3.4,2.2
						c-5.8,2.4-13.1,3.8-17.7,7.3c8.8,8.3,20.6,13.4,33.7,13.4C404.2,187,416.4,181.6,425.2,172.9z"/>
					<g>
						<path class="st18" d="M362.2,173.2c-1.3,0.5-2.5,1.1-3.4,1.8c4,3.5,8.6,6.3,13.6,8.3C371.3,177.7,368,172.8,362.2,173.2z"/>
						<path class="st18" d="M419.6,173.1c-2.7,0.7-5.4,4.2-7.2,8.9c3.9-1.9,7.5-4.3,10.7-7.1C422,174.2,420.9,173.6,419.6,173.1z"/>
						<path class="st18" d="M406.7,171.1c-0.1,0.3-0.2,0.5-0.4,0.8c-0.4,0.7-0.9,1.4-1.5,1.9c-0.8,0.8-1.8,1.4-2.9,1.8
							c-2.5,0.8-5.6,0.4-8.7-2.2c4.4-0.5,8.6-2.8,10.3-6.7c-1.7-1.7-2.7-4-3.4-6.6c-2.5,1.4-5.3,2.3-8.4,2.3c-3.2,0-6-0.8-8.5-2.3
							c-0.7,2.4-1.7,4.6-3.1,6.2c0.7,4.5,5.1,6.9,9.9,7.3c-2.7,2.2-5.5,2.6-7.9,1.9c-1.1-0.3-2.2-0.9-3-1.7c-0.9-0.8-1.5-1.7-2-2.7
							c-0.3-0.8-0.5-1.6-0.6-2.5c-0.3,0.1-0.6,0.2-0.9,0.3c0.1,0.9,0.3,1.7,0.6,2.6c0.5,1.2,1.3,2.2,2.2,3c1,0.8,2.1,1.5,3.4,1.9
							c2.9,0.9,6.4,0.3,9.6-2.8c0.2,0,0.4,0,0.6,0c3.6,3.3,7.3,3.9,10.3,3c1.3-0.4,2.4-1.1,3.3-2c0.3-0.3,0.6-0.6,0.9-1
							c0.5-0.7,0.9-1.4,1.2-2.1c0.3-0.7,0.4-1.4,0.5-2.2c-0.3-0.1-0.6-0.2-0.9-0.3C407.1,169.7,407,170.4,406.7,171.1z"/>
						<path class="st18" d="M406.3,135.1c0-0.2,0-0.4,0-0.6c0-0.2,0-0.4,0-0.6l0-0.2l0,0c-0.2,0-0.3,0-0.5,0c-2.4,0-4.4-1.8-4.9-4.2
							c-1.6-0.3-2.9-1.3-3.6-2.7c-0.7,0.4-1.4,0.7-2.2,0.8c-0.9,1.5-2.5,2.6-4.3,2.6c-0.1,0-0.2,0-0.3,0c-0.5,2.4-2.5,4.2-4.9,4.2
							c-0.7,0-1.4-0.3-2-0.6c-0.1,2.9-2.3,5.1-5.1,5.1h-0.1c0,0,0,0.6,0,0.8c0,3-2.3,5.4-5.1,5.4c-0.2,0-0.5,0-0.7,0
							c0.8,1.3,1.9,2.2,3.2,2.5c2.9,7,8.4,12.2,15.8,12.2c6.6,0,11.5-4.1,14.6-9.8c0.4-0.8,0.8-1.5,1.1-2.4c2.9-0.5,4.6-4.2,4.8-7.9
							c-0.3,0.1-0.6,0.1-1,0.1C408.7,139.9,406.6,137.8,406.3,135.1z"/>
					</g>
					<path class="st19" d="M391.5,159.9c0.1,0,0.1,0,0.2,0c6.6,0,11.5-4.1,14.6-9.8c0.4-0.8,0.8-1.5,1.1-2.4
						c2.9-0.5,4.6-4.2,4.8-7.9c-0.3,0.1-0.6,0.1-1,0.1c-2.6,0-4.7-2.1-5-4.8c0-0.2,0-0.4,0-0.6c0-0.2,0-0.4,0-0.6v-0.2
						c-0.2,0-0.3,0-0.5,0c-2.4,0-4.4-1.8-4.9-4.2c-1.6-0.3-2.9-1.3-3.6-2.7c-0.7,0.4-1.4,0.7-2.2,0.8c-0.8,1.3-2,2.2-3.5,2.5
						L391.5,159.9L391.5,159.9z"/>
					<path class="st19" d="M407.5,171.5c0.3-0.7,0.4-1.4,0.5-2.2c-0.3-0.1-0.6-0.2-0.9-0.3c0,0.7-0.2,1.5-0.5,2.2
						c-0.1,0.3-0.2,0.5-0.4,0.8c-0.4,0.7-0.9,1.4-1.5,1.9c-0.8,0.8-1.8,1.4-2.9,1.8c-2.5,0.8-5.6,0.4-8.7-2.2
						c4.4-0.5,8.6-2.8,10.3-6.7c-1.7-1.7-2.7-4-3.4-6.6c-2.5,1.4-5.3,2.3-8.4,2.3c-0.1,0-0.1,0-0.2,0v11.2c0.1,0,0.3,0,0.4,0
						c3.6,3.3,7.3,3.9,10.3,3c1.3-0.4,2.4-1.1,3.3-2c0.3-0.3,0.6-0.6,0.9-1C406.8,173,407.2,172.3,407.5,171.5z"/>
				</g>
			</g>
			<g>
				<path class="st20" d="M649.8,213c0,27.1-21.9,49-49,49c-27.1,0-49-21.9-49-49s21.9-49,49-49C627.9,164,649.8,185.9,649.8,213z"
					/>
				<path class="st17" d="M633.1,234.4c3.6-1.8,4.7-5.1,0.2-7.4c-4.5-2.2-4.2-3,0-7.2c4.2-4.2,2.1-14.2-3.8-15.8
					c-5.9-1.6-4.3-4.9-6.8-11.8c-2.3-6.5-18.2-12.4-23.9-5.5c-4-4.2-12.6,1.5-14.4,7.9c-1.8,6.5-0.4,8.2-5,9.2
					c-4.7,0.9-7.6,7.6-4.5,11.9c3,4.2,4.4,6.2,0.1,9.3c-4.3,3.1-3.5,8.8,0.6,10.6c4.1,1.9,4.9,4.8,1.6,6.7c-2.3,1.3-3.4,3.3-1.8,5.3
					c-2,0.9-3.7,2-5,3.4c1.1,0.9,2.3,1.7,3.4,2.5c0,0,0,0,0,0c1.6,1.1,3.2,2,5,2.9c0.1,0,0.2,0.1,0.3,0.1c0.5,0.2,1,0.5,1.5,0.7
					c0.1,0.1,0.3,0.1,0.4,0.2c0.5,0.2,0.9,0.4,1.4,0.6c0.1,0.1,0.3,0.1,0.4,0.2c0.5,0.2,1,0.4,1.5,0.6c0.1,0,0.2,0.1,0.4,0.1
					c0.6,0.2,1.2,0.4,1.8,0.6c0,0,0,0,0,0c0.6,0.2,1.3,0.4,2,0.6c0.1,0,0.1,0,0.2,0.1c0.6,0.1,1.1,0.3,1.7,0.4
					c0.2,0,0.4,0.1,0.6,0.1c0.4,0.1,0.9,0.2,1.3,0.3c0.2,0,0.5,0.1,0.7,0.1c0.4,0.1,0.8,0.1,1.3,0.2c0.2,0,0.5,0.1,0.8,0.1
					c0.4,0.1,0.8,0.1,1.3,0.1c0.2,0,0.5,0,0.7,0.1c0.5,0,0.9,0.1,1.4,0.1c0.2,0,0.4,0,0.6,0c0.7,0,1.4,0,2,0c0.7,0,1.4,0,2.1-0.1
					c0.2,0,0.5,0,0.7,0c0.1,0,0.2,0,0.3,0l0,0c0,0,0,0,0,0c0.4,0,0.7,0,1.1-0.1c0.3,0,0.5,0,0.8-0.1c0.2,0,0.4-0.1,0.7-0.1
					c0,0,0.1,0,0.1,0c0.3,0,0.7-0.1,1-0.1c0.4-0.1,0.8-0.1,1.2-0.2c0.1,0,0.1,0,0.2,0c0.1,0,0.1,0,0.2,0c0.1,0,0.2,0,0.3-0.1
					c0.5-0.1,0.9-0.2,1.4-0.3c0.3-0.1,0.5-0.1,0.8-0.2c0.7-0.2,1.5-0.3,2.2-0.5c0.1,0,0.1,0,0.2,0c0,0,0,0,0,0
					c7.8-2.2,14.7-6.2,20.4-11.6c-0.5-0.3-1.1-0.6-1.6-0.8c1.5-2.8,0.2-5-2.2-6.3C627.3,239.5,629.5,236.2,633.1,234.4z"/>
				<g>
					<path class="st9" d="M580.6,248.2c3.1-1,6.6-1.8,10-3.1c3.9-1.5,4.7-4.5,4.7-8.1c2.5,1.6,5.5,2.6,8.8,2.6
						c3.3,0,6.2-0.9,8.8-2.6c-0.1,3.6,0.7,6.6,4.7,8.1c3.5,1.3,7.1,2.1,10.2,3.2C623,261.3,578.7,257.1,580.6,248.2z"/>
					<path class="st9" d="M617.8,227.7c-2.9,5.5-7.6,9.4-13.8,9.4c-7,0-12.1-4.9-14.8-11.4c-3.5-0.6-5.2-6.4-4.4-10.7
						c0.7-3.3,2.6-4.3,4-1.1c1.1,2.5,1.3,3.8,1.1-1c-0.1-3.2,0.6-6.7,2-9.9c0.1-0.1,0.2-0.3,0.2-0.4c2.4,3.6,7.5,6.8,13.5,6.7
						c10.2-0.2-0.8,6.2,7.5,7.3c6,0.8,4.9,1.9,1.9,5.2C612.9,223.9,613.5,226.9,617.8,227.7z"/>
					<path class="st9" d="M623.2,215.2c0.5,2.7,0,5.9-1.3,8c-0.4,0-0.8-0.1-1.2,0c-5.7,0.5,7.8-7.1-0.7-10.7c-0.1,0-0.1-0.1-0.2-0.1
						C621.5,209,622.9,213.4,623.2,215.2z"/>
				</g>
				<g>
					<path class="st10" d="M617.4,245.1c-3.9-1.5-4.7-4.5-4.7-8.1c-2.5,1.6-5.5,2.6-8.8,2.6v16.9c10.7,0.1,21.5-2.2,23.6-8.2
						C624.5,247.2,620.9,246.4,617.4,245.1z"/>
					<path class="st10" d="M614.9,221.6c2.9-3.3,4.1-4.4-1.9-5.2c-8.3-1.1,2.7-7.5-7.5-7.3c-0.5,0-1,0-1.6-0.1V237
						c6.2,0,10.9-3.9,13.8-9.4C613.5,226.9,612.9,223.9,614.9,221.6z"/>
					<path class="st10" d="M623.2,215.2c0.5,2.7,0,5.9-1.3,8c-0.4,0-0.8-0.1-1.2,0c-5.7,0.5,7.8-7.1-0.7-10.7
						c-0.1,0-0.1-0.1-0.2-0.1C621.5,209,622.9,213.4,623.2,215.2z"/>
				</g>
			</g>
			<g>
				<path class="st20" d="M715.8,389c0,27.1-21.9,49-49,49c-27.1,0-49-21.9-49-49s21.9-49,49-49C693.9,340,715.8,361.9,715.8,389z"
					/>
				<g>
					<path class="st12" d="M666.8,438c13.5,0,25.8-5.5,34.6-14.3c-2.6-3.3-7.4-5.1-12.2-6.7c-0.1-0.2-0.3-0.5-0.4-0.8
						c-3.3-4.9-10.5-7.3-3.1-15.8c-0.1,0.1-0.4,0.3-0.7,0.5c13.4-16.6-0.1-48.3-18.1-48.3c-19.1,0-33.3,34.9-16.5,50.7
						c2.1,1.9,4.1,3.5,6,4.8c-0.5,2.8-1.9,5.1-5.4,6.6c-6.5,2.7-14.8,4.2-18.7,9.1C641.1,432.5,653.3,438,666.8,438z"/>
					<path class="st12" d="M690.1,422.9c0.6-2.8-0.9-4.7-2.4-7.1c-3-4.8-7.4-10.6-2-15.5c-0.1,0.1-0.4,0.3-0.7,0.5
						c13.4-16.6-0.1-48.3-18.1-48.3c-19.1,0-33.3,34.9-16.5,50.7c4.3,4,9.8,6.9,15.7,7.5c2.1,0.2,4.5-1.1,6.4-0.7
						c3.5,0.8,1.8,4.6,3.6,6.7c1,1.1,2.6,1.5,3.8,2.2c3.6,2.2,6.9,4.8,6.7,9.2c0.1-1.2,3.1-3.3,3.5-5
						C690.1,423.1,690.1,423,690.1,422.9z"/>
					<g>
						<path class="st9" d="M684.3,382.3c3.7,3.6,2.3,13.8-2.5,14.6c-2.8,6.6-7.9,11.5-14.9,11.5c-7,0-12.2-4.9-14.9-11.5
							c-4.8-0.8-6.2-11.1-2.5-14.6c1,0.1,1.7,1.4,2.1,2.7c0.8,2.6,1.3,3.9,1.1-1c-0.1-3,0.5-6.1,1.6-9.1c1.7,3.1,5.4,6.2,10.5,8.1
							c6.3,2.4,12.8,2.3,16.5,0.1c0,0.3,0,0.6,0,0.9c-0.2,4.9,0.2,3.6,1,1C682.6,383.7,683.3,382.4,684.3,382.3z"/>
						<path class="st9" d="M635.7,423.9c3.4-3.5,10.6-4.8,17.1-7.3c3.2-1.2,5-4.3,6-8c2.4,1.4,5.1,2.2,8.1,2.2
							c2.9,0,5.5-0.7,7.8-2.1c-0.6,13.9,13.8,9.1,12.5,18.3c2.6-2,3.4-4.6,3.1-7.1c3,1,5.8,2,7.7,3.7c0.2,0.1,0.3,0.3,0.5,0.4
							c-10.1,9.6-52.1,9.8-63.2,0.3C635.4,424.3,635.5,424.1,635.7,423.9z"/>
						<path class="st9" d="M666.8,356.7c10.4,0,18.8,10.1,19.1,22.7c-0.8-4.8-2.7-9.2-5.7-12.5c-3.2-3.4-7.6-5.5-13.3-5.5
							c-5.7,0-10.2,2.1-13.3,5.5c-3.1,3.3-5,7.7-5.7,12.5C648,366.8,656.5,356.7,666.8,356.7z"/>
					</g>
					<g>
						<path class="st10" d="M684.3,382.3c-1,0.1-1.6,1.4-2.1,2.7c-0.8,2.6-1.2,3.9-1-1c0-0.3,0-0.6,0-0.9c-3.3,2-8.7,2.3-14.2,0.7
							v24.7c6.9-0.1,12-5,14.8-11.5C686.6,396.1,688,385.9,684.3,382.3z"/>
						<path class="st10" d="M698,423.7c-1.9-1.6-4.6-2.7-7.7-3.7c0.3,2.5-0.4,5.2-3.1,7.1c1.2-9.2-13.1-4.4-12.5-18.3
							c-2.3,1.3-4.8,2-7.7,2.1v20.6c13.2,0,26.4-2.5,31.5-7.3C698.3,424,698.1,423.8,698,423.7z"/>
						<path class="st10" d="M667,356.7v4.8c5.7,0,10,2.1,13.2,5.5c3.1,3.3,5,7.7,5.7,12.5C685.7,366.9,677.3,356.8,667,356.7z"/>
					</g>
				</g>
			</g>
			<g>
				<path class="st20" d="M344.9,334c0,24.3-19.7,44-44,44c-24.3,0-44-19.7-44-44c0-24.3,19.7-44,44-44S344.9,309.7,344.9,334z"/>
				<g>
					<path class="st21" d="M300.9,378.1c12.2,0,23.2-4.9,31.1-12.9c-2.4-3-6.7-4.6-11-6c-0.1-0.2-0.2-0.5-0.4-0.7
						c-2.9-4.4-9.4-6.6-2.8-14.2c-0.1,0.1-0.3,0.2-0.7,0.4c12-14.9-0.1-43.4-16.3-43.4c-17.1,0-29.9,31.4-14.8,45.5
						c1.9,1.8,3.7,3.2,5.4,4.3c-0.4,2.5-1.7,4.6-4.9,5.9c-5.8,2.4-13.3,3.8-16.8,8.2C277.7,373.1,288.7,378.1,300.9,378.1z"/>
					<path class="st21" d="M321.8,364.5c0.5-2.5-0.8-4.2-2.2-6.4c-2.7-4.3-6.7-9.5-1.8-13.9c-0.1,0.1-0.3,0.2-0.7,0.4
						c12-14.9-0.1-43.4-16.3-43.4c-17.1,0-29.9,31.4-14.8,45.5c3.8,3.6,8.8,6.2,14.1,6.8c1.9,0.2,4.1-1,5.7-0.6
						c3.2,0.7,1.6,4.2,3.3,6c0.9,1,2.3,1.4,3.4,2c3.2,2,6.2,4.3,6,8.3c0.1-1.1,2.8-3,3.1-4.5C321.8,364.7,321.8,364.6,321.8,364.5z"
						/>
					<g>
						<path class="st9" d="M316.6,328c3.4,3.2,2.1,12.4-2.2,13.2c-2.5,5.9-7.1,10.4-13.4,10.4c-6.3,0-10.9-4.4-13.4-10.4
							c-4.3-0.8-5.6-9.9-2.2-13.2c0.9,0,1.5,1.2,1.9,2.5c0.7,2.3,1.2,3.5,1-0.9c-0.1-2.7,0.4-5.5,1.5-8.2c1.5,2.8,4.9,5.6,9.4,7.3
							c5.7,2.2,11.5,2.1,14.9,0c0,0.3,0,0.6,0,0.9c-0.2,4.4,0.2,3.2,0.9,0.9C315.1,329.3,315.7,328.1,316.6,328z"/>
						<path class="st9" d="M272.9,365.4c3.1-3.2,9.5-4.3,15.4-6.5c2.9-1.1,4.5-3.9,5.4-7.2c2.1,1.2,4.6,2,7.2,2c2.6,0,5-0.7,7.1-1.8
							c-0.5,12.5,12.4,8.2,11.3,16.5c2.4-1.8,3.1-4.2,2.8-6.4c2.7,0.9,5.2,1.8,6.9,3.3c0.2,0.1,0.3,0.3,0.4,0.4
							c-9.1,8.7-46.9,8.8-56.9,0.3C272.6,365.7,272.7,365.6,272.9,365.4z"/>
						<path class="st9" d="M300.9,305c9.3,0,16.9,9.1,17.1,20.4c-0.7-4.3-2.4-8.3-5.2-11.2c-2.9-3-6.8-4.9-12-4.9
							c-5.2,0-9.1,1.9-12,4.9c-2.8,2.9-4.5,6.9-5.2,11.2C284,314.1,291.5,305,300.9,305z"/>
					</g>
					<g>
						<path class="st10" d="M316.6,328c-0.9,0.1-1.5,1.3-1.9,2.5c-0.7,2.3-1.1,3.5-0.9-0.9c0-0.3,0-0.6,0-0.9
							c-2.9,1.8-7.8,2.1-12.8,0.6v22.2c6.2-0.1,10.8-4.5,13.3-10.4C318.6,340.4,319.9,331.2,316.6,328z"/>
						<path class="st10" d="M328.9,365.2c-1.7-1.5-4.2-2.4-6.9-3.3c0.3,2.2-0.4,4.6-2.8,6.4c1.1-8.3-11.8-4-11.3-16.5
							c-2,1.2-4.4,1.8-6.9,1.8v18.5c11.9,0,23.7-2.2,28.3-6.6C329.2,365.5,329,365.3,328.9,365.2z"/>
						<path class="st10" d="M301,305v4.3c5.1,0,9,1.9,11.8,4.9c2.8,2.9,4.5,6.9,5.2,11.2C317.8,314.2,310.3,305.1,301,305z"/>
					</g>
				</g>
			</g>
		</g>
	</g>
</g>
</svg>
